%TF.GenerationSoftware,KiCad,Pcbnew,(6.0.7)*%
%TF.CreationDate,2022-10-28T10:56:41+02:00*%
%TF.ProjectId,LDAD ATOM PRO,4c444144-2041-4544-9f4d-2050524f2e6b,5.3*%
%TF.SameCoordinates,Original*%
%TF.FileFunction,Copper,L1,Top*%
%TF.FilePolarity,Positive*%
%FSLAX46Y46*%
G04 Gerber Fmt 4.6, Leading zero omitted, Abs format (unit mm)*
G04 Created by KiCad (PCBNEW (6.0.7)) date 2022-10-28 10:56:41*
%MOMM*%
%LPD*%
G01*
G04 APERTURE LIST*
G04 Aperture macros list*
%AMRoundRect*
0 Rectangle with rounded corners*
0 $1 Rounding radius*
0 $2 $3 $4 $5 $6 $7 $8 $9 X,Y pos of 4 corners*
0 Add a 4 corners polygon primitive as box body*
4,1,4,$2,$3,$4,$5,$6,$7,$8,$9,$2,$3,0*
0 Add four circle primitives for the rounded corners*
1,1,$1+$1,$2,$3*
1,1,$1+$1,$4,$5*
1,1,$1+$1,$6,$7*
1,1,$1+$1,$8,$9*
0 Add four rect primitives between the rounded corners*
20,1,$1+$1,$2,$3,$4,$5,0*
20,1,$1+$1,$4,$5,$6,$7,0*
20,1,$1+$1,$6,$7,$8,$9,0*
20,1,$1+$1,$8,$9,$2,$3,0*%
%AMRotRect*
0 Rectangle, with rotation*
0 The origin of the aperture is its center*
0 $1 length*
0 $2 width*
0 $3 Rotation angle, in degrees counterclockwise*
0 Add horizontal line*
21,1,$1,$2,0,0,$3*%
%AMFreePoly0*
4,1,6,0.500000,-0.850000,-0.500000,-0.850000,-0.500000,0.550000,-0.200000,0.850000,0.500000,0.850000,0.500000,-0.850000,0.500000,-0.850000,$1*%
%AMFreePoly1*
4,1,48,0.036020,0.199191,0.037970,0.199714,0.040958,0.198321,0.057086,0.195477,0.069630,0.184951,0.084467,0.178033,0.290533,-0.028033,0.293203,-0.031847,0.294953,-0.032857,0.296081,-0.035957,0.305473,-0.049370,0.306900,-0.065680,0.312500,-0.081066,0.312500,-0.125000,0.310782,-0.134742,0.311361,-0.138024,0.309695,-0.140910,0.307977,-0.150652,0.295451,-0.165579,0.285709,-0.182453,
0.279350,-0.184767,0.275000,-0.189952,0.255809,-0.193336,0.237500,-0.200000,-0.237500,-0.200000,-0.247242,-0.198282,-0.250524,-0.198861,-0.253410,-0.197195,-0.263152,-0.195477,-0.278079,-0.182951,-0.294953,-0.173209,-0.297267,-0.166850,-0.302452,-0.162500,-0.305836,-0.143309,-0.312500,-0.125000,-0.312500,0.125000,-0.310782,0.134742,-0.311361,0.138024,-0.309695,0.140910,-0.307977,0.150652,
-0.295451,0.165579,-0.285709,0.182453,-0.279350,0.184767,-0.275000,0.189952,-0.255809,0.193336,-0.237500,0.200000,0.031434,0.200000,0.036020,0.199191,0.036020,0.199191,$1*%
%AMFreePoly2*
4,1,48,0.247242,0.198282,0.250524,0.198861,0.253410,0.197195,0.263152,0.195477,0.278079,0.182951,0.294953,0.173209,0.297267,0.166850,0.302452,0.162500,0.305836,0.143309,0.312500,0.125000,0.312500,0.081066,0.311691,0.076480,0.312214,0.074529,0.310820,0.071540,0.307977,0.055414,0.297452,0.042871,0.290533,0.028033,0.084467,-0.178033,0.080653,-0.180703,0.079643,-0.182453,
0.076543,-0.183581,0.063130,-0.192973,0.046819,-0.194400,0.031434,-0.200000,-0.237500,-0.200000,-0.247242,-0.198282,-0.250524,-0.198861,-0.253410,-0.197195,-0.263152,-0.195477,-0.278079,-0.182951,-0.294953,-0.173209,-0.297267,-0.166850,-0.302452,-0.162500,-0.305836,-0.143309,-0.312500,-0.125000,-0.312500,0.125000,-0.310782,0.134742,-0.311361,0.138024,-0.309695,0.140910,-0.307977,0.150652,
-0.295451,0.165579,-0.285709,0.182453,-0.279350,0.184767,-0.275000,0.189952,-0.255809,0.193336,-0.237500,0.200000,0.237500,0.200000,0.247242,0.198282,0.247242,0.198282,$1*%
%AMFreePoly3*
4,1,48,0.134742,0.310782,0.138024,0.311361,0.140910,0.309695,0.150652,0.307977,0.165579,0.295451,0.182453,0.285709,0.184767,0.279350,0.189952,0.275000,0.193336,0.255809,0.200000,0.237500,0.200000,-0.237500,0.198282,-0.247242,0.198861,-0.250524,0.197195,-0.253410,0.195477,-0.263152,0.182951,-0.278079,0.173209,-0.294953,0.166850,-0.297267,0.162500,-0.302452,0.143309,-0.305836,
0.125000,-0.312500,-0.125000,-0.312500,-0.134742,-0.310782,-0.138024,-0.311361,-0.140910,-0.309695,-0.150652,-0.307977,-0.165579,-0.295451,-0.182453,-0.285709,-0.184767,-0.279350,-0.189952,-0.275000,-0.193336,-0.255809,-0.200000,-0.237500,-0.200000,0.031434,-0.199191,0.036020,-0.199714,0.037970,-0.198321,0.040958,-0.195477,0.057086,-0.184951,0.069630,-0.178033,0.084467,0.028033,0.290533,
0.031847,0.293203,0.032857,0.294953,0.035957,0.296081,0.049370,0.305473,0.065680,0.306900,0.081066,0.312500,0.125000,0.312500,0.134742,0.310782,0.134742,0.310782,$1*%
%AMFreePoly4*
4,1,48,-0.076480,0.311691,-0.074530,0.312214,-0.071542,0.310821,-0.055414,0.307977,-0.042870,0.297451,-0.028033,0.290533,0.178033,0.084467,0.180703,0.080653,0.182453,0.079643,0.183581,0.076543,0.192973,0.063130,0.194400,0.046820,0.200000,0.031434,0.200000,-0.237500,0.198282,-0.247242,0.198861,-0.250524,0.197195,-0.253410,0.195477,-0.263152,0.182951,-0.278079,0.173209,-0.294953,
0.166850,-0.297267,0.162500,-0.302452,0.143309,-0.305836,0.125000,-0.312500,-0.125000,-0.312500,-0.134742,-0.310782,-0.138024,-0.311361,-0.140910,-0.309695,-0.150652,-0.307977,-0.165579,-0.295451,-0.182453,-0.285709,-0.184767,-0.279350,-0.189952,-0.275000,-0.193336,-0.255809,-0.200000,-0.237500,-0.200000,0.237500,-0.198282,0.247242,-0.198861,0.250524,-0.197195,0.253410,-0.195477,0.263152,
-0.182951,0.278079,-0.173209,0.294953,-0.166850,0.297267,-0.162500,0.302452,-0.143309,0.305836,-0.125000,0.312500,-0.081066,0.312500,-0.076480,0.311691,-0.076480,0.311691,$1*%
%AMFreePoly5*
4,1,48,0.247242,0.198282,0.250524,0.198861,0.253410,0.197195,0.263152,0.195477,0.278079,0.182951,0.294953,0.173209,0.297267,0.166850,0.302452,0.162500,0.305836,0.143309,0.312500,0.125000,0.312500,-0.125000,0.310782,-0.134742,0.311361,-0.138024,0.309695,-0.140910,0.307977,-0.150652,0.295451,-0.165579,0.285709,-0.182453,0.279350,-0.184767,0.275000,-0.189952,0.255809,-0.193336,
0.237500,-0.200000,-0.031434,-0.200000,-0.036020,-0.199191,-0.037971,-0.199714,-0.040960,-0.198320,-0.057086,-0.195477,-0.069629,-0.184952,-0.084467,-0.178033,-0.290533,0.028033,-0.293203,0.031847,-0.294953,0.032857,-0.296081,0.035957,-0.305473,0.049370,-0.306900,0.065681,-0.312500,0.081066,-0.312500,0.125000,-0.310782,0.134742,-0.311361,0.138024,-0.309695,0.140910,-0.307977,0.150652,
-0.295451,0.165579,-0.285709,0.182453,-0.279350,0.184767,-0.275000,0.189952,-0.255809,0.193336,-0.237500,0.200000,0.237500,0.200000,0.247242,0.198282,0.247242,0.198282,$1*%
%AMFreePoly6*
4,1,48,0.247242,0.198282,0.250524,0.198861,0.253410,0.197195,0.263152,0.195477,0.278079,0.182951,0.294953,0.173209,0.297267,0.166850,0.302452,0.162500,0.305836,0.143309,0.312500,0.125000,0.312500,-0.125000,0.310782,-0.134742,0.311361,-0.138024,0.309695,-0.140910,0.307977,-0.150652,0.295451,-0.165579,0.285709,-0.182453,0.279350,-0.184767,0.275000,-0.189952,0.255809,-0.193336,
0.237500,-0.200000,-0.237500,-0.200000,-0.247242,-0.198282,-0.250524,-0.198861,-0.253410,-0.197195,-0.263152,-0.195477,-0.278079,-0.182951,-0.294953,-0.173209,-0.297267,-0.166850,-0.302452,-0.162500,-0.305836,-0.143309,-0.312500,-0.125000,-0.312500,-0.081066,-0.311691,-0.076480,-0.312214,-0.074530,-0.310821,-0.071542,-0.307977,-0.055414,-0.297451,-0.042870,-0.290533,-0.028033,-0.084467,0.178033,
-0.080653,0.180703,-0.079643,0.182453,-0.076543,0.183581,-0.063130,0.192973,-0.046820,0.194400,-0.031434,0.200000,0.237500,0.200000,0.247242,0.198282,0.247242,0.198282,$1*%
%AMFreePoly7*
4,1,48,0.134742,0.310782,0.138024,0.311361,0.140910,0.309695,0.150652,0.307977,0.165579,0.295451,0.182453,0.285709,0.184767,0.279350,0.189952,0.275000,0.193336,0.255809,0.200000,0.237500,0.200000,-0.031434,0.199191,-0.036020,0.199714,-0.037971,0.198320,-0.040960,0.195477,-0.057086,0.184952,-0.069629,0.178033,-0.084467,-0.028033,-0.290533,-0.031847,-0.293203,-0.032857,-0.294953,
-0.035957,-0.296081,-0.049370,-0.305473,-0.065681,-0.306900,-0.081066,-0.312500,-0.125000,-0.312500,-0.134742,-0.310782,-0.138024,-0.311361,-0.140910,-0.309695,-0.150652,-0.307977,-0.165579,-0.295451,-0.182453,-0.285709,-0.184767,-0.279350,-0.189952,-0.275000,-0.193336,-0.255809,-0.200000,-0.237500,-0.200000,0.237500,-0.198282,0.247242,-0.198861,0.250524,-0.197195,0.253410,-0.195477,0.263152,
-0.182951,0.278079,-0.173209,0.294953,-0.166850,0.297267,-0.162500,0.302452,-0.143309,0.305836,-0.125000,0.312500,0.125000,0.312500,0.134742,0.310782,0.134742,0.310782,$1*%
%AMFreePoly8*
4,1,48,0.134742,0.310782,0.138024,0.311361,0.140910,0.309695,0.150652,0.307977,0.165579,0.295451,0.182453,0.285709,0.184767,0.279350,0.189952,0.275000,0.193336,0.255809,0.200000,0.237500,0.200000,-0.237500,0.198282,-0.247242,0.198861,-0.250524,0.197195,-0.253410,0.195477,-0.263152,0.182951,-0.278079,0.173209,-0.294953,0.166850,-0.297267,0.162500,-0.302452,0.143309,-0.305836,
0.125000,-0.312500,0.081066,-0.312500,0.076480,-0.311691,0.074529,-0.312214,0.071540,-0.310820,0.055414,-0.307977,0.042871,-0.297452,0.028033,-0.290533,-0.178033,-0.084467,-0.180703,-0.080653,-0.182453,-0.079643,-0.183581,-0.076543,-0.192973,-0.063130,-0.194400,-0.046819,-0.200000,-0.031434,-0.200000,0.237500,-0.198282,0.247242,-0.198861,0.250524,-0.197195,0.253410,-0.195477,0.263152,
-0.182951,0.278079,-0.173209,0.294953,-0.166850,0.297267,-0.162500,0.302452,-0.143309,0.305836,-0.125000,0.312500,0.125000,0.312500,0.134742,0.310782,0.134742,0.310782,$1*%
G04 Aperture macros list end*
%TA.AperFunction,NonConductor*%
%ADD10C,0.200000*%
%TD*%
%TA.AperFunction,SMDPad,CuDef*%
%ADD11RoundRect,0.150000X-0.625000X0.150000X-0.625000X-0.150000X0.625000X-0.150000X0.625000X0.150000X0*%
%TD*%
%TA.AperFunction,SMDPad,CuDef*%
%ADD12RoundRect,0.250000X-0.650000X0.350000X-0.650000X-0.350000X0.650000X-0.350000X0.650000X0.350000X0*%
%TD*%
%TA.AperFunction,SMDPad,CuDef*%
%ADD13RoundRect,0.250000X-0.475000X0.250000X-0.475000X-0.250000X0.475000X-0.250000X0.475000X0.250000X0*%
%TD*%
%TA.AperFunction,SMDPad,CuDef*%
%ADD14RoundRect,0.250000X0.475000X-0.250000X0.475000X0.250000X-0.475000X0.250000X-0.475000X-0.250000X0*%
%TD*%
%TA.AperFunction,SMDPad,CuDef*%
%ADD15RoundRect,0.250000X-0.450000X0.350000X-0.450000X-0.350000X0.450000X-0.350000X0.450000X0.350000X0*%
%TD*%
%TA.AperFunction,SMDPad,CuDef*%
%ADD16RoundRect,0.250000X-0.250000X-0.475000X0.250000X-0.475000X0.250000X0.475000X-0.250000X0.475000X0*%
%TD*%
%TA.AperFunction,SMDPad,CuDef*%
%ADD17RoundRect,0.250000X-0.350000X-0.450000X0.350000X-0.450000X0.350000X0.450000X-0.350000X0.450000X0*%
%TD*%
%TA.AperFunction,SMDPad,CuDef*%
%ADD18R,1.900000X1.100000*%
%TD*%
%TA.AperFunction,SMDPad,CuDef*%
%ADD19RoundRect,0.250000X0.250000X0.475000X-0.250000X0.475000X-0.250000X-0.475000X0.250000X-0.475000X0*%
%TD*%
%TA.AperFunction,ComponentPad*%
%ADD20R,1.000000X1.000000*%
%TD*%
%TA.AperFunction,ComponentPad*%
%ADD21O,1.000000X1.000000*%
%TD*%
%TA.AperFunction,SMDPad,CuDef*%
%ADD22RoundRect,0.050000X-0.238649X-0.309359X0.309359X0.238649X0.238649X0.309359X-0.309359X-0.238649X0*%
%TD*%
%TA.AperFunction,SMDPad,CuDef*%
%ADD23RoundRect,0.050000X0.238649X-0.309359X0.309359X-0.238649X-0.238649X0.309359X-0.309359X0.238649X0*%
%TD*%
%TA.AperFunction,SMDPad,CuDef*%
%ADD24RotRect,5.600000X5.600000X45.000000*%
%TD*%
%TA.AperFunction,SMDPad,CuDef*%
%ADD25RoundRect,0.250000X0.450000X-0.262500X0.450000X0.262500X-0.450000X0.262500X-0.450000X-0.262500X0*%
%TD*%
%TA.AperFunction,SMDPad,CuDef*%
%ADD26RoundRect,0.250000X-0.262500X-0.450000X0.262500X-0.450000X0.262500X0.450000X-0.262500X0.450000X0*%
%TD*%
%TA.AperFunction,ConnectorPad*%
%ADD27R,2.000000X0.400000*%
%TD*%
%TA.AperFunction,ComponentPad*%
%ADD28O,1.700000X1.100000*%
%TD*%
%TA.AperFunction,SMDPad,CuDef*%
%ADD29R,0.250000X0.550000*%
%TD*%
%TA.AperFunction,SMDPad,CuDef*%
%ADD30FreePoly0,90.000000*%
%TD*%
%TA.AperFunction,SMDPad,CuDef*%
%ADD31R,1.100000X2.250000*%
%TD*%
%TA.AperFunction,SMDPad,CuDef*%
%ADD32R,1.050000X1.100000*%
%TD*%
%TA.AperFunction,SMDPad,CuDef*%
%ADD33RoundRect,0.250000X0.337500X0.475000X-0.337500X0.475000X-0.337500X-0.475000X0.337500X-0.475000X0*%
%TD*%
%TA.AperFunction,SMDPad,CuDef*%
%ADD34C,1.000000*%
%TD*%
%TA.AperFunction,SMDPad,CuDef*%
%ADD35RoundRect,0.250000X-0.375000X-1.075000X0.375000X-1.075000X0.375000X1.075000X-0.375000X1.075000X0*%
%TD*%
%TA.AperFunction,SMDPad,CuDef*%
%ADD36RoundRect,0.150000X-0.825000X-0.150000X0.825000X-0.150000X0.825000X0.150000X-0.825000X0.150000X0*%
%TD*%
%TA.AperFunction,SMDPad,CuDef*%
%ADD37R,1.400000X2.100000*%
%TD*%
%TA.AperFunction,SMDPad,CuDef*%
%ADD38RoundRect,0.150000X0.150000X-0.587500X0.150000X0.587500X-0.150000X0.587500X-0.150000X-0.587500X0*%
%TD*%
%TA.AperFunction,SMDPad,CuDef*%
%ADD39RoundRect,0.250000X0.450000X-0.350000X0.450000X0.350000X-0.450000X0.350000X-0.450000X-0.350000X0*%
%TD*%
%TA.AperFunction,SMDPad,CuDef*%
%ADD40RoundRect,0.218750X0.381250X-0.218750X0.381250X0.218750X-0.381250X0.218750X-0.381250X-0.218750X0*%
%TD*%
%TA.AperFunction,SMDPad,CuDef*%
%ADD41RoundRect,0.124800X-0.475200X-0.275200X0.475200X-0.275200X0.475200X0.275200X-0.475200X0.275200X0*%
%TD*%
%TA.AperFunction,SMDPad,CuDef*%
%ADD42R,25.500000X0.400000*%
%TD*%
%TA.AperFunction,SMDPad,CuDef*%
%ADD43R,0.400000X20.500000*%
%TD*%
%TA.AperFunction,SMDPad,CuDef*%
%ADD44RoundRect,0.100000X-0.100000X-0.550000X0.100000X-0.550000X0.100000X0.550000X-0.100000X0.550000X0*%
%TD*%
%TA.AperFunction,SMDPad,CuDef*%
%ADD45RoundRect,0.262500X0.737500X0.262500X-0.737500X0.262500X-0.737500X-0.262500X0.737500X-0.262500X0*%
%TD*%
%TA.AperFunction,SMDPad,CuDef*%
%ADD46RoundRect,0.100000X0.100000X0.550000X-0.100000X0.550000X-0.100000X-0.550000X0.100000X-0.550000X0*%
%TD*%
%TA.AperFunction,SMDPad,CuDef*%
%ADD47RoundRect,0.250000X0.262500X0.450000X-0.262500X0.450000X-0.262500X-0.450000X0.262500X-0.450000X0*%
%TD*%
%TA.AperFunction,SMDPad,CuDef*%
%ADD48RoundRect,0.066000X-0.404000X-0.154000X0.404000X-0.154000X0.404000X0.154000X-0.404000X0.154000X0*%
%TD*%
%TA.AperFunction,SMDPad,CuDef*%
%ADD49RoundRect,0.218750X-0.218750X-0.381250X0.218750X-0.381250X0.218750X0.381250X-0.218750X0.381250X0*%
%TD*%
%TA.AperFunction,SMDPad,CuDef*%
%ADD50R,0.400000X5.700000*%
%TD*%
%TA.AperFunction,SMDPad,CuDef*%
%ADD51R,0.500000X0.500000*%
%TD*%
%TA.AperFunction,SMDPad,CuDef*%
%ADD52R,25.400000X0.400000*%
%TD*%
%TA.AperFunction,SMDPad,CuDef*%
%ADD53R,0.400000X13.300000*%
%TD*%
%TA.AperFunction,SMDPad,CuDef*%
%ADD54RoundRect,0.041300X0.948700X0.253700X-0.948700X0.253700X-0.948700X-0.253700X0.948700X-0.253700X0*%
%TD*%
%TA.AperFunction,SMDPad,CuDef*%
%ADD55FreePoly1,270.000000*%
%TD*%
%TA.AperFunction,SMDPad,CuDef*%
%ADD56RoundRect,0.087500X-0.087500X0.225000X-0.087500X-0.225000X0.087500X-0.225000X0.087500X0.225000X0*%
%TD*%
%TA.AperFunction,SMDPad,CuDef*%
%ADD57FreePoly2,270.000000*%
%TD*%
%TA.AperFunction,SMDPad,CuDef*%
%ADD58FreePoly3,270.000000*%
%TD*%
%TA.AperFunction,SMDPad,CuDef*%
%ADD59RoundRect,0.087500X-0.225000X0.087500X-0.225000X-0.087500X0.225000X-0.087500X0.225000X0.087500X0*%
%TD*%
%TA.AperFunction,SMDPad,CuDef*%
%ADD60FreePoly4,270.000000*%
%TD*%
%TA.AperFunction,SMDPad,CuDef*%
%ADD61FreePoly5,270.000000*%
%TD*%
%TA.AperFunction,SMDPad,CuDef*%
%ADD62FreePoly6,270.000000*%
%TD*%
%TA.AperFunction,SMDPad,CuDef*%
%ADD63FreePoly7,270.000000*%
%TD*%
%TA.AperFunction,SMDPad,CuDef*%
%ADD64FreePoly8,270.000000*%
%TD*%
%TA.AperFunction,SMDPad,CuDef*%
%ADD65R,1.000000X1.300000*%
%TD*%
%TA.AperFunction,SMDPad,CuDef*%
%ADD66O,0.800000X1.500000*%
%TD*%
%TA.AperFunction,ViaPad*%
%ADD67C,0.600000*%
%TD*%
%TA.AperFunction,ViaPad*%
%ADD68C,0.800000*%
%TD*%
%TA.AperFunction,ViaPad*%
%ADD69C,0.500000*%
%TD*%
%TA.AperFunction,ViaPad*%
%ADD70C,0.700000*%
%TD*%
%TA.AperFunction,Conductor*%
%ADD71C,0.150000*%
%TD*%
%TA.AperFunction,Conductor*%
%ADD72C,0.200000*%
%TD*%
%TA.AperFunction,Conductor*%
%ADD73C,0.320000*%
%TD*%
%TA.AperFunction,Conductor*%
%ADD74C,0.300000*%
%TD*%
%TA.AperFunction,Conductor*%
%ADD75C,0.250000*%
%TD*%
%TA.AperFunction,Conductor*%
%ADD76C,0.400000*%
%TD*%
%TA.AperFunction,Conductor*%
%ADD77C,0.510000*%
%TD*%
%TA.AperFunction,Conductor*%
%ADD78C,0.180000*%
%TD*%
%TA.AperFunction,Conductor*%
%ADD79C,0.350000*%
%TD*%
G04 APERTURE END LIST*
D10*
X146400000Y-94980000D02*
G75*
G03*
X146400000Y-94980000I-100000J0D01*
G01*
D11*
%TO.P,I2C2,1,Pin_1*%
%TO.N,GND*%
X121140000Y-97050000D03*
%TO.P,I2C2,2,Pin_2*%
%TO.N,3V3_PLUG*%
X121140000Y-98050000D03*
%TO.P,I2C2,3,Pin_3*%
%TO.N,GPIO9_I2C_SCL*%
X121140000Y-99050000D03*
%TO.P,I2C2,4,Pin_4*%
%TO.N,ADC_OUT*%
X121140000Y-100050000D03*
D12*
%TO.P,I2C2,MP*%
%TO.N,N/C*%
X117265000Y-101350000D03*
X117265000Y-95750000D03*
%TD*%
D11*
%TO.P,J3,1,Pin_1*%
%TO.N,5V0*%
X121080000Y-91840000D03*
%TO.P,J3,2,Pin_2*%
%TO.N,GND*%
X121080000Y-92840000D03*
D12*
%TO.P,J3,3*%
%TO.N,N/C*%
X117205000Y-90540000D03*
X117205000Y-94140000D03*
%TD*%
D13*
%TO.P,EC20,1*%
%TO.N,Net-(EC20-Pad1)*%
X132490000Y-103590000D03*
%TO.P,EC20,2*%
%TO.N,GND*%
X132490000Y-105490000D03*
%TD*%
D14*
%TO.P,EC18,1*%
%TO.N,3V3*%
X142960000Y-107490000D03*
%TO.P,EC18,2*%
%TO.N,GND*%
X142960000Y-105590000D03*
%TD*%
D13*
%TO.P,AUC1,1*%
%TO.N,GND*%
X146860000Y-105450000D03*
%TO.P,AUC1,2*%
%TO.N,3V3*%
X146860000Y-107350000D03*
%TD*%
D15*
%TO.P,AR1,1*%
%TO.N,3V3*%
X160690000Y-89850000D03*
%TO.P,AR1,2*%
%TO.N,Net-(AR1-Pad2)*%
X160690000Y-91850000D03*
%TD*%
D16*
%TO.P,EC25,1*%
%TO.N,VDD_SPI*%
X149140000Y-102010000D03*
%TO.P,EC25,2*%
%TO.N,GND*%
X151040000Y-102010000D03*
%TD*%
D17*
%TO.P,LR1,1*%
%TO.N,IO36_LED_R*%
X141040000Y-86810000D03*
%TO.P,LR1,2*%
%TO.N,Net-(LED1-Pad3)*%
X143040000Y-86810000D03*
%TD*%
D18*
%TO.P,ECY3,1,1*%
%TO.N,Net-(EC61-Pad1)*%
X132270000Y-95662500D03*
%TO.P,ECY3,2,2*%
%TO.N,GND*%
X135970000Y-95662500D03*
%TO.P,ECY3,3,3*%
%TO.N,Net-(EC60-Pad1)*%
X135970000Y-93362500D03*
%TO.P,ECY3,4,4*%
%TO.N,GND*%
X132270000Y-93362500D03*
%TD*%
D19*
%TO.P,EC60,1*%
%TO.N,Net-(EC60-Pad1)*%
X133430000Y-91730000D03*
%TO.P,EC60,2*%
%TO.N,GND*%
X131530000Y-91730000D03*
%TD*%
%TO.P,EC61,1*%
%TO.N,Net-(EC61-Pad1)*%
X133530000Y-97350000D03*
%TO.P,EC61,2*%
%TO.N,GND*%
X131630000Y-97350000D03*
%TD*%
D20*
%TO.P,J1,1,Pin_1*%
%TO.N,ADC_OUT*%
X123305000Y-92325000D03*
D21*
%TO.P,J1,2,Pin_2*%
%TO.N,GPIO8_I2C_SDA*%
X124575000Y-92325000D03*
%TO.P,J1,3,Pin_3*%
%TO.N,ADC_OUT*%
X123305000Y-93595000D03*
%TO.P,J1,4,Pin_4*%
%TO.N,GPIO06_EXT_PLUG2*%
X124575000Y-93595000D03*
%TO.P,J1,5,Pin_5*%
%TO.N,ADC_OUT*%
X123305000Y-94865000D03*
%TO.P,J1,6,Pin_6*%
%TO.N,Net-(EXP_R1-Pad2)*%
X124575000Y-94865000D03*
%TO.P,J1,7,Pin_7*%
%TO.N,ADC_OUT*%
X123305000Y-96135000D03*
%TO.P,J1,8,Pin_8*%
%TO.N,Net-(EXP_R2-Pad2)*%
X124575000Y-96135000D03*
%TO.P,J1,9,Pin_9*%
%TO.N,ADC_OUT*%
X123305000Y-97405000D03*
%TO.P,J1,10,Pin_10*%
%TO.N,Net-(EXP_R3-Pad2)*%
X124575000Y-97405000D03*
%TO.P,J1,11,Pin_11*%
%TO.N,ADC_OUT*%
X123305000Y-98675000D03*
%TO.P,J1,12,Pin_12*%
%TO.N,Net-(EXP_R4-Pad2)*%
X124575000Y-98675000D03*
%TD*%
D22*
%TO.P,ESP32S3,1,LNA_IN/RF*%
%TO.N,Net-(EC38-Pad1)*%
X136180894Y-100062202D03*
%TO.P,ESP32S3,2,VDD3P3*%
%TO.N,Net-(EC20-Pad1)*%
X136463737Y-100345045D03*
%TO.P,ESP32S3,3,VDD3P3*%
X136746579Y-100627887D03*
%TO.P,ESP32S3,4,CHIP_PU/RESET*%
%TO.N,CHIP_EN*%
X137029422Y-100910730D03*
%TO.P,ESP32S3,5,GPIO0/BOOT*%
%TO.N,ESP_GPIO0_BOOT-DTR*%
X137312265Y-101193573D03*
%TO.P,ESP32S3,6,GPIO1/ADC1_CH0*%
%TO.N,unconnected-(ESP32S3-Pad6)*%
X137595107Y-101476415D03*
%TO.P,ESP32S3,7,GPIO2/ADC1_CH1*%
%TO.N,GPIO2_PLUG_PWR_3V3*%
X137877950Y-101759258D03*
%TO.P,ESP32S3,8,GPIO3/ADC1_CH2*%
%TO.N,GND*%
X138160793Y-102042101D03*
%TO.P,ESP32S3,9,GPIO4/ADC1_CH3*%
%TO.N,unconnected-(ESP32S3-Pad9)*%
X138443636Y-102324944D03*
%TO.P,ESP32S3,10,GPIO5/ADC1_CH4*%
%TO.N,GPIO10_EXT_PLUG1*%
X138726478Y-102607786D03*
%TO.P,ESP32S3,11,GPIO6/ADC1_CH5*%
%TO.N,GPIO06_EXT_PLUG2*%
X139009321Y-102890629D03*
%TO.P,ESP32S3,12,GPIO7/ADC1_CH6*%
%TO.N,VOLTAGE_REF*%
X139292164Y-103173472D03*
%TO.P,ESP32S3,13,GPIO8/ADC1_CH7*%
%TO.N,GPIO8_I2C_SDA*%
X139575006Y-103456314D03*
%TO.P,ESP32S3,14,GPIO9/ADC1_CH8*%
%TO.N,GPIO9_I2C_SCL*%
X139857849Y-103739157D03*
D23*
%TO.P,ESP32S3,15,GPIO10/ADC1_CH9*%
%TO.N,unconnected-(ESP32S3-Pad15)*%
X141042253Y-103739157D03*
%TO.P,ESP32S3,16,GPIO11/ADC2_CH0*%
%TO.N,unconnected-(ESP32S3-Pad16)*%
X141325096Y-103456314D03*
%TO.P,ESP32S3,17,GPIO12/ADC2_CH1*%
%TO.N,unconnected-(ESP32S3-Pad17)*%
X141607938Y-103173472D03*
%TO.P,ESP32S3,18,GPIO13/ADC2_CH2*%
%TO.N,unconnected-(ESP32S3-Pad18)*%
X141890781Y-102890629D03*
%TO.P,ESP32S3,19,GPIO14/ADC2_CH3*%
%TO.N,unconnected-(ESP32S3-Pad19)*%
X142173624Y-102607786D03*
%TO.P,ESP32S3,20,VDD3P3_RTC*%
%TO.N,3V3*%
X142456466Y-102324944D03*
%TO.P,ESP32S3,21,GPIO15/ADC2_CH4/XTAL_32K_P*%
%TO.N,Net-(EC51-Pad1)*%
X142739309Y-102042101D03*
%TO.P,ESP32S3,22,GPIO16/ADC2_CH5/XTAL_32K_N*%
%TO.N,Net-(EC50-Pad1)*%
X143022152Y-101759258D03*
%TO.P,ESP32S3,23,GPIO17/ADC2_CH6/DAC_2*%
%TO.N,unconnected-(ESP32S3-Pad23)*%
X143304995Y-101476415D03*
%TO.P,ESP32S3,24,GPIO18/ADC2_CH7/DAC_1*%
%TO.N,unconnected-(ESP32S3-Pad24)*%
X143587837Y-101193573D03*
%TO.P,ESP32S3,25,GPIO19/USB_D-/ADC2_CH8*%
%TO.N,USB_D-*%
X143870680Y-100910730D03*
%TO.P,ESP32S3,26,GPIO20/USB_D+/ADC2_CH9*%
%TO.N,USB_D+*%
X144153523Y-100627887D03*
%TO.P,ESP32S3,27,GPIO21*%
%TO.N,unconnected-(ESP32S3-Pad27)*%
X144436365Y-100345045D03*
%TO.P,ESP32S3,28,SPI_CS1/GPIO26*%
%TO.N,SPICS1*%
X144719208Y-100062202D03*
D22*
%TO.P,ESP32S3,29,VDD_SPI*%
%TO.N,VDD_SPI*%
X144719208Y-98877798D03*
%TO.P,ESP32S3,30,SPIHD/GPIO27*%
%TO.N,SPIHD*%
X144436365Y-98594955D03*
%TO.P,ESP32S3,31,SPIWP/GPIO28*%
%TO.N,SPIWP*%
X144153523Y-98312113D03*
%TO.P,ESP32S3,32,SPICS0/GPIO29*%
%TO.N,SPICS0*%
X143870680Y-98029270D03*
%TO.P,ESP32S3,33,SPICLK/GPIO30*%
%TO.N,SPICLK*%
X143587837Y-97746427D03*
%TO.P,ESP32S3,34,SPIQ/GPIO31*%
%TO.N,SPIQ*%
X143304995Y-97463585D03*
%TO.P,ESP32S3,35,SPID/GPIO32*%
%TO.N,SPID*%
X143022152Y-97180742D03*
%TO.P,ESP32S3,36,SPICLK_N/GPIO48*%
%TO.N,unconnected-(ESP32S3-Pad36)*%
X142739309Y-96897899D03*
%TO.P,ESP32S3,37,SPICLK_P/GPIO47*%
%TO.N,unconnected-(ESP32S3-Pad37)*%
X142456466Y-96615056D03*
%TO.P,ESP32S3,38,GPIO33*%
%TO.N,unconnected-(ESP32S3-Pad38)*%
X142173624Y-96332214D03*
%TO.P,ESP32S3,39,GPIO34*%
%TO.N,IO34_LED_B*%
X141890781Y-96049371D03*
%TO.P,ESP32S3,40,GPIO35*%
%TO.N,IO35_LED_G*%
X141607938Y-95766528D03*
%TO.P,ESP32S3,41,GPIO36*%
%TO.N,IO36_LED_R*%
X141325096Y-95483686D03*
%TO.P,ESP32S3,42,GPIO37*%
%TO.N,unconnected-(ESP32S3-Pad42)*%
X141042253Y-95200843D03*
D23*
%TO.P,ESP32S3,43,GPIO38*%
%TO.N,GPIO38_IMU_CS*%
X139857849Y-95200843D03*
%TO.P,ESP32S3,44,MTCK/JTAG/GPIO39*%
%TO.N,unconnected-(ESP32S3-Pad44)*%
X139575006Y-95483686D03*
%TO.P,ESP32S3,45,MTDO/JTAG/GPIO40*%
%TO.N,unconnected-(ESP32S3-Pad45)*%
X139292164Y-95766528D03*
%TO.P,ESP32S3,46,VDD3P3_CPU*%
%TO.N,3V3*%
X139009321Y-96049371D03*
%TO.P,ESP32S3,47,MTDI/JTAG/GPIO41*%
%TO.N,unconnected-(ESP32S3-Pad47)*%
X138726478Y-96332214D03*
%TO.P,ESP32S3,48,MTMS/JTAG/GPIO42*%
%TO.N,unconnected-(ESP32S3-Pad48)*%
X138443636Y-96615056D03*
%TO.P,ESP32S3,49,U0TXD/PROG/GPIO43*%
%TO.N,Net-(ER2-Pad2)*%
X138160793Y-96897899D03*
%TO.P,ESP32S3,50,U0RXD/PROG/GPIO44*%
%TO.N,RXD0*%
X137877950Y-97180742D03*
%TO.P,ESP32S3,51,GPIO45*%
%TO.N,GND*%
X137595107Y-97463585D03*
%TO.P,ESP32S3,52,GPIO46*%
%TO.N,ESP_GPIO0_BOOT-DTR*%
X137312265Y-97746427D03*
%TO.P,ESP32S3,53,XTAL_N*%
%TO.N,Net-(EC60-Pad1)*%
X137029422Y-98029270D03*
%TO.P,ESP32S3,54,XTAL_P*%
%TO.N,Net-(EC61-Pad1)*%
X136746579Y-98312113D03*
%TO.P,ESP32S3,55,VDDA*%
%TO.N,3V3*%
X136463737Y-98594955D03*
%TO.P,ESP32S3,56,VDDA*%
X136180894Y-98877798D03*
D24*
%TO.P,ESP32S3,57,GND*%
%TO.N,GND*%
X140450051Y-99470000D03*
%TD*%
D25*
%TO.P,ER1,1*%
%TO.N,3V3*%
X138220000Y-107655000D03*
%TO.P,ER1,2*%
%TO.N,CHIP_EN*%
X138220000Y-105830000D03*
%TD*%
D26*
%TO.P,ER3,1*%
%TO.N,3V3*%
X121537500Y-90270000D03*
%TO.P,ER3,2*%
%TO.N,ESP_GPIO0_BOOT-DTR*%
X123362500Y-90270000D03*
%TD*%
D16*
%TO.P,EC38,1*%
%TO.N,Net-(EC38-Pad1)*%
X126240000Y-105320000D03*
%TO.P,EC38,2*%
%TO.N,GND*%
X128140000Y-105320000D03*
%TD*%
D27*
%TO.P,J2,1,VBUS*%
%TO.N,5V0*%
X157325000Y-102330000D03*
%TO.P,J2,2,D-*%
%TO.N,unconnected-(J2-Pad2)*%
X157325000Y-101530000D03*
%TO.P,J2,3,D+*%
%TO.N,unconnected-(J2-Pad3)*%
X157330000Y-100725000D03*
%TO.P,J2,4,ID*%
%TO.N,unconnected-(J2-Pad4)*%
X157320000Y-99935000D03*
%TO.P,J2,5,GND*%
%TO.N,GND*%
X157330000Y-99155000D03*
D28*
%TO.P,J2,6,Shield*%
X156990000Y-97160000D03*
X160470000Y-97140000D03*
X160470000Y-104360000D03*
X157000000Y-104350000D03*
%TD*%
D14*
%TO.P,SHC1,1*%
%TO.N,GND*%
X160450000Y-107710000D03*
%TO.P,SHC1,2*%
%TO.N,3V3*%
X160450000Y-105810000D03*
%TD*%
D25*
%TO.P,PSR1,1*%
%TO.N,SPICS1*%
X145540000Y-91372500D03*
%TO.P,PSR1,2*%
%TO.N,VDD_SPI*%
X145540000Y-89547500D03*
%TD*%
D29*
%TO.P,SH1,1,SDA*%
%TO.N,GPIO8_I2C_SDA*%
X157010000Y-108635000D03*
%TO.P,SH1,2,ADDR*%
%TO.N,GND*%
X157510000Y-108635000D03*
%TO.P,SH1,3,ALERT*%
%TO.N,unconnected-(SH1-Pad3)*%
X158010000Y-108635000D03*
%TO.P,SH1,4,SCL*%
%TO.N,GPIO9_I2C_SCL*%
X158510000Y-108635000D03*
%TO.P,SH1,5,VDD*%
%TO.N,3V3*%
X158510000Y-106285000D03*
%TO.P,SH1,6,~{RESET}*%
%TO.N,unconnected-(SH1-Pad6)*%
X158010000Y-106285000D03*
%TO.P,SH1,7,R*%
%TO.N,unconnected-(SH1-Pad7)*%
X157510000Y-106285000D03*
%TO.P,SH1,8,VSS*%
%TO.N,GND*%
X157010000Y-106285000D03*
D30*
%TO.P,SH1,9,VSS*%
X157760000Y-107460000D03*
%TD*%
D31*
%TO.P,J20,1,GND*%
%TO.N,GND*%
X117020000Y-103460000D03*
%TO.P,J20,2,GND*%
X119970000Y-103460000D03*
D32*
%TO.P,J20,3,SIG*%
%TO.N,unconnected-(J20-Pad3)*%
X118495000Y-105010000D03*
%TD*%
D16*
%TO.P,EC26,1*%
%TO.N,3V3*%
X144700000Y-103770000D03*
%TO.P,EC26,2*%
%TO.N,GND*%
X146600000Y-103770000D03*
%TD*%
D33*
%TO.P,AC1,1*%
%TO.N,3V3*%
X154357500Y-87190000D03*
%TO.P,AC1,2*%
%TO.N,GND*%
X152282500Y-87190000D03*
%TD*%
D14*
%TO.P,EC40,1*%
%TO.N,GND*%
X136280000Y-105520000D03*
%TO.P,EC40,2*%
%TO.N,CHIP_EN*%
X136280000Y-103620000D03*
%TD*%
D34*
%TO.P,TP2,1,1*%
%TO.N,3V3*%
X150660000Y-87530000D03*
%TD*%
D14*
%TO.P,EC17,1*%
%TO.N,3V3*%
X144870000Y-107470000D03*
%TO.P,EC17,2*%
%TO.N,GND*%
X144870000Y-105570000D03*
%TD*%
D35*
%TO.P,AL1,1,1*%
%TO.N,3V3*%
X157020000Y-87400000D03*
%TO.P,AL1,2,2*%
%TO.N,Net-(AL1-Pad2)*%
X159820000Y-87400000D03*
%TD*%
D36*
%TO.P,EPS1,1,~{CE}*%
%TO.N,SPICS1*%
X147715000Y-89825000D03*
%TO.P,EPS1,2,SIO1*%
%TO.N,SPIQ*%
X147715000Y-91095000D03*
%TO.P,EPS1,3,SIO2*%
%TO.N,SPIWP*%
X147715000Y-92365000D03*
%TO.P,EPS1,4,VSS*%
%TO.N,GND*%
X147715000Y-93635000D03*
%TO.P,EPS1,5,SiO0*%
%TO.N,SPID*%
X152665000Y-93635000D03*
%TO.P,EPS1,6,SCLK*%
%TO.N,SPICLK*%
X152665000Y-92365000D03*
%TO.P,EPS1,7,SIO3*%
%TO.N,SPIHD*%
X152665000Y-91095000D03*
%TO.P,EPS1,8,VCC*%
%TO.N,VDD_SPI*%
X152665000Y-89825000D03*
%TD*%
D26*
%TO.P,ICR1,1*%
%TO.N,3V3*%
X133087500Y-86890000D03*
%TO.P,ICR1,2*%
%TO.N,GPIO9_I2C_SCL*%
X134912500Y-86890000D03*
%TD*%
D37*
%TO.P,ANT1,1,1*%
%TO.N,Net-(ANT1-Pad1)*%
X119040000Y-107880000D03*
%TO.P,ANT1,2,2*%
%TO.N,unconnected-(ANT1-Pad2)*%
X128540000Y-107880000D03*
%TD*%
D16*
%TO.P,EC16,1*%
%TO.N,3V3*%
X138800000Y-93570000D03*
%TO.P,EC16,2*%
%TO.N,GND*%
X140700000Y-93570000D03*
%TD*%
%TO.P,IMUC1,1*%
%TO.N,GND*%
X131510000Y-89870000D03*
%TO.P,IMUC1,2*%
%TO.N,3V3*%
X133410000Y-89870000D03*
%TD*%
D38*
%TO.P,Q5,1,G*%
%TO.N,Net-(Q5-Pad1)*%
X120040000Y-88397500D03*
%TO.P,Q5,2,S*%
%TO.N,3V3*%
X121940000Y-88397500D03*
%TO.P,Q5,3,D*%
%TO.N,3V3_PLUG*%
X120990000Y-86522500D03*
%TD*%
D14*
%TO.P,EC51,1*%
%TO.N,Net-(EC51-Pad1)*%
X143720000Y-91650000D03*
%TO.P,EC51,2*%
%TO.N,GND*%
X143720000Y-89750000D03*
%TD*%
D16*
%TO.P,EC15,1*%
%TO.N,GND*%
X131750000Y-101070000D03*
%TO.P,EC15,2*%
%TO.N,3V3*%
X133650000Y-101070000D03*
%TD*%
D34*
%TO.P,TP3,1,1*%
%TO.N,GND*%
X124450000Y-102705000D03*
%TD*%
D26*
%TO.P,IDR1,1*%
%TO.N,GPIO8_I2C_SDA*%
X137367500Y-86900000D03*
%TO.P,IDR1,2*%
%TO.N,3V3*%
X139192500Y-86900000D03*
%TD*%
D39*
%TO.P,QR1,1*%
%TO.N,GPIO2_PLUG_PWR_3V3*%
X118350000Y-88780000D03*
%TO.P,QR1,2*%
%TO.N,Net-(Q5-Pad1)*%
X118350000Y-86780000D03*
%TD*%
D40*
%TO.P,L2,1,1*%
%TO.N,3V3*%
X134480000Y-105672500D03*
%TO.P,L2,2,2*%
%TO.N,Net-(EC20-Pad1)*%
X134480000Y-103547500D03*
%TD*%
D33*
%TO.P,AC2,1*%
%TO.N,5V0*%
X158987500Y-95470000D03*
%TO.P,AC2,2*%
%TO.N,GND*%
X156912500Y-95470000D03*
%TD*%
D41*
%TO.P,LED1,1,GA*%
%TO.N,IO35_LED_G*%
X145230000Y-87700000D03*
%TO.P,LED1,2,BA*%
%TO.N,IO34_LED_B*%
X148410000Y-87710000D03*
%TO.P,LED1,3,RA*%
%TO.N,Net-(LED1-Pad3)*%
X145230000Y-86560000D03*
%TO.P,LED1,4,K*%
%TO.N,3V3*%
X148420000Y-86590000D03*
%TD*%
D19*
%TO.P,EC19,1*%
%TO.N,3V3*%
X134380000Y-107260000D03*
%TO.P,EC19,2*%
%TO.N,GND*%
X132480000Y-107260000D03*
%TD*%
D42*
%TO.P,,1*%
%TO.N,N/C*%
X142930000Y-108670000D03*
%TD*%
D16*
%TO.P,EC14,1*%
%TO.N,GND*%
X131880000Y-99220000D03*
%TO.P,EC14,2*%
%TO.N,3V3*%
X133780000Y-99220000D03*
%TD*%
D43*
%TO.P,REF\u002A\u002A,1*%
%TO.N,N/C*%
X155530000Y-98650000D03*
%TD*%
D44*
%TO.P,AU1,1,FB*%
%TO.N,Net-(AR1-Pad2)*%
X158440000Y-90290000D03*
%TO.P,AU1,2,GND*%
%TO.N,GND*%
X157500000Y-90295000D03*
D45*
X157475000Y-92010000D03*
D44*
%TO.P,AU1,3,SW*%
%TO.N,Net-(AL1-Pad2)*%
X156515000Y-90295000D03*
D46*
%TO.P,AU1,4,VIN_SW*%
%TO.N,5V0*%
X156545000Y-93685000D03*
%TO.P,AU1,5,VIN_A*%
X157460000Y-93680000D03*
%TO.P,AU1,6,EN*%
X158420000Y-93680000D03*
%TD*%
D47*
%TO.P,EXP_R3,1*%
%TO.N,GPIO06_EXT_PLUG2*%
X128342500Y-97680000D03*
%TO.P,EXP_R3,2*%
%TO.N,Net-(EXP_R3-Pad2)*%
X126517500Y-97680000D03*
%TD*%
D14*
%TO.P,EC50,1*%
%TO.N,Net-(EC50-Pad1)*%
X138620000Y-91750000D03*
%TO.P,EC50,2*%
%TO.N,GND*%
X138620000Y-89850000D03*
%TD*%
D48*
%TO.P,ESP_FLASH1,1,~{CS}*%
%TO.N,SPICS0*%
X146395000Y-95755000D03*
%TO.P,ESP_FLASH1,2,DO(IO1)*%
%TO.N,SPIQ*%
X146395000Y-97025000D03*
%TO.P,ESP_FLASH1,3,IO2*%
%TO.N,SPIWP*%
X146395000Y-98295000D03*
%TO.P,ESP_FLASH1,4,GND*%
%TO.N,GND*%
X146395000Y-99565000D03*
%TO.P,ESP_FLASH1,5,DI(IO0)*%
%TO.N,SPID*%
X154185000Y-99565000D03*
%TO.P,ESP_FLASH1,6,CLK*%
%TO.N,SPICLK*%
X154185000Y-98295000D03*
%TO.P,ESP_FLASH1,7,IO3*%
%TO.N,SPIHD*%
X154185000Y-97025000D03*
%TO.P,ESP_FLASH1,8,VCC*%
%TO.N,VDD_SPI*%
X154185000Y-95755000D03*
%TD*%
D47*
%TO.P,EXP_R4,1*%
%TO.N,GPIO06_EXT_PLUG2*%
X128232500Y-100180000D03*
%TO.P,EXP_R4,2*%
%TO.N,Net-(EXP_R4-Pad2)*%
X126407500Y-100180000D03*
%TD*%
D14*
%TO.P,EC37,1*%
%TO.N,Net-(ANT1-Pad1)*%
X122320000Y-103910000D03*
%TO.P,EC37,2*%
%TO.N,GND*%
X122320000Y-102010000D03*
%TD*%
D49*
%TO.P,EL4,1,1*%
%TO.N,Net-(ANT1-Pad1)*%
X122087500Y-105430000D03*
%TO.P,EL4,2,2*%
%TO.N,Net-(EC38-Pad1)*%
X124212500Y-105430000D03*
%TD*%
D15*
%TO.P,AR2,1*%
%TO.N,Net-(AR1-Pad2)*%
X160750000Y-93460000D03*
%TO.P,AR2,2*%
%TO.N,GND*%
X160750000Y-95460000D03*
%TD*%
D50*
%TO.P,,1*%
%TO.N,N/C*%
X130430000Y-105980000D03*
%TD*%
D47*
%TO.P,EXP_R2,1*%
%TO.N,GPIO06_EXT_PLUG2*%
X128402500Y-95870000D03*
%TO.P,EXP_R2,2*%
%TO.N,Net-(EXP_R2-Pad2)*%
X126577500Y-95870000D03*
%TD*%
D51*
%TO.P,REF\u002A\u002A,1*%
%TO.N,N/C*%
X118765000Y-105305000D03*
%TO.P,REF\u002A\u002A,2*%
X119390000Y-105310000D03*
%TD*%
D47*
%TO.P,EXP_R1,1*%
%TO.N,GPIO06_EXT_PLUG2*%
X128422500Y-94050000D03*
%TO.P,EXP_R1,2*%
%TO.N,Net-(EXP_R1-Pad2)*%
X126597500Y-94050000D03*
%TD*%
D52*
%TO.P,,1*%
%TO.N,N/C*%
X142890000Y-88610000D03*
%TD*%
D53*
%TO.P,REF\u002A\u002A,1*%
%TO.N,N/C*%
X130430000Y-95190000D03*
%TD*%
D54*
%TO.P,U2,1*%
%TO.N,N/C*%
X153870000Y-107585000D03*
%TO.P,U2,2*%
X153870000Y-106315000D03*
%TO.P,U2,3*%
X153870000Y-105045000D03*
%TO.P,U2,4,GND*%
%TO.N,GND*%
X153870000Y-103775000D03*
%TO.P,U2,5,SDA*%
%TO.N,GPIO8_I2C_SDA*%
X148930000Y-103775000D03*
%TO.P,U2,6,SCL*%
%TO.N,GPIO9_I2C_SCL*%
X148930000Y-105045000D03*
%TO.P,U2,7*%
%TO.N,N/C*%
X148930000Y-106315000D03*
%TO.P,U2,8,VCC*%
%TO.N,3V3*%
X148930000Y-107585000D03*
%TD*%
D55*
%TO.P,IMU1,1,SDO/SA0*%
%TO.N,unconnected-(IMU1-Pad1)*%
X136760000Y-89667500D03*
D56*
%TO.P,IMU1,2,SDX*%
%TO.N,unconnected-(IMU1-Pad2)*%
X136260000Y-89667500D03*
%TO.P,IMU1,3,SCX*%
%TO.N,unconnected-(IMU1-Pad3)*%
X135760000Y-89667500D03*
D57*
%TO.P,IMU1,4,INT1*%
%TO.N,unconnected-(IMU1-Pad4)*%
X135260000Y-89667500D03*
D58*
%TO.P,IMU1,5,VDDIO*%
%TO.N,3V3*%
X135097500Y-90330000D03*
D59*
%TO.P,IMU1,6,GND*%
%TO.N,GND*%
X135097500Y-90830000D03*
D60*
%TO.P,IMU1,7,GND*%
X135097500Y-91330000D03*
D61*
%TO.P,IMU1,8,VDD*%
%TO.N,3V3*%
X135260000Y-91992500D03*
D56*
%TO.P,IMU1,9,INT2*%
%TO.N,unconnected-(IMU1-Pad9)*%
X135760000Y-91992500D03*
%TO.P,IMU1,10,NC*%
%TO.N,unconnected-(IMU1-Pad10)*%
X136260000Y-91992500D03*
D62*
%TO.P,IMU1,11,NC*%
%TO.N,unconnected-(IMU1-Pad11)*%
X136760000Y-91992500D03*
D63*
%TO.P,IMU1,12,CS*%
%TO.N,GPIO38_IMU_CS*%
X136922500Y-91330000D03*
D59*
%TO.P,IMU1,13,SCL*%
%TO.N,GPIO9_I2C_SCL*%
X136922500Y-90830000D03*
D64*
%TO.P,IMU1,14,SDA*%
%TO.N,GPIO8_I2C_SDA*%
X136922500Y-90330000D03*
%TD*%
D26*
%TO.P,ER2,1*%
%TO.N,TXD0*%
X126607500Y-91900000D03*
%TO.P,ER2,2*%
%TO.N,Net-(ER2-Pad2)*%
X128432500Y-91900000D03*
%TD*%
D19*
%TO.P,EC24,1*%
%TO.N,VDD_SPI*%
X154350000Y-101980000D03*
%TO.P,EC24,2*%
%TO.N,GND*%
X152450000Y-101980000D03*
%TD*%
D65*
%TO.P,ECY2,1,1*%
%TO.N,Net-(EC51-Pad1)*%
X142060000Y-92000000D03*
%TO.P,ECY2,2,2*%
%TO.N,GND*%
X142060000Y-89800000D03*
%TO.P,ECY2,3,3*%
%TO.N,Net-(EC50-Pad1)*%
X140260000Y-89800000D03*
%TO.P,ECY2,4,4*%
%TO.N,GND*%
X140260000Y-92000000D03*
%TD*%
D34*
%TO.P,TP1,1,1*%
%TO.N,5V0*%
X131290000Y-86530000D03*
%TD*%
D66*
%TO.P,ICSP1,5,Pin_5*%
%TO.N,CHIP_EN*%
X124465000Y-87150500D03*
%TO.P,ICSP1,6,Pin_6*%
%TO.N,ESP_GPIO0_BOOT-DTR*%
X125735000Y-87150500D03*
%TO.P,ICSP1,7,Pin_7*%
%TO.N,unconnected-(ICSP1-Pad7)*%
X127005000Y-87150500D03*
%TO.P,ICSP1,8,Pin_8*%
%TO.N,3V3*%
X128275000Y-87150500D03*
%TD*%
D67*
%TO.N,3V3_PLUG*%
X119440000Y-90210000D03*
%TO.N,VOLTAGE_REF*%
X138040000Y-104620000D03*
D68*
%TO.N,GND*%
X143280000Y-99230000D03*
D67*
X138670000Y-88630000D03*
X136010000Y-90800000D03*
D68*
X117430000Y-99150000D03*
X140460000Y-96390000D03*
X142030000Y-100500000D03*
X121390000Y-95900000D03*
X140810000Y-101870000D03*
D69*
X139360000Y-106450000D03*
D68*
X139430000Y-100410000D03*
X138110000Y-98950000D03*
D67*
X130530000Y-95260000D03*
D68*
X130440000Y-108690000D03*
D67*
X152330000Y-88540000D03*
D69*
X148180000Y-95930000D03*
D67*
X130410000Y-103290000D03*
D69*
X136320000Y-106470000D03*
X132440000Y-101950000D03*
D67*
X147580000Y-103110000D03*
X130460000Y-101500000D03*
D68*
X141860000Y-97750000D03*
D67*
X134490000Y-95260000D03*
X130520000Y-88730000D03*
D69*
X148590000Y-99620000D03*
D68*
X139210000Y-97790000D03*
D67*
X145860000Y-104830000D03*
D68*
X159400000Y-92680000D03*
D69*
X152510000Y-103110000D03*
X142030000Y-88630000D03*
X133270000Y-106360000D03*
D68*
X140630000Y-99060000D03*
D69*
X141500000Y-94330000D03*
D67*
X135360000Y-88600000D03*
D69*
%TO.N,Net-(EC50-Pad1)*%
X141110000Y-90830000D03*
X143940000Y-102670000D03*
%TO.N,Net-(EC51-Pad1)*%
X143410000Y-103280000D03*
X142030000Y-93110000D03*
D70*
%TO.N,3V3*%
X141680000Y-105780000D03*
D67*
X155340000Y-87610000D03*
D68*
X132090000Y-87750000D03*
D69*
X145880000Y-107350000D03*
D70*
X141670000Y-106550000D03*
D67*
X135680000Y-99280000D03*
D69*
X134390000Y-89790000D03*
D67*
X138640000Y-95030000D03*
X149590000Y-87250000D03*
D69*
X146050000Y-107990000D03*
D67*
X161100000Y-88540000D03*
D68*
X131120000Y-87730000D03*
D69*
X142640000Y-103490000D03*
D67*
X155230000Y-86110000D03*
X159250000Y-105910000D03*
D69*
%TO.N,CHIP_EN*%
X129630000Y-96610000D03*
X136220000Y-101710000D03*
%TO.N,ESP_GPIO0_BOOT-DTR*%
X136770000Y-102200000D03*
X135990000Y-96810000D03*
X125490000Y-89450000D03*
X125560000Y-91180000D03*
D67*
%TO.N,GPIO8_I2C_SDA*%
X151870000Y-105810000D03*
X139050000Y-104730000D03*
D69*
X137440000Y-89740000D03*
D67*
X150510000Y-103940000D03*
D69*
X156260000Y-106060000D03*
X156280000Y-107760000D03*
X138010000Y-87690000D03*
%TO.N,SPIHD*%
X150460000Y-95660000D03*
X153940000Y-94990000D03*
%TO.N,SPICLK*%
X145340000Y-96210000D03*
X152950000Y-94940000D03*
%TO.N,SPID*%
X145630000Y-94510000D03*
X151910000Y-94420000D03*
D67*
%TO.N,TXD0*%
X127460000Y-90760000D03*
%TO.N,RXD0*%
X137350000Y-94490000D03*
D69*
X124530000Y-90330000D03*
X126290000Y-90640000D03*
%TO.N,GPIO9_I2C_SCL*%
X119860000Y-98930000D03*
X135800000Y-87620000D03*
D67*
X159150000Y-107810000D03*
X140080000Y-104420000D03*
D69*
X137690000Y-90820000D03*
D67*
X150530000Y-105060000D03*
%TO.N,Net-(ER2-Pad2)*%
X128460000Y-90630000D03*
X137430000Y-93580000D03*
D69*
%TO.N,SPICS1*%
X146800000Y-100730000D03*
X149160000Y-100230000D03*
%TO.N,IO35_LED_G*%
X144060000Y-87670000D03*
D67*
X144890000Y-92370000D03*
%TO.N,5V0*%
X120330000Y-90750000D03*
X130210000Y-86210000D03*
D68*
X159330000Y-98200000D03*
D67*
%TO.N,IO34_LED_B*%
X145650000Y-92800000D03*
D69*
X147170000Y-87810000D03*
D67*
%TO.N,IO36_LED_R*%
X144110000Y-92680000D03*
D69*
X141600000Y-87910000D03*
D67*
%TO.N,GPIO06_EXT_PLUG2*%
X137950000Y-103710000D03*
D69*
X128390000Y-98920000D03*
%TO.N,GPIO38_IMU_CS*%
X137450000Y-92080000D03*
X139750000Y-94540000D03*
%TO.N,GPIO2_PLUG_PWR_3V3*%
X137340000Y-102790000D03*
D67*
X129610000Y-98860000D03*
%TD*%
D71*
%TO.N,RXD0*%
X124720000Y-90520000D02*
X124530000Y-90330000D01*
X126255000Y-90520000D02*
X124720000Y-90520000D01*
D72*
%TO.N,3V3_PLUG*%
X119440000Y-90130000D02*
X119440000Y-90210000D01*
X120150000Y-89790000D02*
X119780000Y-89790000D01*
X120990000Y-86732500D02*
X120990000Y-88950000D01*
X120990000Y-88950000D02*
X120150000Y-89790000D01*
X119780000Y-89790000D02*
X119440000Y-90130000D01*
X119110000Y-96730000D02*
X119110000Y-90540000D01*
X120360000Y-97980000D02*
X119110000Y-96730000D01*
X121260000Y-97940000D02*
X121220000Y-97980000D01*
X121220000Y-97980000D02*
X120360000Y-97980000D01*
X119110000Y-90540000D02*
X119440000Y-90210000D01*
D73*
%TO.N,5V0*%
X120910000Y-91740000D02*
X120320000Y-91150000D01*
X121130000Y-91740000D02*
X120910000Y-91740000D01*
X120320000Y-91150000D02*
X120320000Y-90630000D01*
D72*
%TO.N,CHIP_EN*%
X137330000Y-104580000D02*
X137330000Y-105280000D01*
X137330000Y-104580000D02*
X137330000Y-104800000D01*
X137880000Y-105830000D02*
X138220000Y-105830000D01*
X137330000Y-104340000D02*
X137330000Y-104580000D01*
X137330000Y-105280000D02*
X137880000Y-105830000D01*
D71*
%TO.N,VOLTAGE_REF*%
X138580000Y-104190000D02*
X138150000Y-104620000D01*
X139346478Y-103123522D02*
X138580000Y-103890000D01*
X138580000Y-103890000D02*
X138580000Y-104190000D01*
D72*
%TO.N,CHIP_EN*%
X136280000Y-103620000D02*
X136610000Y-103620000D01*
X136610000Y-103620000D02*
X137330000Y-104340000D01*
%TO.N,GPIO8_I2C_SDA*%
X139050000Y-103970000D02*
X139050000Y-104730000D01*
X139563686Y-103456314D02*
X139205000Y-103815000D01*
X139205000Y-103815000D02*
X139050000Y-103970000D01*
%TO.N,GND*%
X147550000Y-104530000D02*
X146860000Y-105220000D01*
D74*
X133760000Y-108670000D02*
X130980000Y-108670000D01*
X155460000Y-88560000D02*
X155460000Y-90390000D01*
D72*
X129060000Y-101630000D02*
X129120000Y-101690000D01*
D73*
X160470000Y-95740000D02*
X160750000Y-95460000D01*
D72*
X137530000Y-108720000D02*
X137480000Y-108670000D01*
D75*
X140220000Y-92790000D02*
X140220000Y-92040000D01*
D72*
X130460000Y-101500000D02*
X130460000Y-88700000D01*
D74*
X145160000Y-108670000D02*
X145720000Y-108670000D01*
D73*
X159320000Y-92870000D02*
X159320000Y-92580000D01*
D76*
X131660000Y-101170000D02*
X132380000Y-101890000D01*
D72*
X131570000Y-97630000D02*
X131570000Y-97120000D01*
X130440000Y-88730000D02*
X130440000Y-101480000D01*
D75*
X144810000Y-108670000D02*
X142930000Y-108670000D01*
X146590000Y-103850000D02*
X146590000Y-103580000D01*
D74*
X130460000Y-101500000D02*
X130460000Y-101050000D01*
D76*
X118970000Y-101280000D02*
X117520000Y-101280000D01*
D74*
X155460000Y-94370000D02*
X155460000Y-98560000D01*
D75*
X140220000Y-92040000D02*
X140260000Y-92000000D01*
D74*
X130460000Y-97230000D02*
X130460000Y-88700000D01*
X155460000Y-108620000D02*
X155490000Y-108650000D01*
D75*
X159250000Y-107090000D02*
X159350000Y-107090000D01*
D72*
X148190000Y-94110000D02*
X148190000Y-95980000D01*
D74*
X131830000Y-99030000D02*
X131830000Y-100890000D01*
D72*
X152460000Y-103060000D02*
X152510000Y-103110000D01*
D74*
X130440000Y-108690000D02*
X130440000Y-104470000D01*
D72*
X147840000Y-103060000D02*
X152460000Y-103060000D01*
D75*
X157020000Y-105875000D02*
X157020000Y-105310000D01*
X145120000Y-105570000D02*
X145850000Y-104840000D01*
X157020000Y-104370000D02*
X157000000Y-104350000D01*
D74*
X121320000Y-94070000D02*
X121320000Y-92750000D01*
D75*
X152450000Y-103050000D02*
X152510000Y-103110000D01*
D74*
X121320000Y-96880000D02*
X121260000Y-96940000D01*
X117445000Y-99365000D02*
X117445000Y-99805000D01*
D72*
X135760000Y-95640000D02*
X135760000Y-95487500D01*
D76*
X124510000Y-102645000D02*
X124450000Y-102705000D01*
D72*
X133100000Y-88590000D02*
X132500000Y-88590000D01*
D76*
X131660000Y-100910000D02*
X131660000Y-101170000D01*
D75*
X143670000Y-89800000D02*
X143720000Y-89750000D01*
D74*
X130527500Y-93187500D02*
X130440000Y-93100000D01*
D72*
X130570000Y-88590000D02*
X130480000Y-88680000D01*
D74*
X155460000Y-98560000D02*
X155460000Y-103390000D01*
D75*
X142060000Y-89800000D02*
X143670000Y-89800000D01*
X132520000Y-106270000D02*
X132520000Y-105380000D01*
X144870000Y-105570000D02*
X145120000Y-105570000D01*
D74*
X155460000Y-90390000D02*
X155460000Y-91850000D01*
D76*
X157510000Y-92005000D02*
X157490000Y-92025000D01*
D72*
X138150051Y-99480000D02*
X139000051Y-99480000D01*
D74*
X138290000Y-108670000D02*
X137480000Y-108670000D01*
D75*
X159350000Y-107090000D02*
X159970000Y-107710000D01*
D72*
X152450000Y-102050000D02*
X152430000Y-102050000D01*
D75*
X157020000Y-105875000D02*
X157020000Y-104370000D01*
D76*
X156912500Y-95470000D02*
X156912500Y-97082500D01*
D75*
X138620000Y-88830000D02*
X138840000Y-88610000D01*
D74*
X130440000Y-95060000D02*
X130440000Y-93100000D01*
D72*
X146860000Y-105220000D02*
X146860000Y-105450000D01*
D75*
X141530000Y-94410000D02*
X141030000Y-93910000D01*
D76*
X156885000Y-104490000D02*
X155515000Y-104490000D01*
D72*
X130370000Y-97320000D02*
X130460000Y-97230000D01*
D74*
X134700000Y-108640000D02*
X134670000Y-108670000D01*
X134670000Y-108670000D02*
X133760000Y-108670000D01*
X153922500Y-103785000D02*
X155395000Y-103785000D01*
D73*
X160750000Y-95460000D02*
X160750000Y-95320000D01*
D72*
X134170000Y-88630000D02*
X134090000Y-88550000D01*
D75*
X130430000Y-103310000D02*
X130410000Y-103290000D01*
D76*
X157510000Y-90755000D02*
X157510000Y-92005000D01*
D74*
X117020000Y-103460000D02*
X117020000Y-101780000D01*
D72*
X135760000Y-95487500D02*
X134907500Y-95487500D01*
X137990000Y-102210000D02*
X140272101Y-99927899D01*
D76*
X129730000Y-101690000D02*
X124510000Y-101690000D01*
X124510000Y-101690000D02*
X124510000Y-102645000D01*
D74*
X131780000Y-88550000D02*
X130610000Y-88550000D01*
D72*
X131610000Y-97340000D02*
X130570000Y-97340000D01*
X136280000Y-106430000D02*
X136320000Y-106470000D01*
X133010000Y-88590000D02*
X132990000Y-88610000D01*
D75*
X144870000Y-105570000D02*
X142980000Y-105570000D01*
D76*
X156912500Y-97082500D02*
X156990000Y-97160000D01*
D74*
X130610000Y-88550000D02*
X130480000Y-88680000D01*
D76*
X130395000Y-105140000D02*
X130130000Y-105140000D01*
D72*
X130570000Y-97340000D02*
X130460000Y-97230000D01*
D76*
X129730000Y-101690000D02*
X130390000Y-101690000D01*
D74*
X130440000Y-93320000D02*
X130572500Y-93187500D01*
X131980000Y-88550000D02*
X131780000Y-88550000D01*
X155460000Y-108000000D02*
X155460000Y-108620000D01*
X117020000Y-103460000D02*
X119970000Y-103460000D01*
D72*
X142800000Y-88520000D02*
X142890000Y-88610000D01*
D75*
X142960000Y-105590000D02*
X142290000Y-104920000D01*
D74*
X130440000Y-104470000D02*
X130440000Y-103810000D01*
D73*
X160470000Y-104360000D02*
X160470000Y-97140000D01*
D76*
X157200000Y-99025000D02*
X157330000Y-99155000D01*
D72*
X136610000Y-96490000D02*
X136610000Y-95665000D01*
D75*
X133260000Y-106270000D02*
X132520000Y-106270000D01*
D74*
X130572500Y-93187500D02*
X132060000Y-93187500D01*
D75*
X140700000Y-93570000D02*
X140700000Y-93270000D01*
D74*
X155410000Y-88550000D02*
X151650000Y-88550000D01*
D76*
X152302500Y-87390000D02*
X152302500Y-88512500D01*
D74*
X155460000Y-93860000D02*
X155460000Y-94370000D01*
D72*
X147715000Y-93635000D02*
X148190000Y-94110000D01*
D74*
X117445000Y-99805000D02*
X117445000Y-96085000D01*
D72*
X134907500Y-95487500D02*
X134630000Y-95210000D01*
X130400000Y-95260000D02*
X130400000Y-97170000D01*
D76*
X156840000Y-104390000D02*
X160300000Y-104390000D01*
D74*
X138330000Y-108630000D02*
X138290000Y-108670000D01*
D75*
X138620000Y-89850000D02*
X138620000Y-88830000D01*
X139830000Y-106450000D02*
X139360000Y-106450000D01*
D72*
X135100000Y-91300000D02*
X135100000Y-90800000D01*
D75*
X157510000Y-107297500D02*
X157510000Y-108622500D01*
D72*
X142280000Y-88560000D02*
X152310000Y-88560000D01*
X146610000Y-99660000D02*
X148640000Y-99660000D01*
D75*
X153970000Y-103765000D02*
X153165000Y-103765000D01*
X132520000Y-105380000D02*
X132490000Y-105350000D01*
D74*
X135400000Y-88550000D02*
X134090000Y-88550000D01*
D75*
X130410000Y-103290000D02*
X129810000Y-103290000D01*
D76*
X119380000Y-101690000D02*
X118970000Y-101280000D01*
D74*
X117445000Y-99805000D02*
X117445000Y-101355000D01*
D72*
X146395000Y-99565000D02*
X146420000Y-99540000D01*
D76*
X157475000Y-92010000D02*
X155620000Y-92010000D01*
X155500000Y-103680000D02*
X155395000Y-103785000D01*
D72*
X138820000Y-88520000D02*
X142800000Y-88520000D01*
D73*
X160750000Y-95320000D02*
X159320000Y-93890000D01*
D72*
X151040000Y-102010000D02*
X152420000Y-102010000D01*
D74*
X117445000Y-99365000D02*
X117445000Y-100405000D01*
X130440000Y-95060000D02*
X130440000Y-88870000D01*
D72*
X132580000Y-88510000D02*
X132500000Y-88590000D01*
D74*
X155455000Y-108700000D02*
X154805000Y-108700000D01*
D72*
X136280000Y-105520000D02*
X136280000Y-106430000D01*
D76*
X157200000Y-96830000D02*
X157200000Y-99025000D01*
X117520000Y-101280000D02*
X117445000Y-101355000D01*
D74*
X130440000Y-93100000D02*
X130440000Y-88970000D01*
D72*
X137595107Y-97463585D02*
X137583585Y-97463585D01*
D75*
X142980000Y-105570000D02*
X142960000Y-105590000D01*
X140700000Y-105580000D02*
X139830000Y-106450000D01*
D74*
X135580000Y-108670000D02*
X145160000Y-108670000D01*
X131620000Y-100900000D02*
X131610000Y-100910000D01*
D75*
X130430000Y-105980000D02*
X130430000Y-103310000D01*
D76*
X152302500Y-88512500D02*
X152330000Y-88540000D01*
D75*
X132520000Y-106270000D02*
X132520000Y-107220000D01*
D74*
X155015000Y-103785000D02*
X153922500Y-103785000D01*
D75*
X159970000Y-107710000D02*
X160450000Y-107710000D01*
D72*
X131850000Y-93205000D02*
X131850000Y-88695000D01*
D74*
X136680000Y-88550000D02*
X135400000Y-88550000D01*
D75*
X152450000Y-101980000D02*
X152450000Y-103050000D01*
D74*
X117445000Y-96085000D02*
X117430000Y-96070000D01*
D75*
X141360000Y-104920000D02*
X140700000Y-105580000D01*
D72*
X132500000Y-88590000D02*
X130570000Y-88590000D01*
D73*
X159320000Y-92580000D02*
X158750000Y-92010000D01*
D74*
X117020000Y-101780000D02*
X117445000Y-101355000D01*
D75*
X141030000Y-93910000D02*
X141030000Y-93190000D01*
D72*
X147550000Y-103115000D02*
X147550000Y-104530000D01*
D73*
X159320000Y-93890000D02*
X159320000Y-92870000D01*
D74*
X130980000Y-108670000D02*
X130460000Y-108670000D01*
D72*
X137220000Y-88520000D02*
X138820000Y-88520000D01*
D74*
X130460000Y-108670000D02*
X130440000Y-108690000D01*
X130460000Y-101050000D02*
X130460000Y-100870000D01*
X155395000Y-103785000D02*
X155400000Y-103790000D01*
D75*
X157020000Y-105875000D02*
X157020000Y-106300000D01*
D74*
X132060000Y-93187500D02*
X130527500Y-93187500D01*
D75*
X140700000Y-93270000D02*
X140220000Y-92790000D01*
D74*
X121320000Y-94070000D02*
X121320000Y-96880000D01*
D72*
X146590000Y-104100000D02*
X145860000Y-104830000D01*
D76*
X124510000Y-101690000D02*
X119380000Y-101690000D01*
D75*
X142060000Y-89800000D02*
X142060000Y-88660000D01*
X157020000Y-105310000D02*
X157020000Y-106720000D01*
D72*
X145860000Y-104830000D02*
X145850000Y-104840000D01*
X133100000Y-88590000D02*
X133010000Y-88590000D01*
D76*
X129120000Y-101690000D02*
X129730000Y-101690000D01*
D72*
X137150000Y-88560000D02*
X142280000Y-88560000D01*
X135277500Y-90800000D02*
X136010000Y-90800000D01*
D74*
X155460000Y-103390000D02*
X155460000Y-107040000D01*
X155460000Y-107040000D02*
X155460000Y-108000000D01*
D75*
X132520000Y-107220000D02*
X132480000Y-107260000D01*
X157795000Y-107090000D02*
X159250000Y-107090000D01*
D72*
X139000051Y-99770000D02*
X139000051Y-99480000D01*
D75*
X142060000Y-88660000D02*
X142030000Y-88630000D01*
D74*
X155460000Y-91850000D02*
X155460000Y-93860000D01*
D72*
X135430000Y-88520000D02*
X135400000Y-88550000D01*
X137440000Y-97300000D02*
X139444944Y-99304944D01*
D76*
X128775000Y-105270000D02*
X130385000Y-105270000D01*
D74*
X155490000Y-108650000D02*
X155440000Y-108600000D01*
X121320000Y-92750000D02*
X121290000Y-92720000D01*
D72*
X137583585Y-97463585D02*
X136610000Y-96490000D01*
D75*
X153165000Y-103765000D02*
X152510000Y-103110000D01*
X157010000Y-106207500D02*
X157010000Y-107132500D01*
D74*
X137870000Y-88550000D02*
X136680000Y-88550000D01*
X134090000Y-88550000D02*
X131980000Y-88550000D01*
X130460000Y-100870000D02*
X130460000Y-97230000D01*
D76*
X157220000Y-99160000D02*
X155500000Y-99160000D01*
D73*
X158750000Y-92010000D02*
X157475000Y-92010000D01*
D72*
X152420000Y-102010000D02*
X152450000Y-101980000D01*
D74*
X135580000Y-108670000D02*
X134670000Y-108670000D01*
D75*
X155470000Y-107050000D02*
X155460000Y-107040000D01*
D72*
X130460000Y-88700000D02*
X130480000Y-88680000D01*
X135920000Y-95600000D02*
X136440000Y-95600000D01*
X130400000Y-97170000D02*
X130460000Y-97230000D01*
D75*
X142290000Y-104920000D02*
X141360000Y-104920000D01*
D72*
X152310000Y-88560000D02*
X152330000Y-88540000D01*
D76*
X160330000Y-103680000D02*
X160340000Y-103690000D01*
D72*
X130440000Y-101480000D02*
X130460000Y-101500000D01*
X146590000Y-103640000D02*
X146590000Y-104100000D01*
D75*
X140700000Y-105580000D02*
X139810000Y-106470000D01*
D72*
X136700000Y-88530000D02*
X136680000Y-88550000D01*
D73*
X160470000Y-97140000D02*
X160470000Y-95740000D01*
D72*
X132480000Y-105360000D02*
X132490000Y-105350000D01*
D71*
%TO.N,GPIO10_EXT_PLUG1*%
X138836478Y-102513522D02*
X138200000Y-103150000D01*
X138726478Y-102607786D02*
X138726478Y-102623522D01*
%TO.N,unconnected-(ESP32S3-Pad38)*%
X142173624Y-96332214D02*
X142177786Y-96332214D01*
X142177786Y-96332214D02*
X143420000Y-95090000D01*
D75*
%TO.N,Net-(EC50-Pad1)*%
X140260000Y-90030000D02*
X140260000Y-89800000D01*
D72*
X138040000Y-91440000D02*
X138050000Y-91430000D01*
D71*
X143910000Y-102640000D02*
X143910000Y-102670000D01*
X139425000Y-90865000D02*
X141105000Y-90865000D01*
X139425000Y-90865000D02*
X140260000Y-90030000D01*
X143049258Y-101779258D02*
X143910000Y-102640000D01*
D75*
X138620000Y-91750000D02*
X138620000Y-91670000D01*
D71*
X138620000Y-91670000D02*
X139425000Y-90865000D01*
D72*
X143022152Y-101759258D02*
X143029258Y-101759258D01*
D73*
%TO.N,Net-(ANT1-Pad1)*%
X120752107Y-105330000D02*
X121300000Y-105330000D01*
X122087500Y-104142500D02*
X122320000Y-103910000D01*
X121300000Y-105330000D02*
X119500000Y-105330000D01*
X119862893Y-105847107D02*
X120087107Y-105622893D01*
X121300000Y-105330000D02*
X121987500Y-105330000D01*
X121987500Y-105330000D02*
X122087500Y-105430000D01*
X122087500Y-105430000D02*
X122087500Y-104142500D01*
X119570000Y-107860000D02*
X119570000Y-106554214D01*
X119500000Y-105330000D02*
X119490000Y-105320000D01*
X120794214Y-105330010D02*
G75*
G03*
X120087107Y-105622893I-14J-999990D01*
G01*
X119862886Y-105847100D02*
G75*
G03*
X119570000Y-106554214I707114J-707100D01*
G01*
D71*
%TO.N,Net-(EC51-Pad1)*%
X143160000Y-102460000D02*
X143410000Y-102710000D01*
X142749258Y-102049258D02*
X143160000Y-102460000D01*
D75*
X142410000Y-91650000D02*
X142060000Y-92000000D01*
X143720000Y-91650000D02*
X142410000Y-91650000D01*
D71*
X142060000Y-92000000D02*
X142060000Y-93170000D01*
X143410000Y-102710000D02*
X143410000Y-103280000D01*
D72*
%TO.N,Net-(EC60-Pad1)*%
X137029422Y-98029270D02*
X136450152Y-97450000D01*
X133530000Y-91830000D02*
X133430000Y-91730000D01*
X133530000Y-95190000D02*
X133530000Y-91830000D01*
X134320000Y-95980000D02*
X133530000Y-95190000D01*
X133840000Y-91740000D02*
X133750000Y-91650000D01*
X135720000Y-93300000D02*
X135920000Y-93300000D01*
X136450152Y-97450000D02*
X135790000Y-97450000D01*
X133640000Y-91980000D02*
X135320000Y-93660000D01*
X135790000Y-97450000D02*
X134320000Y-95980000D01*
X133840000Y-95500000D02*
X134320000Y-95980000D01*
D74*
%TO.N,3V3*%
X133770000Y-100910000D02*
X133560000Y-100910000D01*
D76*
X130480000Y-87750000D02*
X132090000Y-87750000D01*
D77*
X155470000Y-87480000D02*
X155340000Y-87610000D01*
D72*
X136463737Y-98594955D02*
X136454955Y-98594955D01*
D76*
X149060000Y-86590000D02*
X149740000Y-87270000D01*
D72*
X127480000Y-86030000D02*
X127820000Y-86030000D01*
D75*
X138620000Y-95010000D02*
X138640000Y-95030000D01*
D72*
X136180894Y-98870894D02*
X135640000Y-98330000D01*
X135640000Y-98330000D02*
X135480000Y-98490000D01*
X127480000Y-86030000D02*
X129000000Y-86030000D01*
D77*
X141670000Y-106550000D02*
X141670000Y-107640000D01*
D71*
X139010000Y-85900000D02*
X139192500Y-86082500D01*
D78*
X142830000Y-103330000D02*
X142670000Y-103490000D01*
D77*
X134380000Y-105562500D02*
X134470000Y-105472500D01*
D71*
X139009321Y-96039321D02*
X138700000Y-95730000D01*
D77*
X142960000Y-107490000D02*
X142950000Y-107500000D01*
X142980000Y-107470000D02*
X142960000Y-107490000D01*
X155890000Y-87480000D02*
X155470000Y-87480000D01*
D78*
X161100000Y-89270000D02*
X161100000Y-88540000D01*
D77*
X133870000Y-99280000D02*
X133800000Y-99210000D01*
D72*
X144660000Y-103610000D02*
X144690000Y-103580000D01*
D76*
X129800500Y-87150500D02*
X129880500Y-87150500D01*
D77*
X134380000Y-107260000D02*
X134380000Y-105562500D01*
D72*
X121940000Y-87020000D02*
X122930000Y-86030000D01*
D71*
X139192500Y-86082500D02*
X139192500Y-86850000D01*
D77*
X141670000Y-106445000D02*
X141670000Y-105875000D01*
X145540000Y-107470000D02*
X145900000Y-107110000D01*
D72*
X139009321Y-96049371D02*
X139009321Y-96039321D01*
X134370000Y-90310000D02*
X134370000Y-91790000D01*
X136110000Y-98250000D02*
X135720000Y-98250000D01*
D71*
X138640000Y-95670000D02*
X138640000Y-95030000D01*
D77*
X155890000Y-87480000D02*
X154647500Y-87480000D01*
D76*
X138620000Y-93750000D02*
X138620000Y-95010000D01*
D79*
X154357500Y-86452500D02*
X154700000Y-86110000D01*
D78*
X160680000Y-89690000D02*
X161100000Y-89270000D01*
D72*
X134370000Y-89810000D02*
X134370000Y-90310000D01*
D77*
X157020000Y-87480000D02*
X155890000Y-87480000D01*
D75*
X138800000Y-93570000D02*
X138620000Y-93750000D01*
D77*
X135680000Y-99280000D02*
X135600000Y-99280000D01*
D76*
X150660000Y-87350000D02*
X150560000Y-87250000D01*
D71*
X133087500Y-86872500D02*
X134060000Y-85900000D01*
X133087500Y-86890000D02*
X133087500Y-87182500D01*
D77*
X133740000Y-99195000D02*
X133740000Y-100905000D01*
D72*
X129469500Y-86499500D02*
X129469500Y-87150500D01*
X122930000Y-86030000D02*
X127480000Y-86030000D01*
D79*
X154357500Y-86452500D02*
X154357500Y-87190000D01*
D76*
X148420000Y-86590000D02*
X149060000Y-86590000D01*
D77*
X135600000Y-99280000D02*
X133870000Y-99280000D01*
D72*
X134400000Y-89810000D02*
X133320000Y-89810000D01*
X134600000Y-92020000D02*
X135232500Y-92020000D01*
D77*
X141670000Y-107640000D02*
X141420000Y-107890000D01*
D78*
X142511101Y-102381101D02*
X142800000Y-102670000D01*
D72*
X135480000Y-99160000D02*
X135600000Y-99280000D01*
D77*
X145900000Y-107110000D02*
X146860000Y-107110000D01*
D71*
X133087500Y-87182500D02*
X132520000Y-87750000D01*
D75*
X149015000Y-107560000D02*
X149030000Y-107575000D01*
X159340000Y-105900000D02*
X160300000Y-105900000D01*
D77*
X145880000Y-107820000D02*
X146050000Y-107990000D01*
X145880000Y-107350000D02*
X145880000Y-107820000D01*
D72*
X129000000Y-86030000D02*
X129469500Y-86499500D01*
X135720000Y-98250000D02*
X135640000Y-98330000D01*
X134370000Y-91790000D02*
X134600000Y-92020000D01*
D77*
X136180000Y-107890000D02*
X135550000Y-107260000D01*
D71*
X121860000Y-89826250D02*
X121860000Y-88753750D01*
D77*
X154647500Y-87480000D02*
X154357500Y-87190000D01*
X144870000Y-107470000D02*
X142980000Y-107470000D01*
D72*
X136454955Y-98594955D02*
X136110000Y-98250000D01*
D77*
X133800000Y-100920000D02*
X133650000Y-101070000D01*
D78*
X142830000Y-102700000D02*
X142830000Y-103330000D01*
D76*
X129469500Y-87150500D02*
X129800500Y-87150500D01*
D77*
X135550000Y-107260000D02*
X134380000Y-107260000D01*
D75*
X158760000Y-106430000D02*
X158930000Y-106430000D01*
X158520000Y-106430000D02*
X158760000Y-106430000D01*
D72*
X128275000Y-86485000D02*
X128275000Y-87150500D01*
D75*
X158930000Y-106430000D02*
X159250000Y-106110000D01*
D77*
X144870000Y-107470000D02*
X145540000Y-107470000D01*
D72*
X143200000Y-104050000D02*
X142640000Y-103490000D01*
D75*
X159250000Y-106110000D02*
X159250000Y-105910000D01*
D77*
X141420000Y-107890000D02*
X136180000Y-107890000D01*
D73*
X135480000Y-98490000D02*
X135480000Y-99160000D01*
D76*
X128275000Y-87150500D02*
X129469500Y-87150500D01*
D77*
X142640000Y-107480000D02*
X141770000Y-107480000D01*
D78*
X142800000Y-102670000D02*
X142830000Y-102700000D01*
D71*
X138700000Y-95730000D02*
X138640000Y-95670000D01*
X133087500Y-86890000D02*
X133087500Y-86872500D01*
D72*
X134370000Y-90310000D02*
X135077500Y-90310000D01*
D79*
X154700000Y-86110000D02*
X155230000Y-86110000D01*
D72*
X136180894Y-98877798D02*
X136180894Y-98870894D01*
D75*
X146870000Y-107560000D02*
X149015000Y-107560000D01*
D71*
X132520000Y-87750000D02*
X132090000Y-87750000D01*
D76*
X129880500Y-87150500D02*
X130480000Y-87750000D01*
D71*
X134060000Y-85900000D02*
X139010000Y-85900000D01*
D76*
X154377500Y-87390000D02*
X154377500Y-87232500D01*
D72*
X144580000Y-104050000D02*
X143200000Y-104050000D01*
D76*
X150560000Y-87250000D02*
X149590000Y-87250000D01*
D75*
X146870000Y-107230000D02*
X146850000Y-107250000D01*
D72*
X121940000Y-88397500D02*
X121940000Y-87020000D01*
X142456466Y-102326466D02*
X142456466Y-102324944D01*
D75*
X158760000Y-106430000D02*
X158935000Y-106430000D01*
D72*
%TO.N,Net-(EC20-Pad1)*%
X132592500Y-103347500D02*
X132490000Y-103450000D01*
D74*
X135550000Y-102470000D02*
X135550000Y-102060000D01*
D72*
X135550000Y-101510000D02*
X135550000Y-101700000D01*
X136010000Y-100800000D02*
X136010000Y-101050000D01*
X136010000Y-101050000D02*
X135865000Y-101195000D01*
D74*
X135550000Y-102060000D02*
X135550000Y-101510000D01*
D72*
X136463737Y-100345045D02*
X136463737Y-100346263D01*
D74*
X134470000Y-103347500D02*
X134672500Y-103347500D01*
D72*
X136463737Y-100346263D02*
X136010000Y-100800000D01*
D74*
X135550000Y-102060000D02*
X135550000Y-101700000D01*
D75*
X134470000Y-103347500D02*
X132592500Y-103347500D01*
D72*
X136742113Y-100627887D02*
X136240000Y-101130000D01*
X136240000Y-101130000D02*
X135930000Y-101130000D01*
D74*
X134672500Y-103347500D02*
X135550000Y-102470000D01*
D72*
X136746579Y-100627887D02*
X136742113Y-100627887D01*
X135865000Y-101195000D02*
X135550000Y-101510000D01*
X135930000Y-101130000D02*
X135865000Y-101195000D01*
%TO.N,VDD_SPI*%
X145852500Y-89697500D02*
X145300000Y-89697500D01*
X154290000Y-101990000D02*
X154350000Y-102050000D01*
X154990000Y-95800000D02*
X154990000Y-90750000D01*
X154990000Y-96550000D02*
X154990000Y-95800000D01*
X146390000Y-89160000D02*
X145852500Y-89697500D01*
X145770000Y-100100000D02*
X148210000Y-100100000D01*
X153950000Y-100760000D02*
X149410000Y-100760000D01*
X153950000Y-100760000D02*
X154120000Y-100760000D01*
X148210000Y-100100000D02*
X149140000Y-101030000D01*
X154185000Y-95755000D02*
X154945000Y-95755000D01*
X154120000Y-100760000D02*
X154290000Y-100930000D01*
X154290000Y-100930000D02*
X154290000Y-101990000D01*
X144719208Y-99049208D02*
X145770000Y-100100000D01*
X149835000Y-89825000D02*
X149170000Y-89160000D01*
X154290000Y-100800000D02*
X154290000Y-100930000D01*
X146780000Y-89160000D02*
X146390000Y-89160000D01*
X149170000Y-89160000D02*
X146780000Y-89160000D01*
X149410000Y-100760000D02*
X149140000Y-101030000D01*
X154990000Y-99360000D02*
X154990000Y-96550000D01*
X154065000Y-89825000D02*
X152665000Y-89825000D01*
X154990000Y-90750000D02*
X154065000Y-89825000D01*
X154945000Y-95755000D02*
X154990000Y-95800000D01*
X154410000Y-100680000D02*
X154290000Y-100800000D01*
X154330000Y-100760000D02*
X154410000Y-100680000D01*
X154990000Y-100100000D02*
X154410000Y-100680000D01*
X154990000Y-99360000D02*
X154990000Y-100100000D01*
X153950000Y-100760000D02*
X154330000Y-100760000D01*
X149140000Y-101030000D02*
X149140000Y-102010000D01*
X152665000Y-89825000D02*
X149835000Y-89825000D01*
X144719208Y-98877798D02*
X144719208Y-99049208D01*
D73*
%TO.N,Net-(EC38-Pad1)*%
X132340000Y-102460000D02*
X128594214Y-102460000D01*
D72*
X124242500Y-105320000D02*
X124212500Y-105350000D01*
D73*
X126240000Y-105320000D02*
X124242500Y-105320000D01*
X134552893Y-102167107D02*
X134813554Y-101906446D01*
X134960000Y-101552893D02*
X134960000Y-101487107D01*
X126240000Y-104814214D02*
X126240000Y-105320000D01*
X134550000Y-102167107D02*
X134552893Y-102167107D01*
D72*
X136177798Y-100062202D02*
X135490000Y-100750000D01*
D73*
X129394214Y-102460000D02*
X133835786Y-102460000D01*
D72*
X136180894Y-100062202D02*
X136177798Y-100062202D01*
D73*
X127887107Y-102752893D02*
X126532893Y-104107107D01*
X135106446Y-101133554D02*
X135490000Y-100750000D01*
X134959995Y-101552893D02*
G75*
G02*
X134813554Y-101906446I-499995J-7D01*
G01*
X128594214Y-102460010D02*
G75*
G03*
X127887107Y-102752893I-14J-999990D01*
G01*
X126240010Y-104814214D02*
G75*
G02*
X126532893Y-104107107I999990J14D01*
G01*
X134550003Y-102167110D02*
G75*
G02*
X133842893Y-102460000I-707103J707110D01*
G01*
X134960005Y-101487107D02*
G75*
G02*
X135106446Y-101133554I499995J7D01*
G01*
D75*
%TO.N,CHIP_EN*%
X136220000Y-101620000D02*
X136220000Y-103900000D01*
D72*
X136280000Y-103620000D02*
X136880000Y-103620000D01*
X136400000Y-101540000D02*
X136260000Y-101540000D01*
D71*
X129560000Y-96390000D02*
X129760000Y-96590000D01*
D72*
X137029422Y-100910730D02*
X137029270Y-100910730D01*
X137029270Y-100910730D02*
X136400000Y-101540000D01*
D71*
X127810000Y-90010000D02*
X125120000Y-90010000D01*
X127810000Y-90010000D02*
X128930000Y-90010000D01*
D75*
X138220000Y-105830000D02*
X138140000Y-105830000D01*
D71*
X125120000Y-90010000D02*
X124465000Y-89355000D01*
X124465000Y-89355000D02*
X124465000Y-87050500D01*
X128930000Y-90010000D02*
X129560000Y-90640000D01*
X129560000Y-90640000D02*
X129560000Y-96390000D01*
%TO.N,ESP_GPIO0_BOOT-DTR*%
X136830000Y-101670000D02*
X136830000Y-102080000D01*
X123885000Y-91190000D02*
X125475000Y-91190000D01*
D72*
X137312265Y-97746427D02*
X137312265Y-97742265D01*
X125735000Y-87050500D02*
X125735000Y-89055000D01*
D71*
X123482500Y-90792500D02*
X123880000Y-91190000D01*
X136830000Y-102080000D02*
X136720000Y-102190000D01*
D72*
X137312265Y-97742265D02*
X136380000Y-96810000D01*
D71*
X123362500Y-90270000D02*
X123362500Y-90852500D01*
D72*
X136380000Y-96810000D02*
X135990000Y-96810000D01*
D71*
X137306427Y-101193573D02*
X136830000Y-101670000D01*
D72*
X137312265Y-101193573D02*
X137306427Y-101193573D01*
X125735000Y-89055000D02*
X125450000Y-89340000D01*
%TO.N,GPIO8_I2C_SDA*%
X156280000Y-107760000D02*
X156280000Y-106090000D01*
D75*
X156280000Y-108050000D02*
X156280000Y-107760000D01*
D71*
X137367500Y-86900000D02*
X137370000Y-86900000D01*
X137255000Y-86885000D02*
X138045000Y-87675000D01*
D72*
X137440000Y-89890000D02*
X137440000Y-89740000D01*
X149030000Y-103960000D02*
X150870000Y-103960000D01*
X150870000Y-103960000D02*
X151870000Y-104960000D01*
D75*
X156720000Y-108490000D02*
X156280000Y-108050000D01*
D72*
X139575006Y-103456314D02*
X139563686Y-103456314D01*
D75*
X156995000Y-108490000D02*
X156720000Y-108490000D01*
D72*
X151870000Y-104960000D02*
X151870000Y-105810000D01*
X137000000Y-90330000D02*
X137440000Y-89890000D01*
%TO.N,USB_D-*%
X143870730Y-100910730D02*
X145070000Y-102110000D01*
%TO.N,SPIHD*%
X154560000Y-93740000D02*
X154560000Y-91700000D01*
X154560000Y-91700000D02*
X153955000Y-91095000D01*
X145150000Y-98150000D02*
X145420000Y-98420000D01*
X153390000Y-95350000D02*
X153750000Y-94990000D01*
X153390000Y-96020000D02*
X153390000Y-96750000D01*
X144883635Y-98150000D02*
X145150000Y-98150000D01*
X153750000Y-94990000D02*
X153940000Y-94990000D01*
X145420000Y-98640000D02*
X145760000Y-98980000D01*
X153390000Y-96750000D02*
X153665000Y-97025000D01*
X154560000Y-94370000D02*
X153940000Y-94990000D01*
X154330000Y-97035000D02*
X153925000Y-97035000D01*
X144450000Y-98583635D02*
X144883635Y-98150000D01*
X153390000Y-95350000D02*
X153390000Y-96020000D01*
X145420000Y-98420000D02*
X145420000Y-98640000D01*
X154560000Y-94180000D02*
X154560000Y-93740000D01*
X154560000Y-93740000D02*
X154560000Y-94370000D01*
X153665000Y-97025000D02*
X154185000Y-97025000D01*
X153955000Y-91095000D02*
X152665000Y-91095000D01*
X153715000Y-95025000D02*
X153390000Y-95350000D01*
X145760000Y-98980000D02*
X147100000Y-98980000D01*
X147100000Y-98980000D02*
X150420000Y-95660000D01*
X150420000Y-95660000D02*
X150460000Y-95660000D01*
%TO.N,SPIWP*%
X145865000Y-98295000D02*
X146395000Y-98295000D01*
X149850000Y-93210000D02*
X149005000Y-92365000D01*
X144740000Y-97730000D02*
X145300000Y-97730000D01*
X144163523Y-98306477D02*
X144740000Y-97730000D01*
X145300000Y-97730000D02*
X145865000Y-98295000D01*
X147205000Y-98295000D02*
X149850000Y-95650000D01*
X146395000Y-98295000D02*
X147205000Y-98295000D01*
X149850000Y-95650000D02*
X149850000Y-93210000D01*
X149005000Y-92365000D02*
X147715000Y-92365000D01*
%TO.N,SPICS0*%
X146115000Y-95755000D02*
X146395000Y-95755000D01*
X146395000Y-95945000D02*
X145145000Y-97195000D01*
X143870680Y-98029270D02*
X143890730Y-98029270D01*
X146395000Y-95755000D02*
X146395000Y-95945000D01*
X145145000Y-97195000D02*
X144725000Y-97195000D01*
X143890730Y-98029270D02*
X144725000Y-97195000D01*
%TO.N,SPICLK*%
X152820000Y-95070000D02*
X152950000Y-94940000D01*
X152950000Y-94940000D02*
X153160000Y-94940000D01*
X143587837Y-97746427D02*
X143593573Y-97746427D01*
X154330000Y-98305000D02*
X153905000Y-98305000D01*
X153160000Y-94940000D02*
X153530000Y-94570000D01*
X145130000Y-96210000D02*
X145340000Y-96210000D01*
X153745000Y-92365000D02*
X154040000Y-92660000D01*
X144840000Y-96500000D02*
X144980000Y-96360000D01*
X153465000Y-98295000D02*
X153295000Y-98125000D01*
X144680000Y-96660000D02*
X144840000Y-96500000D01*
X152820000Y-95840000D02*
X152820000Y-96470000D01*
X152820000Y-95520000D02*
X152820000Y-95840000D01*
X153530000Y-94570000D02*
X152820000Y-95280000D01*
X154040000Y-94060000D02*
X153530000Y-94570000D01*
X152665000Y-92365000D02*
X153745000Y-92365000D01*
X152820000Y-95280000D02*
X152820000Y-95520000D01*
X154185000Y-98295000D02*
X153465000Y-98295000D01*
X152820000Y-95840000D02*
X152820000Y-97650000D01*
X152820000Y-97650000D02*
X153295000Y-98125000D01*
X144680000Y-96660000D02*
X145130000Y-96210000D01*
X152820000Y-95520000D02*
X152820000Y-95070000D01*
X143593573Y-97746427D02*
X144680000Y-96660000D01*
X154040000Y-92660000D02*
X154040000Y-94060000D01*
%TO.N,SPIQ*%
X147055000Y-97025000D02*
X147360000Y-96720000D01*
X144860000Y-95910000D02*
X145690000Y-95080000D01*
X146300000Y-92160000D02*
X147365000Y-91095000D01*
X146300000Y-95080000D02*
X146300000Y-92160000D01*
X147360000Y-95420000D02*
X147020000Y-95080000D01*
X145690000Y-95080000D02*
X146300000Y-95080000D01*
X147365000Y-91095000D02*
X147715000Y-91095000D01*
X146395000Y-97025000D02*
X146410000Y-97010000D01*
X147020000Y-95080000D02*
X146300000Y-95080000D01*
X144860000Y-95910000D02*
X145080000Y-95690000D01*
X144860000Y-95910000D02*
X144915000Y-95855000D01*
X147360000Y-96720000D02*
X147360000Y-95420000D01*
X143330000Y-97440000D02*
X144860000Y-95910000D01*
X146395000Y-97025000D02*
X147055000Y-97025000D01*
X144915000Y-95855000D02*
X145000000Y-95770000D01*
%TO.N,SPID*%
X154330000Y-99575000D02*
X154125000Y-99575000D01*
X154185000Y-99565000D02*
X153385000Y-99565000D01*
X151910000Y-94390000D02*
X151910000Y-94420000D01*
X143022152Y-97180742D02*
X143022152Y-97177848D01*
X152665000Y-93635000D02*
X152830000Y-93800000D01*
X152665000Y-93635000D02*
X151910000Y-94390000D01*
X152320000Y-98500000D02*
X152320000Y-94830000D01*
X152320000Y-94830000D02*
X151910000Y-94420000D01*
X153385000Y-99565000D02*
X152320000Y-98500000D01*
X143022152Y-97177848D02*
X145550000Y-94650000D01*
%TO.N,USB_D+*%
X144153523Y-100627887D02*
X144157887Y-100627887D01*
X144153523Y-100627887D02*
X144153523Y-100633523D01*
X144153523Y-100633523D02*
X145320000Y-101800000D01*
%TO.N,unconnected-(ESP32S3-Pad6)*%
X137595107Y-101476415D02*
X137593585Y-101476415D01*
D71*
%TO.N,unconnected-(ESP32S3-Pad37)*%
X142484944Y-96615056D02*
X143760000Y-95340000D01*
X142456466Y-96615056D02*
X142484944Y-96615056D01*
D72*
%TO.N,TXD0*%
X126607500Y-91900000D02*
X126607500Y-91612500D01*
X126607500Y-91612500D02*
X127460000Y-90760000D01*
%TO.N,RXD0*%
X137877950Y-97180742D02*
X137870742Y-97180742D01*
X137360000Y-96670000D02*
X137360000Y-94500000D01*
X137360000Y-94500000D02*
X137350000Y-94490000D01*
X137870742Y-97180742D02*
X137360000Y-96670000D01*
%TO.N,unconnected-(ESP32S3-Pad47)*%
X138170000Y-95780000D02*
X138170000Y-95450000D01*
X138726478Y-96332214D02*
X138726478Y-96326478D01*
X138722214Y-96332214D02*
X138170000Y-95780000D01*
X138726478Y-96332214D02*
X138722214Y-96332214D01*
D71*
%TO.N,unconnected-(ESP32S3-Pad42)*%
X141042253Y-95200843D02*
X141042253Y-95182253D01*
X141042253Y-95182253D02*
X140570000Y-94710000D01*
D72*
%TO.N,unconnected-(ESP32S3-Pad9)*%
X138443636Y-102324944D02*
X138443636Y-102326364D01*
X138425056Y-102324944D02*
X137920000Y-102830000D01*
X138443636Y-102324944D02*
X138425056Y-102324944D01*
D74*
%TO.N,GPIO9_I2C_SCL*%
X121260000Y-98940000D02*
X119870000Y-98940000D01*
D72*
X136922500Y-90830000D02*
X137700000Y-90830000D01*
D75*
X159150000Y-108470000D02*
X158985000Y-108635000D01*
D72*
X139857849Y-103739157D02*
X139857849Y-104197849D01*
X139857849Y-104197849D02*
X140080000Y-104420000D01*
D75*
X159150000Y-107730000D02*
X159150000Y-108470000D01*
D74*
X119870000Y-98940000D02*
X119860000Y-98930000D01*
D75*
X158985000Y-108635000D02*
X158510000Y-108635000D01*
D71*
X134912500Y-86890000D02*
X135200000Y-86890000D01*
D72*
X149030000Y-105035000D02*
X150465000Y-105035000D01*
D71*
X135200000Y-86890000D02*
X135970000Y-87660000D01*
D72*
%TO.N,unconnected-(ESP32S3-Pad15)*%
X141042253Y-103739157D02*
X141042253Y-104457747D01*
D71*
%TO.N,unconnected-(ESP32S3-Pad16)*%
X141325096Y-103456314D02*
X141325096Y-103465096D01*
X141325096Y-103465096D02*
X141690000Y-103830000D01*
X141690000Y-103830000D02*
X141690000Y-104420000D01*
D72*
%TO.N,Net-(EC61-Pad1)*%
X135600000Y-97850000D02*
X136284466Y-97850000D01*
X133237500Y-95487500D02*
X134275000Y-96525000D01*
X133510000Y-97340000D02*
X134275000Y-96575000D01*
D74*
X133490000Y-97170000D02*
X133510000Y-97170000D01*
D72*
X132060000Y-95487500D02*
X133237500Y-95487500D01*
X134275000Y-96525000D02*
X135600000Y-97850000D01*
X136284466Y-97850000D02*
X136746579Y-98312113D01*
X134275000Y-96575000D02*
X134275000Y-96525000D01*
X132110000Y-95930000D02*
X132110000Y-95950000D01*
%TO.N,Net-(ER2-Pad2)*%
X128480000Y-91386250D02*
X128480000Y-90713750D01*
X137770000Y-96510000D02*
X137770000Y-95980000D01*
X137770000Y-95980000D02*
X137770000Y-95080000D01*
X137975000Y-94005000D02*
X137480000Y-93510000D01*
X138160793Y-96897899D02*
X138157899Y-96897899D01*
X138157899Y-96897899D02*
X137770000Y-96510000D01*
X137770000Y-95080000D02*
X137975000Y-94875000D01*
X137770000Y-95980000D02*
X137770000Y-95120000D01*
X137975000Y-94875000D02*
X137975000Y-94005000D01*
D71*
%TO.N,unconnected-(ESP32S3-Pad36)*%
X142742101Y-96897899D02*
X144110000Y-95530000D01*
X142739309Y-96897899D02*
X142742101Y-96897899D01*
D75*
%TO.N,SPICS1*%
X145517500Y-91402500D02*
X145300000Y-91402500D01*
D71*
X145515000Y-100385000D02*
X145850000Y-100720000D01*
D78*
X151170000Y-98220000D02*
X149160000Y-100230000D01*
X147095000Y-89825000D02*
X145517500Y-91402500D01*
X151170000Y-91820000D02*
X151170000Y-97580000D01*
D71*
X145035000Y-100385000D02*
X145515000Y-100385000D01*
D78*
X151170000Y-97580000D02*
X151170000Y-98220000D01*
X149175000Y-89825000D02*
X151170000Y-91820000D01*
X147715000Y-89825000D02*
X149175000Y-89825000D01*
D71*
X144844629Y-100194629D02*
X145035000Y-100385000D01*
X145850000Y-100720000D02*
X146780000Y-100720000D01*
D75*
X147715000Y-89825000D02*
X147095000Y-89825000D01*
D71*
%TO.N,unconnected-(ESP32S3-Pad24)*%
X143587837Y-101207837D02*
X144740000Y-102360000D01*
X143587837Y-101193573D02*
X143587837Y-101207837D01*
%TO.N,unconnected-(ESP32S3-Pad27)*%
X144445045Y-100345045D02*
X145530000Y-101430000D01*
X144436365Y-100345045D02*
X144445045Y-100345045D01*
%TO.N,unconnected-(ESP32S3-Pad23)*%
X143304995Y-101484995D02*
X143930000Y-102110000D01*
X143304995Y-101476415D02*
X143304995Y-101484995D01*
%TO.N,IO35_LED_G*%
X141607938Y-95762062D02*
X142660000Y-94710000D01*
D72*
X141607938Y-95766528D02*
X141607938Y-95762062D01*
X144090000Y-87700000D02*
X144060000Y-87670000D01*
D71*
X142660000Y-94710000D02*
X143250000Y-94120000D01*
X144890000Y-93310000D02*
X144890000Y-92370000D01*
D72*
X145230000Y-87700000D02*
X144090000Y-87700000D01*
D71*
X144080000Y-94120000D02*
X144890000Y-93310000D01*
X143250000Y-94120000D02*
X144080000Y-94120000D01*
D76*
%TO.N,5V0*%
X158420000Y-94570000D02*
X158420000Y-93680000D01*
D71*
X131140000Y-86530000D02*
X130730000Y-86120000D01*
D76*
X158987500Y-95470000D02*
X158987500Y-95137500D01*
X158430000Y-93510000D02*
X158430000Y-94010000D01*
X159330000Y-101752500D02*
X159330000Y-98200000D01*
X158752500Y-102330000D02*
X159330000Y-101752500D01*
D71*
X131290000Y-86530000D02*
X131140000Y-86530000D01*
D76*
X158400000Y-94270000D02*
X156540000Y-94270000D01*
X158750000Y-97620000D02*
X158750000Y-95707500D01*
X158920000Y-97790000D02*
X158750000Y-97620000D01*
X157247500Y-102330000D02*
X158752500Y-102330000D01*
D71*
X130730000Y-86120000D02*
X130270000Y-86120000D01*
D76*
X158987500Y-95137500D02*
X158420000Y-94570000D01*
X158750000Y-95707500D02*
X158987500Y-95470000D01*
X159330000Y-98200000D02*
X158920000Y-97790000D01*
D73*
%TO.N,Net-(AL1-Pad2)*%
X156515000Y-90295000D02*
X156515000Y-89525000D01*
D79*
X156530000Y-90630000D02*
X156525000Y-90635000D01*
D77*
X159820000Y-88120000D02*
X158890000Y-89050000D01*
D73*
X156930000Y-89110000D02*
X158080000Y-89110000D01*
D77*
X159820000Y-87400000D02*
X159820000Y-88120000D01*
X158890000Y-89050000D02*
X158140000Y-89050000D01*
D73*
X158080000Y-89110000D02*
X158140000Y-89050000D01*
X156515000Y-89525000D02*
X156930000Y-89110000D01*
X159820000Y-88290000D02*
X159820000Y-87480000D01*
%TO.N,Net-(AR1-Pad2)*%
X160750000Y-93460000D02*
X160750000Y-92540000D01*
D79*
X159210000Y-91490000D02*
X159570000Y-91850000D01*
X159210000Y-90670000D02*
X159210000Y-91230000D01*
X158950000Y-90410000D02*
X159210000Y-90670000D01*
D73*
X160750000Y-91760000D02*
X160680000Y-91690000D01*
D79*
X159210000Y-91230000D02*
X159210000Y-91490000D01*
D73*
X160750000Y-92540000D02*
X160750000Y-91760000D01*
D79*
X158484998Y-90410000D02*
X158950000Y-90410000D01*
X159570000Y-91850000D02*
X160690000Y-91850000D01*
D72*
%TO.N,unconnected-(IMU1-Pad9)*%
X135562500Y-91920000D02*
X135590000Y-91892500D01*
%TO.N,Net-(LED1-Pad3)*%
X143290000Y-86560000D02*
X143040000Y-86810000D01*
X145230000Y-86560000D02*
X143290000Y-86560000D01*
D71*
%TO.N,IO34_LED_B*%
X143400000Y-94560000D02*
X144360000Y-94560000D01*
X145650000Y-93270000D02*
X145650000Y-92800000D01*
D72*
X148525000Y-87810000D02*
X147115000Y-87810000D01*
D71*
X144360000Y-94560000D02*
X145650000Y-93270000D01*
X142755000Y-95205000D02*
X143400000Y-94560000D01*
X141910629Y-96049371D02*
X142755000Y-95205000D01*
D72*
X141890781Y-96049371D02*
X141910629Y-96049371D01*
%TO.N,IO36_LED_R*%
X141325096Y-95483686D02*
X141326314Y-95483686D01*
D71*
X141326314Y-95483686D02*
X144110000Y-92700000D01*
D72*
X141500000Y-86950000D02*
X141500000Y-87930000D01*
X144110000Y-92700000D02*
X144110000Y-92680000D01*
%TO.N,GPIO06_EXT_PLUG2*%
X125165000Y-93595000D02*
X124575000Y-93595000D01*
X139139321Y-102760679D02*
X138180000Y-103720000D01*
X139009321Y-102890629D02*
X139009321Y-102890679D01*
X125730000Y-93030000D02*
X125165000Y-93595000D01*
X128430000Y-100233750D02*
X128430000Y-93926250D01*
X127820000Y-93030000D02*
X125730000Y-93030000D01*
X128422500Y-93632500D02*
X127820000Y-93030000D01*
X128422500Y-94050000D02*
X128422500Y-93632500D01*
%TO.N,unconnected-(ESP32S3-Pad18)*%
X141890781Y-102890629D02*
X141900629Y-102890629D01*
%TO.N,unconnected-(ESP32S3-Pad17)*%
X141607938Y-103177938D02*
X142110000Y-103680000D01*
X141607938Y-103173472D02*
X141607938Y-103177938D01*
X142110000Y-103680000D02*
X142110000Y-104230000D01*
D71*
%TO.N,GPIO38_IMU_CS*%
X139857849Y-95200843D02*
X139770000Y-95112994D01*
X139740000Y-95106497D02*
X139740000Y-94533503D01*
D72*
X137450000Y-91710000D02*
X137450000Y-91930000D01*
D71*
X139857849Y-95200843D02*
X139650000Y-94992994D01*
D72*
X137070000Y-91330000D02*
X137450000Y-91710000D01*
D71*
%TO.N,GPIO2_PLUG_PWR_3V3*%
X137565000Y-102075000D02*
X137511786Y-102128213D01*
X128930000Y-101160000D02*
X129610000Y-100480000D01*
X118720000Y-99310000D02*
X120570000Y-101160000D01*
X118720000Y-89150000D02*
X118720000Y-99310000D01*
X125550000Y-101160000D02*
X127970000Y-101160000D01*
X137310000Y-102330000D02*
X137310000Y-102760000D01*
X128540000Y-101160000D02*
X127970000Y-101160000D01*
X118350000Y-88780000D02*
X118720000Y-89150000D01*
D72*
X137877950Y-101759258D02*
X137877950Y-101772050D01*
D71*
X129610000Y-100480000D02*
X129610000Y-98860000D01*
X125550000Y-101160000D02*
X128930000Y-101160000D01*
X120570000Y-101160000D02*
X125550000Y-101160000D01*
X137565000Y-102075000D02*
X137310000Y-102330000D01*
X137988213Y-101651786D02*
X137565000Y-102075000D01*
X128540000Y-101160000D02*
X128950000Y-101160000D01*
D72*
%TO.N,Net-(EXP_R1-Pad2)*%
X126597500Y-93760000D02*
X126560000Y-93760000D01*
X126560000Y-93760000D02*
X125455000Y-94865000D01*
X125455000Y-94865000D02*
X124575000Y-94865000D01*
%TO.N,Net-(EXP_R2-Pad2)*%
X126260000Y-95670000D02*
X125760000Y-96170000D01*
X126597500Y-95670000D02*
X126260000Y-95670000D01*
X124610000Y-96170000D02*
X124575000Y-96135000D01*
X125760000Y-96170000D02*
X124610000Y-96170000D01*
%TO.N,Net-(EXP_R3-Pad2)*%
X126547500Y-97590000D02*
X124760000Y-97590000D01*
X124760000Y-97590000D02*
X124575000Y-97405000D01*
%TO.N,Net-(EXP_R4-Pad2)*%
X125040000Y-99990000D02*
X124575000Y-99525000D01*
X125720000Y-99990000D02*
X126320000Y-99990000D01*
X124575000Y-99525000D02*
X124575000Y-98675000D01*
X125720000Y-99990000D02*
X125040000Y-99990000D01*
%TO.N,ADC_OUT*%
X123320000Y-92240000D02*
X123320000Y-97720000D01*
X122670000Y-99930000D02*
X123170000Y-99430000D01*
X123290000Y-98855000D02*
X123290000Y-97585000D01*
X123170000Y-99430000D02*
X123170000Y-98865000D01*
X122230000Y-99930000D02*
X122670000Y-99930000D01*
X121355000Y-99930000D02*
X122230000Y-99930000D01*
%TO.N,Net-(Q5-Pad1)*%
X120040000Y-87440000D02*
X119380000Y-86780000D01*
X119380000Y-86780000D02*
X118350000Y-86780000D01*
X120040000Y-88607500D02*
X120040000Y-87440000D01*
%TD*%
%TA.AperFunction,Conductor*%
%TO.N,GND*%
G36*
X129988211Y-101592263D02*
G01*
X130024470Y-101641548D01*
X130029500Y-101672702D01*
X130029500Y-101859748D01*
X130031826Y-101871442D01*
X130036791Y-101896400D01*
X130041133Y-101918231D01*
X130046552Y-101926341D01*
X130059352Y-101945497D01*
X130075962Y-102004385D01*
X130054786Y-102061789D01*
X130003912Y-102095783D01*
X129977038Y-102099500D01*
X128630383Y-102099500D01*
X128614894Y-102098281D01*
X128613165Y-102098007D01*
X128594219Y-102095006D01*
X128581617Y-102097002D01*
X128572624Y-102098006D01*
X128494944Y-102103097D01*
X128419488Y-102108041D01*
X128419484Y-102108042D01*
X128416257Y-102108253D01*
X128413088Y-102108883D01*
X128413083Y-102108884D01*
X128348902Y-102121650D01*
X128241340Y-102143044D01*
X128238278Y-102144084D01*
X128238272Y-102144085D01*
X128108945Y-102187984D01*
X128072461Y-102200368D01*
X128069555Y-102201801D01*
X127915414Y-102277812D01*
X127915409Y-102277815D01*
X127912509Y-102279245D01*
X127764221Y-102378326D01*
X127682664Y-102449848D01*
X127678008Y-102453363D01*
X127676951Y-102453871D01*
X127672897Y-102457279D01*
X127665960Y-102464216D01*
X127661231Y-102468644D01*
X127646332Y-102481710D01*
X127639252Y-102487367D01*
X127629020Y-102494801D01*
X127624442Y-102501102D01*
X127624441Y-102501103D01*
X127616715Y-102511737D01*
X127606627Y-102523549D01*
X126303549Y-103826627D01*
X126291737Y-103836715D01*
X126274801Y-103849020D01*
X126267369Y-103859250D01*
X126261715Y-103866325D01*
X126160466Y-103981779D01*
X126160455Y-103981793D01*
X126158326Y-103984221D01*
X126156531Y-103986908D01*
X126156526Y-103986914D01*
X126112247Y-104053184D01*
X126059245Y-104132509D01*
X126057815Y-104135409D01*
X126057812Y-104135414D01*
X126000274Y-104252095D01*
X125980368Y-104292461D01*
X125979329Y-104295522D01*
X125979324Y-104295534D01*
X125965628Y-104335883D01*
X125929020Y-104384908D01*
X125904111Y-104396000D01*
X125904631Y-104397481D01*
X125776816Y-104442366D01*
X125667850Y-104522850D01*
X125663450Y-104528807D01*
X125595141Y-104621290D01*
X125587366Y-104631816D01*
X125542481Y-104759631D01*
X125539500Y-104791166D01*
X125539500Y-104860500D01*
X125520593Y-104918691D01*
X125471093Y-104954655D01*
X125440500Y-104959500D01*
X124916978Y-104959500D01*
X124858787Y-104940593D01*
X124828769Y-104905445D01*
X124778197Y-104806193D01*
X124778194Y-104806189D01*
X124774658Y-104799249D01*
X124680751Y-104705342D01*
X124673814Y-104701807D01*
X124673812Y-104701806D01*
X124569360Y-104648585D01*
X124569359Y-104648585D01*
X124562420Y-104645049D01*
X124554727Y-104643830D01*
X124554725Y-104643830D01*
X124468092Y-104630109D01*
X124468090Y-104630109D01*
X124464246Y-104629500D01*
X123960754Y-104629500D01*
X123956910Y-104630109D01*
X123956908Y-104630109D01*
X123870275Y-104643830D01*
X123870273Y-104643830D01*
X123862580Y-104645049D01*
X123855641Y-104648585D01*
X123855640Y-104648585D01*
X123751188Y-104701806D01*
X123751186Y-104701807D01*
X123744249Y-104705342D01*
X123650342Y-104799249D01*
X123646807Y-104806186D01*
X123646806Y-104806188D01*
X123613715Y-104871133D01*
X123590049Y-104917580D01*
X123588830Y-104925273D01*
X123588830Y-104925275D01*
X123582222Y-104967000D01*
X123574500Y-105015754D01*
X123574500Y-105844246D01*
X123575109Y-105848090D01*
X123575109Y-105848092D01*
X123587171Y-105924246D01*
X123590049Y-105942420D01*
X123593585Y-105949359D01*
X123593585Y-105949360D01*
X123623558Y-106008184D01*
X123650342Y-106060751D01*
X123744249Y-106154658D01*
X123751186Y-106158193D01*
X123751188Y-106158194D01*
X123833404Y-106200085D01*
X123862580Y-106214951D01*
X123870273Y-106216170D01*
X123870275Y-106216170D01*
X123956908Y-106229891D01*
X123956910Y-106229891D01*
X123960754Y-106230500D01*
X124464246Y-106230500D01*
X124468090Y-106229891D01*
X124468092Y-106229891D01*
X124554725Y-106216170D01*
X124554727Y-106216170D01*
X124562420Y-106214951D01*
X124591596Y-106200085D01*
X124673812Y-106158194D01*
X124673814Y-106158193D01*
X124680751Y-106154658D01*
X124774658Y-106060751D01*
X124801443Y-106008184D01*
X124831415Y-105949360D01*
X124831415Y-105949359D01*
X124834951Y-105942420D01*
X124837830Y-105924246D01*
X124849891Y-105848092D01*
X124849891Y-105848090D01*
X124850500Y-105844246D01*
X124850500Y-105779500D01*
X124869407Y-105721309D01*
X124918907Y-105685345D01*
X124949500Y-105680500D01*
X125440500Y-105680500D01*
X125498691Y-105699407D01*
X125534655Y-105748907D01*
X125539500Y-105779500D01*
X125539500Y-105848834D01*
X125539718Y-105851135D01*
X125539718Y-105851145D01*
X125541913Y-105874361D01*
X125542481Y-105880369D01*
X125587366Y-106008184D01*
X125591761Y-106014135D01*
X125591762Y-106014136D01*
X125659019Y-106105194D01*
X125667850Y-106117150D01*
X125673807Y-106121550D01*
X125679085Y-106125448D01*
X125776816Y-106197634D01*
X125904631Y-106242519D01*
X125910638Y-106243087D01*
X125910639Y-106243087D01*
X125933855Y-106245282D01*
X125933865Y-106245282D01*
X125936166Y-106245500D01*
X126543834Y-106245500D01*
X126546135Y-106245282D01*
X126546145Y-106245282D01*
X126569361Y-106243087D01*
X126569362Y-106243087D01*
X126575369Y-106242519D01*
X126703184Y-106197634D01*
X126800916Y-106125448D01*
X126806193Y-106121550D01*
X126812150Y-106117150D01*
X126820981Y-106105194D01*
X126888238Y-106014136D01*
X126888239Y-106014135D01*
X126892634Y-106008184D01*
X126937519Y-105880369D01*
X126938087Y-105874361D01*
X126940282Y-105851145D01*
X126940282Y-105851135D01*
X126940500Y-105848834D01*
X126940500Y-104791166D01*
X126937519Y-104759631D01*
X126892634Y-104631816D01*
X126884860Y-104621290D01*
X126816550Y-104528807D01*
X126812150Y-104522850D01*
X126800804Y-104514470D01*
X126765232Y-104464689D01*
X126765713Y-104403506D01*
X126788103Y-104367288D01*
X126790985Y-104365194D01*
X126803291Y-104348256D01*
X126813374Y-104336450D01*
X128116450Y-103033374D01*
X128128256Y-103023291D01*
X128145194Y-103010985D01*
X128149777Y-103004677D01*
X128155283Y-102999171D01*
X128155372Y-102999260D01*
X128165423Y-102988599D01*
X128231385Y-102934467D01*
X128247522Y-102923685D01*
X128340886Y-102873782D01*
X128358816Y-102866356D01*
X128460124Y-102835626D01*
X128479158Y-102831840D01*
X128486932Y-102831074D01*
X128564110Y-102823474D01*
X128578721Y-102823905D01*
X128578721Y-102823775D01*
X128586513Y-102823775D01*
X128594209Y-102824994D01*
X128601906Y-102823775D01*
X128614889Y-102821719D01*
X128630374Y-102820500D01*
X130014079Y-102820500D01*
X130072270Y-102839407D01*
X130108234Y-102888907D01*
X130108234Y-102950093D01*
X130087345Y-102984180D01*
X130085448Y-102985448D01*
X130041133Y-103051769D01*
X130029500Y-103110252D01*
X130029500Y-108304318D01*
X130012815Y-108359320D01*
X129991133Y-108391769D01*
X129979500Y-108450252D01*
X129979500Y-108889748D01*
X129979657Y-108890539D01*
X129966821Y-108949047D01*
X129921085Y-108989689D01*
X129881407Y-108997987D01*
X129581896Y-108997971D01*
X129523706Y-108979061D01*
X129487745Y-108929559D01*
X129482901Y-108898663D01*
X129483461Y-108719001D01*
X129486518Y-107737864D01*
X129490000Y-106620000D01*
X120034692Y-106603585D01*
X119976535Y-106584577D01*
X119940657Y-106535014D01*
X119936342Y-106494883D01*
X119941831Y-106439148D01*
X119945616Y-106420117D01*
X119946280Y-106417930D01*
X119976345Y-106318814D01*
X119983771Y-106300884D01*
X120033676Y-106207516D01*
X120044456Y-106191382D01*
X120098568Y-106125446D01*
X120109256Y-106115368D01*
X120109172Y-106115284D01*
X120114684Y-106109772D01*
X120120985Y-106105194D01*
X120133291Y-106088256D01*
X120143374Y-106076450D01*
X120316450Y-105903374D01*
X120328256Y-105893291D01*
X120345194Y-105880985D01*
X120349777Y-105874677D01*
X120355283Y-105869171D01*
X120355372Y-105869260D01*
X120365423Y-105858599D01*
X120387657Y-105840353D01*
X120431385Y-105804467D01*
X120447522Y-105793685D01*
X120540886Y-105743782D01*
X120558816Y-105736356D01*
X120660124Y-105705626D01*
X120679158Y-105701840D01*
X120686932Y-105701074D01*
X120764110Y-105693474D01*
X120778721Y-105693905D01*
X120778721Y-105693775D01*
X120786513Y-105693775D01*
X120794209Y-105694994D01*
X120801906Y-105693775D01*
X120814889Y-105691719D01*
X120830374Y-105690500D01*
X121350500Y-105690500D01*
X121408691Y-105709407D01*
X121444655Y-105758907D01*
X121449500Y-105789500D01*
X121449500Y-105844246D01*
X121450109Y-105848090D01*
X121450109Y-105848092D01*
X121462171Y-105924246D01*
X121465049Y-105942420D01*
X121468585Y-105949359D01*
X121468585Y-105949360D01*
X121498558Y-106008184D01*
X121525342Y-106060751D01*
X121619249Y-106154658D01*
X121626186Y-106158193D01*
X121626188Y-106158194D01*
X121708404Y-106200085D01*
X121737580Y-106214951D01*
X121745273Y-106216170D01*
X121745275Y-106216170D01*
X121831908Y-106229891D01*
X121831910Y-106229891D01*
X121835754Y-106230500D01*
X122339246Y-106230500D01*
X122343090Y-106229891D01*
X122343092Y-106229891D01*
X122429725Y-106216170D01*
X122429727Y-106216170D01*
X122437420Y-106214951D01*
X122466596Y-106200085D01*
X122548812Y-106158194D01*
X122548814Y-106158193D01*
X122555751Y-106154658D01*
X122649658Y-106060751D01*
X122676443Y-106008184D01*
X122706415Y-105949360D01*
X122706415Y-105949359D01*
X122709951Y-105942420D01*
X122712830Y-105924246D01*
X122724891Y-105848092D01*
X122724891Y-105848090D01*
X122725500Y-105844246D01*
X122725500Y-105015754D01*
X122717778Y-104967000D01*
X122711170Y-104925275D01*
X122711170Y-104925273D01*
X122709951Y-104917580D01*
X122686285Y-104871133D01*
X122653194Y-104806188D01*
X122653193Y-104806186D01*
X122649658Y-104799249D01*
X122629913Y-104779504D01*
X122602136Y-104724987D01*
X122611707Y-104664555D01*
X122654972Y-104621290D01*
X122699917Y-104610500D01*
X122848834Y-104610500D01*
X122851135Y-104610282D01*
X122851145Y-104610282D01*
X122874361Y-104608087D01*
X122874362Y-104608087D01*
X122880369Y-104607519D01*
X123008184Y-104562634D01*
X123117150Y-104482150D01*
X123148097Y-104440252D01*
X123193238Y-104379136D01*
X123193239Y-104379135D01*
X123197634Y-104373184D01*
X123242519Y-104245369D01*
X123245500Y-104213834D01*
X123245500Y-103606166D01*
X123242519Y-103574631D01*
X123197634Y-103446816D01*
X123117150Y-103337850D01*
X123111193Y-103333450D01*
X123014136Y-103261762D01*
X123014135Y-103261761D01*
X123008184Y-103257366D01*
X122880369Y-103212481D01*
X122874362Y-103211913D01*
X122874361Y-103211913D01*
X122851145Y-103209718D01*
X122851135Y-103209718D01*
X122848834Y-103209500D01*
X121791166Y-103209500D01*
X121788865Y-103209718D01*
X121788855Y-103209718D01*
X121765639Y-103211913D01*
X121765638Y-103211913D01*
X121759631Y-103212481D01*
X121631816Y-103257366D01*
X121625865Y-103261761D01*
X121625864Y-103261762D01*
X121528807Y-103333450D01*
X121522850Y-103337850D01*
X121442366Y-103446816D01*
X121397481Y-103574631D01*
X121394500Y-103606166D01*
X121394500Y-104213834D01*
X121397481Y-104245369D01*
X121442366Y-104373184D01*
X121446761Y-104379135D01*
X121446762Y-104379136D01*
X121491903Y-104440252D01*
X121522850Y-104482150D01*
X121528807Y-104486550D01*
X121615308Y-104550441D01*
X121650882Y-104600222D01*
X121650401Y-104661406D01*
X121618653Y-104704746D01*
X121619249Y-104705342D01*
X121525342Y-104799249D01*
X121521807Y-104806186D01*
X121521806Y-104806188D01*
X121504276Y-104840593D01*
X121468897Y-104910029D01*
X121466137Y-104915445D01*
X121422872Y-104958710D01*
X121377927Y-104969500D01*
X120830383Y-104969500D01*
X120814894Y-104968281D01*
X120813165Y-104968007D01*
X120794219Y-104965006D01*
X120781617Y-104967002D01*
X120772622Y-104968006D01*
X120760838Y-104968779D01*
X120753063Y-104969288D01*
X120746591Y-104969500D01*
X119873585Y-104969500D01*
X119815394Y-104950593D01*
X119791270Y-104925502D01*
X119789971Y-104923558D01*
X119784552Y-104915448D01*
X119718231Y-104871133D01*
X119708668Y-104869231D01*
X119708666Y-104869230D01*
X119685995Y-104864721D01*
X119659748Y-104859500D01*
X119319500Y-104859500D01*
X119261309Y-104840593D01*
X119225345Y-104791093D01*
X119220500Y-104760500D01*
X119220500Y-104522268D01*
X119239407Y-104464077D01*
X119288907Y-104428113D01*
X119319500Y-104423268D01*
X119395000Y-104423268D01*
X119395000Y-102310000D01*
X118118391Y-102310000D01*
X118060200Y-102291093D01*
X118024236Y-102241593D01*
X118024236Y-102180407D01*
X118060200Y-102130907D01*
X118085589Y-102117592D01*
X118128184Y-102102634D01*
X118134449Y-102098007D01*
X118231193Y-102026550D01*
X118237150Y-102022150D01*
X118256834Y-101995500D01*
X118313238Y-101919136D01*
X118313239Y-101919135D01*
X118317634Y-101913184D01*
X118362519Y-101785369D01*
X118365500Y-101753834D01*
X118365500Y-101741178D01*
X118384407Y-101682987D01*
X118433907Y-101647023D01*
X118463908Y-101642180D01*
X119660677Y-101635033D01*
X129929909Y-101573704D01*
X129988211Y-101592263D01*
G37*
%TD.AperFunction*%
%TA.AperFunction,Conductor*%
G36*
X116546555Y-102149119D02*
G01*
X116558857Y-102150282D01*
X116558863Y-102150282D01*
X116561166Y-102150500D01*
X117519510Y-102150500D01*
X117577701Y-102169407D01*
X117613665Y-102218907D01*
X117613665Y-102280093D01*
X117599602Y-102307691D01*
X117597924Y-102310000D01*
X117591936Y-102310000D01*
X117591936Y-104423268D01*
X117670500Y-104423268D01*
X117728691Y-104442175D01*
X117764655Y-104491675D01*
X117769500Y-104522268D01*
X117769500Y-105579748D01*
X117781133Y-105638231D01*
X117825448Y-105704552D01*
X117891769Y-105748867D01*
X117901332Y-105750769D01*
X117901334Y-105750770D01*
X117924005Y-105755279D01*
X117950252Y-105760500D01*
X119039748Y-105760500D01*
X119044509Y-105759553D01*
X119044518Y-105759552D01*
X119060684Y-105756336D01*
X119099316Y-105756336D01*
X119115482Y-105759552D01*
X119115491Y-105759553D01*
X119120252Y-105760500D01*
X119285266Y-105760500D01*
X119343457Y-105779407D01*
X119379421Y-105828907D01*
X119379421Y-105890093D01*
X119374057Y-105903285D01*
X119311796Y-106029542D01*
X119310359Y-106032457D01*
X119253034Y-106201338D01*
X119252402Y-106204516D01*
X119252400Y-106204523D01*
X119244250Y-106245500D01*
X119218243Y-106376256D01*
X119218032Y-106379479D01*
X119218031Y-106379485D01*
X119211151Y-106484493D01*
X119210343Y-106490278D01*
X119209957Y-106491376D01*
X119209500Y-106496653D01*
X119209500Y-106502980D01*
X119190593Y-106561171D01*
X119141093Y-106597135D01*
X119110330Y-106601980D01*
X118501978Y-106600924D01*
X117985681Y-106600027D01*
X117985680Y-106600027D01*
X117970000Y-106600000D01*
X117973091Y-107823795D01*
X117975113Y-108624674D01*
X117956352Y-108682912D01*
X117906943Y-108719001D01*
X117845758Y-108719156D01*
X117830352Y-108712713D01*
X117758470Y-108675244D01*
X117685753Y-108637339D01*
X117676010Y-108631527D01*
X117440271Y-108471879D01*
X117431249Y-108464983D01*
X117244343Y-108304318D01*
X117215337Y-108279384D01*
X117207166Y-108271501D01*
X117013935Y-108062407D01*
X117006719Y-108053639D01*
X116925163Y-107942069D01*
X116838703Y-107823791D01*
X116832541Y-107814258D01*
X116691947Y-107566675D01*
X116686915Y-107556496D01*
X116575599Y-107294445D01*
X116571766Y-107283756D01*
X116556902Y-107233382D01*
X116491190Y-107010679D01*
X116488609Y-106999632D01*
X116481208Y-106957064D01*
X116455154Y-106807227D01*
X116439835Y-106719122D01*
X116438535Y-106707842D01*
X116423729Y-106450157D01*
X116424562Y-106440300D01*
X116424488Y-106440300D01*
X116424507Y-106429149D01*
X116427005Y-106418285D01*
X116424295Y-106406310D01*
X116421854Y-106384447D01*
X116422438Y-102246172D01*
X116441354Y-102187984D01*
X116490859Y-102152027D01*
X116530754Y-102147625D01*
X116546555Y-102149119D01*
G37*
%TD.AperFunction*%
%TA.AperFunction,Conductor*%
G36*
X132908081Y-100880695D02*
G01*
X132944420Y-100929920D01*
X132949500Y-100961227D01*
X132949500Y-101598834D01*
X132949718Y-101601135D01*
X132949718Y-101601145D01*
X132950852Y-101613141D01*
X132952481Y-101630369D01*
X132997366Y-101758184D01*
X133001761Y-101764135D01*
X133001762Y-101764136D01*
X133072383Y-101859748D01*
X133077850Y-101867150D01*
X133083807Y-101871550D01*
X133150577Y-101920867D01*
X133186151Y-101970648D01*
X133185670Y-102031831D01*
X133149319Y-102081047D01*
X133091759Y-102099500D01*
X130882962Y-102099500D01*
X130824771Y-102080593D01*
X130788807Y-102031093D01*
X130788807Y-101969907D01*
X130800648Y-101945497D01*
X130813448Y-101926341D01*
X130818867Y-101918231D01*
X130823210Y-101896400D01*
X130828174Y-101871442D01*
X130830500Y-101859748D01*
X130830500Y-100975817D01*
X130849407Y-100917626D01*
X130898907Y-100881662D01*
X130928748Y-100876820D01*
X132849748Y-100862230D01*
X132908081Y-100880695D01*
G37*
%TD.AperFunction*%
%TD*%
M02*
