%TF.GenerationSoftware,KiCad,Pcbnew,(6.0.7)*%
%TF.CreationDate,2022-10-28T10:56:41+02:00*%
%TF.ProjectId,LDAD ATOM PRO,4c444144-2041-4544-9f4d-2050524f2e6b,5.3*%
%TF.SameCoordinates,Original*%
%TF.FileFunction,Paste,Top*%
%TF.FilePolarity,Positive*%
%FSLAX46Y46*%
G04 Gerber Fmt 4.6, Leading zero omitted, Abs format (unit mm)*
G04 Created by KiCad (PCBNEW (6.0.7)) date 2022-10-28 10:56:41*
%MOMM*%
%LPD*%
G01*
G04 APERTURE LIST*
G04 Aperture macros list*
%AMRoundRect*
0 Rectangle with rounded corners*
0 $1 Rounding radius*
0 $2 $3 $4 $5 $6 $7 $8 $9 X,Y pos of 4 corners*
0 Add a 4 corners polygon primitive as box body*
4,1,4,$2,$3,$4,$5,$6,$7,$8,$9,$2,$3,0*
0 Add four circle primitives for the rounded corners*
1,1,$1+$1,$2,$3*
1,1,$1+$1,$4,$5*
1,1,$1+$1,$6,$7*
1,1,$1+$1,$8,$9*
0 Add four rect primitives between the rounded corners*
20,1,$1+$1,$2,$3,$4,$5,0*
20,1,$1+$1,$4,$5,$6,$7,0*
20,1,$1+$1,$6,$7,$8,$9,0*
20,1,$1+$1,$8,$9,$2,$3,0*%
%AMFreePoly0*
4,1,6,0.450000,-0.800000,-0.450000,-0.800000,-0.450000,0.530000,-0.180000,0.800000,0.450000,0.800000,0.450000,-0.800000,0.450000,-0.800000,$1*%
%AMFreePoly1*
4,1,48,0.036020,0.199191,0.037970,0.199714,0.040958,0.198321,0.057086,0.195477,0.069630,0.184951,0.084467,0.178033,0.290533,-0.028033,0.293203,-0.031847,0.294953,-0.032857,0.296081,-0.035957,0.305473,-0.049370,0.306900,-0.065680,0.312500,-0.081066,0.312500,-0.125000,0.310782,-0.134742,0.311361,-0.138024,0.309695,-0.140910,0.307977,-0.150652,0.295451,-0.165579,0.285709,-0.182453,
0.279350,-0.184767,0.275000,-0.189952,0.255809,-0.193336,0.237500,-0.200000,-0.237500,-0.200000,-0.247242,-0.198282,-0.250524,-0.198861,-0.253410,-0.197195,-0.263152,-0.195477,-0.278079,-0.182951,-0.294953,-0.173209,-0.297267,-0.166850,-0.302452,-0.162500,-0.305836,-0.143309,-0.312500,-0.125000,-0.312500,0.125000,-0.310782,0.134742,-0.311361,0.138024,-0.309695,0.140910,-0.307977,0.150652,
-0.295451,0.165579,-0.285709,0.182453,-0.279350,0.184767,-0.275000,0.189952,-0.255809,0.193336,-0.237500,0.200000,0.031434,0.200000,0.036020,0.199191,0.036020,0.199191,$1*%
%AMFreePoly2*
4,1,48,0.247242,0.198282,0.250524,0.198861,0.253410,0.197195,0.263152,0.195477,0.278079,0.182951,0.294953,0.173209,0.297267,0.166850,0.302452,0.162500,0.305836,0.143309,0.312500,0.125000,0.312500,0.081066,0.311691,0.076480,0.312214,0.074529,0.310820,0.071540,0.307977,0.055414,0.297452,0.042871,0.290533,0.028033,0.084467,-0.178033,0.080653,-0.180703,0.079643,-0.182453,
0.076543,-0.183581,0.063130,-0.192973,0.046819,-0.194400,0.031434,-0.200000,-0.237500,-0.200000,-0.247242,-0.198282,-0.250524,-0.198861,-0.253410,-0.197195,-0.263152,-0.195477,-0.278079,-0.182951,-0.294953,-0.173209,-0.297267,-0.166850,-0.302452,-0.162500,-0.305836,-0.143309,-0.312500,-0.125000,-0.312500,0.125000,-0.310782,0.134742,-0.311361,0.138024,-0.309695,0.140910,-0.307977,0.150652,
-0.295451,0.165579,-0.285709,0.182453,-0.279350,0.184767,-0.275000,0.189952,-0.255809,0.193336,-0.237500,0.200000,0.237500,0.200000,0.247242,0.198282,0.247242,0.198282,$1*%
%AMFreePoly3*
4,1,48,0.134742,0.310782,0.138024,0.311361,0.140910,0.309695,0.150652,0.307977,0.165579,0.295451,0.182453,0.285709,0.184767,0.279350,0.189952,0.275000,0.193336,0.255809,0.200000,0.237500,0.200000,-0.237500,0.198282,-0.247242,0.198861,-0.250524,0.197195,-0.253410,0.195477,-0.263152,0.182951,-0.278079,0.173209,-0.294953,0.166850,-0.297267,0.162500,-0.302452,0.143309,-0.305836,
0.125000,-0.312500,-0.125000,-0.312500,-0.134742,-0.310782,-0.138024,-0.311361,-0.140910,-0.309695,-0.150652,-0.307977,-0.165579,-0.295451,-0.182453,-0.285709,-0.184767,-0.279350,-0.189952,-0.275000,-0.193336,-0.255809,-0.200000,-0.237500,-0.200000,0.031434,-0.199191,0.036020,-0.199714,0.037970,-0.198321,0.040958,-0.195477,0.057086,-0.184951,0.069630,-0.178033,0.084467,0.028033,0.290533,
0.031847,0.293203,0.032857,0.294953,0.035957,0.296081,0.049370,0.305473,0.065680,0.306900,0.081066,0.312500,0.125000,0.312500,0.134742,0.310782,0.134742,0.310782,$1*%
%AMFreePoly4*
4,1,48,-0.076480,0.311691,-0.074530,0.312214,-0.071542,0.310821,-0.055414,0.307977,-0.042870,0.297451,-0.028033,0.290533,0.178033,0.084467,0.180703,0.080653,0.182453,0.079643,0.183581,0.076543,0.192973,0.063130,0.194400,0.046820,0.200000,0.031434,0.200000,-0.237500,0.198282,-0.247242,0.198861,-0.250524,0.197195,-0.253410,0.195477,-0.263152,0.182951,-0.278079,0.173209,-0.294953,
0.166850,-0.297267,0.162500,-0.302452,0.143309,-0.305836,0.125000,-0.312500,-0.125000,-0.312500,-0.134742,-0.310782,-0.138024,-0.311361,-0.140910,-0.309695,-0.150652,-0.307977,-0.165579,-0.295451,-0.182453,-0.285709,-0.184767,-0.279350,-0.189952,-0.275000,-0.193336,-0.255809,-0.200000,-0.237500,-0.200000,0.237500,-0.198282,0.247242,-0.198861,0.250524,-0.197195,0.253410,-0.195477,0.263152,
-0.182951,0.278079,-0.173209,0.294953,-0.166850,0.297267,-0.162500,0.302452,-0.143309,0.305836,-0.125000,0.312500,-0.081066,0.312500,-0.076480,0.311691,-0.076480,0.311691,$1*%
%AMFreePoly5*
4,1,48,0.247242,0.198282,0.250524,0.198861,0.253410,0.197195,0.263152,0.195477,0.278079,0.182951,0.294953,0.173209,0.297267,0.166850,0.302452,0.162500,0.305836,0.143309,0.312500,0.125000,0.312500,-0.125000,0.310782,-0.134742,0.311361,-0.138024,0.309695,-0.140910,0.307977,-0.150652,0.295451,-0.165579,0.285709,-0.182453,0.279350,-0.184767,0.275000,-0.189952,0.255809,-0.193336,
0.237500,-0.200000,-0.031434,-0.200000,-0.036020,-0.199191,-0.037971,-0.199714,-0.040960,-0.198320,-0.057086,-0.195477,-0.069629,-0.184952,-0.084467,-0.178033,-0.290533,0.028033,-0.293203,0.031847,-0.294953,0.032857,-0.296081,0.035957,-0.305473,0.049370,-0.306900,0.065681,-0.312500,0.081066,-0.312500,0.125000,-0.310782,0.134742,-0.311361,0.138024,-0.309695,0.140910,-0.307977,0.150652,
-0.295451,0.165579,-0.285709,0.182453,-0.279350,0.184767,-0.275000,0.189952,-0.255809,0.193336,-0.237500,0.200000,0.237500,0.200000,0.247242,0.198282,0.247242,0.198282,$1*%
%AMFreePoly6*
4,1,48,0.247242,0.198282,0.250524,0.198861,0.253410,0.197195,0.263152,0.195477,0.278079,0.182951,0.294953,0.173209,0.297267,0.166850,0.302452,0.162500,0.305836,0.143309,0.312500,0.125000,0.312500,-0.125000,0.310782,-0.134742,0.311361,-0.138024,0.309695,-0.140910,0.307977,-0.150652,0.295451,-0.165579,0.285709,-0.182453,0.279350,-0.184767,0.275000,-0.189952,0.255809,-0.193336,
0.237500,-0.200000,-0.237500,-0.200000,-0.247242,-0.198282,-0.250524,-0.198861,-0.253410,-0.197195,-0.263152,-0.195477,-0.278079,-0.182951,-0.294953,-0.173209,-0.297267,-0.166850,-0.302452,-0.162500,-0.305836,-0.143309,-0.312500,-0.125000,-0.312500,-0.081066,-0.311691,-0.076480,-0.312214,-0.074530,-0.310821,-0.071542,-0.307977,-0.055414,-0.297451,-0.042870,-0.290533,-0.028033,-0.084467,0.178033,
-0.080653,0.180703,-0.079643,0.182453,-0.076543,0.183581,-0.063130,0.192973,-0.046820,0.194400,-0.031434,0.200000,0.237500,0.200000,0.247242,0.198282,0.247242,0.198282,$1*%
%AMFreePoly7*
4,1,48,0.134742,0.310782,0.138024,0.311361,0.140910,0.309695,0.150652,0.307977,0.165579,0.295451,0.182453,0.285709,0.184767,0.279350,0.189952,0.275000,0.193336,0.255809,0.200000,0.237500,0.200000,-0.031434,0.199191,-0.036020,0.199714,-0.037971,0.198320,-0.040960,0.195477,-0.057086,0.184952,-0.069629,0.178033,-0.084467,-0.028033,-0.290533,-0.031847,-0.293203,-0.032857,-0.294953,
-0.035957,-0.296081,-0.049370,-0.305473,-0.065681,-0.306900,-0.081066,-0.312500,-0.125000,-0.312500,-0.134742,-0.310782,-0.138024,-0.311361,-0.140910,-0.309695,-0.150652,-0.307977,-0.165579,-0.295451,-0.182453,-0.285709,-0.184767,-0.279350,-0.189952,-0.275000,-0.193336,-0.255809,-0.200000,-0.237500,-0.200000,0.237500,-0.198282,0.247242,-0.198861,0.250524,-0.197195,0.253410,-0.195477,0.263152,
-0.182951,0.278079,-0.173209,0.294953,-0.166850,0.297267,-0.162500,0.302452,-0.143309,0.305836,-0.125000,0.312500,0.125000,0.312500,0.134742,0.310782,0.134742,0.310782,$1*%
%AMFreePoly8*
4,1,48,0.134742,0.310782,0.138024,0.311361,0.140910,0.309695,0.150652,0.307977,0.165579,0.295451,0.182453,0.285709,0.184767,0.279350,0.189952,0.275000,0.193336,0.255809,0.200000,0.237500,0.200000,-0.237500,0.198282,-0.247242,0.198861,-0.250524,0.197195,-0.253410,0.195477,-0.263152,0.182951,-0.278079,0.173209,-0.294953,0.166850,-0.297267,0.162500,-0.302452,0.143309,-0.305836,
0.125000,-0.312500,0.081066,-0.312500,0.076480,-0.311691,0.074529,-0.312214,0.071540,-0.310820,0.055414,-0.307977,0.042871,-0.297452,0.028033,-0.290533,-0.178033,-0.084467,-0.180703,-0.080653,-0.182453,-0.079643,-0.183581,-0.076543,-0.192973,-0.063130,-0.194400,-0.046819,-0.200000,-0.031434,-0.200000,0.237500,-0.198282,0.247242,-0.198861,0.250524,-0.197195,0.253410,-0.195477,0.263152,
-0.182951,0.278079,-0.173209,0.294953,-0.166850,0.297267,-0.162500,0.302452,-0.143309,0.305836,-0.125000,0.312500,0.125000,0.312500,0.134742,0.310782,0.134742,0.310782,$1*%
G04 Aperture macros list end*
%ADD10RoundRect,0.150000X-0.625000X0.150000X-0.625000X-0.150000X0.625000X-0.150000X0.625000X0.150000X0*%
%ADD11RoundRect,0.250000X-0.650000X0.350000X-0.650000X-0.350000X0.650000X-0.350000X0.650000X0.350000X0*%
%ADD12RoundRect,0.250000X-0.475000X0.250000X-0.475000X-0.250000X0.475000X-0.250000X0.475000X0.250000X0*%
%ADD13RoundRect,0.250000X0.475000X-0.250000X0.475000X0.250000X-0.475000X0.250000X-0.475000X-0.250000X0*%
%ADD14RoundRect,0.250000X-0.450000X0.350000X-0.450000X-0.350000X0.450000X-0.350000X0.450000X0.350000X0*%
%ADD15RoundRect,0.250000X-0.250000X-0.475000X0.250000X-0.475000X0.250000X0.475000X-0.250000X0.475000X0*%
%ADD16RoundRect,0.250000X-0.350000X-0.450000X0.350000X-0.450000X0.350000X0.450000X-0.350000X0.450000X0*%
%ADD17R,1.900000X1.100000*%
%ADD18RoundRect,0.250000X0.250000X0.475000X-0.250000X0.475000X-0.250000X-0.475000X0.250000X-0.475000X0*%
%ADD19RoundRect,0.250000X0.000000X-0.445477X0.445477X0.000000X0.000000X0.445477X-0.445477X0.000000X0*%
%ADD20RoundRect,0.050000X-0.238649X-0.309359X0.309359X0.238649X0.238649X0.309359X-0.309359X-0.238649X0*%
%ADD21RoundRect,0.050000X0.238649X-0.309359X0.309359X-0.238649X-0.238649X0.309359X-0.309359X0.238649X0*%
%ADD22RoundRect,0.250000X0.450000X-0.262500X0.450000X0.262500X-0.450000X0.262500X-0.450000X-0.262500X0*%
%ADD23RoundRect,0.250000X-0.262500X-0.450000X0.262500X-0.450000X0.262500X0.450000X-0.262500X0.450000X0*%
%ADD24FreePoly0,90.000000*%
%ADD25R,0.250000X0.550000*%
%ADD26R,1.100000X2.250000*%
%ADD27R,1.050000X1.100000*%
%ADD28RoundRect,0.250000X0.337500X0.475000X-0.337500X0.475000X-0.337500X-0.475000X0.337500X-0.475000X0*%
%ADD29RoundRect,0.250000X-0.375000X-1.075000X0.375000X-1.075000X0.375000X1.075000X-0.375000X1.075000X0*%
%ADD30RoundRect,0.150000X-0.825000X-0.150000X0.825000X-0.150000X0.825000X0.150000X-0.825000X0.150000X0*%
%ADD31R,1.400000X2.100000*%
%ADD32RoundRect,0.150000X0.150000X-0.587500X0.150000X0.587500X-0.150000X0.587500X-0.150000X-0.587500X0*%
%ADD33RoundRect,0.250000X0.450000X-0.350000X0.450000X0.350000X-0.450000X0.350000X-0.450000X-0.350000X0*%
%ADD34RoundRect,0.218750X0.381250X-0.218750X0.381250X0.218750X-0.381250X0.218750X-0.381250X-0.218750X0*%
%ADD35RoundRect,0.124800X-0.475200X-0.275200X0.475200X-0.275200X0.475200X0.275200X-0.475200X0.275200X0*%
%ADD36R,25.500000X0.400000*%
%ADD37R,0.400000X20.500000*%
%ADD38RoundRect,0.100000X-0.100000X-0.550000X0.100000X-0.550000X0.100000X0.550000X-0.100000X0.550000X0*%
%ADD39RoundRect,0.262500X0.737500X0.262500X-0.737500X0.262500X-0.737500X-0.262500X0.737500X-0.262500X0*%
%ADD40RoundRect,0.100000X0.100000X0.550000X-0.100000X0.550000X-0.100000X-0.550000X0.100000X-0.550000X0*%
%ADD41RoundRect,0.250000X0.262500X0.450000X-0.262500X0.450000X-0.262500X-0.450000X0.262500X-0.450000X0*%
%ADD42RoundRect,0.066000X-0.404000X-0.154000X0.404000X-0.154000X0.404000X0.154000X-0.404000X0.154000X0*%
%ADD43RoundRect,0.218750X-0.218750X-0.381250X0.218750X-0.381250X0.218750X0.381250X-0.218750X0.381250X0*%
%ADD44R,0.400000X5.700000*%
%ADD45R,0.500000X0.500000*%
%ADD46R,25.400000X0.400000*%
%ADD47R,0.400000X13.300000*%
%ADD48RoundRect,0.041300X0.948700X0.253700X-0.948700X0.253700X-0.948700X-0.253700X0.948700X-0.253700X0*%
%ADD49FreePoly1,270.000000*%
%ADD50RoundRect,0.087500X-0.087500X0.225000X-0.087500X-0.225000X0.087500X-0.225000X0.087500X0.225000X0*%
%ADD51FreePoly2,270.000000*%
%ADD52FreePoly3,270.000000*%
%ADD53RoundRect,0.087500X-0.225000X0.087500X-0.225000X-0.087500X0.225000X-0.087500X0.225000X0.087500X0*%
%ADD54FreePoly4,270.000000*%
%ADD55FreePoly5,270.000000*%
%ADD56FreePoly6,270.000000*%
%ADD57FreePoly7,270.000000*%
%ADD58FreePoly8,270.000000*%
%ADD59R,1.000000X1.300000*%
G04 APERTURE END LIST*
D10*
%TO.C,I2C2*%
X121140000Y-97050000D03*
X121140000Y-98050000D03*
X121140000Y-99050000D03*
X121140000Y-100050000D03*
D11*
X117265000Y-101350000D03*
X117265000Y-95750000D03*
%TD*%
D10*
%TO.C,J3*%
X121080000Y-91840000D03*
X121080000Y-92840000D03*
D11*
X117205000Y-90540000D03*
X117205000Y-94140000D03*
%TD*%
D12*
%TO.C,EC20*%
X132490000Y-103590000D03*
X132490000Y-105490000D03*
%TD*%
D13*
%TO.C,EC18*%
X142960000Y-107490000D03*
X142960000Y-105590000D03*
%TD*%
D12*
%TO.C,AUC1*%
X146860000Y-105450000D03*
X146860000Y-107350000D03*
%TD*%
D14*
%TO.C,AR1*%
X160690000Y-89850000D03*
X160690000Y-91850000D03*
%TD*%
D15*
%TO.C,EC25*%
X149140000Y-102010000D03*
X151040000Y-102010000D03*
%TD*%
D16*
%TO.C,LR1*%
X141040000Y-86810000D03*
X143040000Y-86810000D03*
%TD*%
D17*
%TO.C,ECY3*%
X132270000Y-95662500D03*
X135970000Y-95662500D03*
X135970000Y-93362500D03*
X132270000Y-93362500D03*
%TD*%
D18*
%TO.C,EC60*%
X133430000Y-91730000D03*
X131530000Y-91730000D03*
%TD*%
%TO.C,EC61*%
X133530000Y-97350000D03*
X131630000Y-97350000D03*
%TD*%
D19*
%TO.C,ESP32S3*%
X138470152Y-100459949D03*
X138470152Y-98480051D03*
X140450051Y-100459949D03*
X142429950Y-100459949D03*
X139460102Y-97490101D03*
X140450051Y-98480051D03*
X143419899Y-99470000D03*
X141440000Y-101449899D03*
X142429950Y-98480051D03*
X141440000Y-99470000D03*
X137480203Y-99470000D03*
X141440000Y-97490101D03*
X140450051Y-102439848D03*
X139460102Y-101449899D03*
X140450051Y-96500152D03*
X139460102Y-99470000D03*
D20*
X136180894Y-100062202D03*
X136463737Y-100345045D03*
X136746579Y-100627887D03*
X137029422Y-100910730D03*
X137312265Y-101193573D03*
X137595107Y-101476415D03*
X137877950Y-101759258D03*
X138160793Y-102042101D03*
X138443636Y-102324944D03*
X138726478Y-102607786D03*
X139009321Y-102890629D03*
X139292164Y-103173472D03*
X139575006Y-103456314D03*
X139857849Y-103739157D03*
D21*
X141042253Y-103739157D03*
X141325096Y-103456314D03*
X141607938Y-103173472D03*
X141890781Y-102890629D03*
X142173624Y-102607786D03*
X142456466Y-102324944D03*
X142739309Y-102042101D03*
X143022152Y-101759258D03*
X143304995Y-101476415D03*
X143587837Y-101193573D03*
X143870680Y-100910730D03*
X144153523Y-100627887D03*
X144436365Y-100345045D03*
X144719208Y-100062202D03*
D20*
X144719208Y-98877798D03*
X144436365Y-98594955D03*
X144153523Y-98312113D03*
X143870680Y-98029270D03*
X143587837Y-97746427D03*
X143304995Y-97463585D03*
X143022152Y-97180742D03*
X142739309Y-96897899D03*
X142456466Y-96615056D03*
X142173624Y-96332214D03*
X141890781Y-96049371D03*
X141607938Y-95766528D03*
X141325096Y-95483686D03*
X141042253Y-95200843D03*
D21*
X139857849Y-95200843D03*
X139575006Y-95483686D03*
X139292164Y-95766528D03*
X139009321Y-96049371D03*
X138726478Y-96332214D03*
X138443636Y-96615056D03*
X138160793Y-96897899D03*
X137877950Y-97180742D03*
X137595107Y-97463585D03*
X137312265Y-97746427D03*
X137029422Y-98029270D03*
X136746579Y-98312113D03*
X136463737Y-98594955D03*
X136180894Y-98877798D03*
%TD*%
D22*
%TO.C,ER1*%
X138220000Y-107655000D03*
X138220000Y-105830000D03*
%TD*%
D23*
%TO.C,ER3*%
X121537500Y-90270000D03*
X123362500Y-90270000D03*
%TD*%
D15*
%TO.C,EC38*%
X126240000Y-105320000D03*
X128140000Y-105320000D03*
%TD*%
D13*
%TO.C,SHC1*%
X160450000Y-107710000D03*
X160450000Y-105810000D03*
%TD*%
D22*
%TO.C,PSR1*%
X145540000Y-91372500D03*
X145540000Y-89547500D03*
%TD*%
D24*
%TO.C,SH1*%
X157760000Y-107460000D03*
D25*
X157010000Y-108635000D03*
X157510000Y-108635000D03*
X158010000Y-108635000D03*
X158510000Y-108635000D03*
X158510000Y-106285000D03*
X158010000Y-106285000D03*
X157510000Y-106285000D03*
X157010000Y-106285000D03*
%TD*%
D26*
%TO.C,J20*%
X117020000Y-103460000D03*
X119970000Y-103460000D03*
D27*
X118495000Y-105010000D03*
%TD*%
D15*
%TO.C,EC26*%
X144700000Y-103770000D03*
X146600000Y-103770000D03*
%TD*%
D28*
%TO.C,AC1*%
X154357500Y-87190000D03*
X152282500Y-87190000D03*
%TD*%
D13*
%TO.C,EC40*%
X136280000Y-105520000D03*
X136280000Y-103620000D03*
%TD*%
%TO.C,EC17*%
X144870000Y-107470000D03*
X144870000Y-105570000D03*
%TD*%
D29*
%TO.C,AL1*%
X157020000Y-87400000D03*
X159820000Y-87400000D03*
%TD*%
D30*
%TO.C,EPS1*%
X147715000Y-89825000D03*
X147715000Y-91095000D03*
X147715000Y-92365000D03*
X147715000Y-93635000D03*
X152665000Y-93635000D03*
X152665000Y-92365000D03*
X152665000Y-91095000D03*
X152665000Y-89825000D03*
%TD*%
D23*
%TO.C,ICR1*%
X133087500Y-86890000D03*
X134912500Y-86890000D03*
%TD*%
D31*
%TO.C,ANT1*%
X119040000Y-107880000D03*
X128540000Y-107880000D03*
%TD*%
D15*
%TO.C,EC16*%
X138800000Y-93570000D03*
X140700000Y-93570000D03*
%TD*%
%TO.C,IMUC1*%
X131510000Y-89870000D03*
X133410000Y-89870000D03*
%TD*%
D32*
%TO.C,Q5*%
X120040000Y-88397500D03*
X121940000Y-88397500D03*
X120990000Y-86522500D03*
%TD*%
D13*
%TO.C,EC51*%
X143720000Y-91650000D03*
X143720000Y-89750000D03*
%TD*%
D15*
%TO.C,EC15*%
X131750000Y-101070000D03*
X133650000Y-101070000D03*
%TD*%
D23*
%TO.C,IDR1*%
X137367500Y-86900000D03*
X139192500Y-86900000D03*
%TD*%
D33*
%TO.C,QR1*%
X118350000Y-88780000D03*
X118350000Y-86780000D03*
%TD*%
D34*
%TO.C,L2*%
X134480000Y-105672500D03*
X134480000Y-103547500D03*
%TD*%
D28*
%TO.C,AC2*%
X158987500Y-95470000D03*
X156912500Y-95470000D03*
%TD*%
D35*
%TO.C,LED1*%
X145230000Y-87700000D03*
X148410000Y-87710000D03*
X145230000Y-86560000D03*
X148420000Y-86590000D03*
%TD*%
D18*
%TO.C,EC19*%
X134380000Y-107260000D03*
X132480000Y-107260000D03*
%TD*%
D36*
%TO.C,*%
X142930000Y-108670000D03*
%TD*%
D15*
%TO.C,EC14*%
X131880000Y-99220000D03*
X133780000Y-99220000D03*
%TD*%
D37*
%TO.C,REF\u002A\u002A*%
X155530000Y-98650000D03*
%TD*%
D38*
%TO.C,AU1*%
X158440000Y-90290000D03*
X157500000Y-90295000D03*
D39*
X157475000Y-92010000D03*
D38*
X156515000Y-90295000D03*
D40*
X156545000Y-93685000D03*
X157460000Y-93680000D03*
X158420000Y-93680000D03*
%TD*%
D41*
%TO.C,EXP_R3*%
X128342500Y-97680000D03*
X126517500Y-97680000D03*
%TD*%
D13*
%TO.C,EC50*%
X138620000Y-91750000D03*
X138620000Y-89850000D03*
%TD*%
D42*
%TO.C,ESP_FLASH1*%
X146395000Y-95755000D03*
X146395000Y-97025000D03*
X146395000Y-98295000D03*
X146395000Y-99565000D03*
X154185000Y-99565000D03*
X154185000Y-98295000D03*
X154185000Y-97025000D03*
X154185000Y-95755000D03*
%TD*%
D41*
%TO.C,EXP_R4*%
X128232500Y-100180000D03*
X126407500Y-100180000D03*
%TD*%
D13*
%TO.C,EC37*%
X122320000Y-103910000D03*
X122320000Y-102010000D03*
%TD*%
D43*
%TO.C,EL4*%
X122087500Y-105430000D03*
X124212500Y-105430000D03*
%TD*%
D14*
%TO.C,AR2*%
X160750000Y-93460000D03*
X160750000Y-95460000D03*
%TD*%
D44*
%TO.C,*%
X130430000Y-105980000D03*
%TD*%
D41*
%TO.C,EXP_R2*%
X128402500Y-95870000D03*
X126577500Y-95870000D03*
%TD*%
D45*
%TO.C,REF\u002A\u002A*%
X118765000Y-105305000D03*
X119390000Y-105310000D03*
%TD*%
D41*
%TO.C,EXP_R1*%
X128422500Y-94050000D03*
X126597500Y-94050000D03*
%TD*%
D46*
%TO.C,*%
X142890000Y-88610000D03*
%TD*%
D47*
%TO.C,REF\u002A\u002A*%
X130430000Y-95190000D03*
%TD*%
D48*
%TO.C,U2*%
X153870000Y-107585000D03*
X153870000Y-106315000D03*
X153870000Y-105045000D03*
X153870000Y-103775000D03*
X148930000Y-103775000D03*
X148930000Y-105045000D03*
X148930000Y-106315000D03*
X148930000Y-107585000D03*
%TD*%
D49*
%TO.C,IMU1*%
X136760000Y-89667500D03*
D50*
X136260000Y-89667500D03*
X135760000Y-89667500D03*
D51*
X135260000Y-89667500D03*
D52*
X135097500Y-90330000D03*
D53*
X135097500Y-90830000D03*
D54*
X135097500Y-91330000D03*
D55*
X135260000Y-91992500D03*
D50*
X135760000Y-91992500D03*
X136260000Y-91992500D03*
D56*
X136760000Y-91992500D03*
D57*
X136922500Y-91330000D03*
D53*
X136922500Y-90830000D03*
D58*
X136922500Y-90330000D03*
%TD*%
D23*
%TO.C,ER2*%
X126607500Y-91900000D03*
X128432500Y-91900000D03*
%TD*%
D18*
%TO.C,EC24*%
X154350000Y-101980000D03*
X152450000Y-101980000D03*
%TD*%
D59*
%TO.C,ECY2*%
X142060000Y-92000000D03*
X142060000Y-89800000D03*
X140260000Y-89800000D03*
X140260000Y-92000000D03*
%TD*%
M02*
