M48
; DRILL file {KiCad (6.0.7)} date Fri Nov  4 16:49:28 2022
; FORMAT={-:-/ absolute / inch / decimal}
; #@! TF.CreationDate,2022-11-04T16:49:28+01:00
; #@! TF.GenerationSoftware,Kicad,Pcbnew,(6.0.7)
; #@! TF.FileFunction,Plated,1,2,PTH
FMAT,2
INCH
; #@! TA.AperFunction,Plated,PTH,ViaDrill
T1C0.0157
; #@! TA.AperFunction,Plated,PTH,ComponentDrill
T2C0.0197
; #@! TA.AperFunction,Plated,PTH,ComponentDrill
T3C0.0256
%
G90
G05
T1
X4.6232Y-3.9035
X4.7024Y-3.5516
X4.7189Y-3.8949
X4.7374Y-3.5728
X4.7791Y-3.7756
X4.9028Y-3.5563
X4.9343Y-3.515
X4.9433Y-3.5898
X4.972Y-3.5642
X5.011Y-3.5661
X5.0547Y-3.8945
X5.0587Y-3.5669
X5.1028Y-3.8921
X5.1035Y-3.8035
X5.1264Y-3.3941
X5.1343Y-4.0665
X5.1354Y-4.2791
X5.1362Y-3.9961
X5.1386Y-3.4933
X5.139Y-3.7504
X5.1622Y-3.4539
X5.2004Y-3.4547
X5.2142Y-4.0138
X5.2469Y-4.1874
X5.2909Y-3.535
X5.2949Y-3.7504
X5.3291Y-3.4882
X5.3417Y-3.9087
X5.3465Y-3.4496
X5.3539Y-3.8114
X5.3547Y-3.5748
X5.363Y-4.0043
X5.3669Y-4.1917
X5.3846Y-4.0236
X5.4071Y-4.0469
X5.4075Y-3.7201
X5.4106Y-3.6843
X5.411Y-3.5331
X5.4114Y-3.6252
X5.4209Y-3.5756
X5.4311Y-4.0831
X5.4335Y-3.4524
X5.4346Y-4.1189
X5.4374Y-3.8957
X5.4583Y-3.7413
X5.4594Y-3.4894
X5.4744Y-4.1232
X5.4807Y-3.85
X5.4866Y-4.1909
X5.4894Y-3.9531
X5.502Y-3.722
X5.515Y-4.111
X5.5299Y-3.7949
X5.5366Y-3.9
X5.5437Y-4.0106
X5.5555Y-3.576
X5.5709Y-3.7138
X5.5748Y-3.461
X5.5776Y-4.1949
X5.578Y-4.1646
X5.585Y-3.8484
X5.5917Y-3.4894
X5.5917Y-3.6657
X5.5917Y-3.9567
X5.6157Y-4.0744
X5.6409Y-3.9067
X5.6461Y-4.0661
X5.6669Y-4.0421
X5.6717Y-3.4516
X5.6736Y-3.6488
X5.7043Y-3.6366
X5.722Y-3.7878
X5.7335Y-3.7209
X5.7343Y-3.6535
X5.7425Y-4.1272
X5.7433Y-4.2264
X5.75Y-4.2516
X5.7795Y-3.9657
X5.7941Y-3.4571
X5.8102Y-4.0594
X5.8339Y-3.7768
X5.85Y-3.922
X5.8724Y-3.9461
X5.8894Y-3.435
X5.9236Y-3.7661
X5.9256Y-4.0921
X5.9264Y-4.1362
X5.9791Y-4.1657
X5.9807Y-3.7173
X5.9972Y-3.4858
X6.0043Y-4.0594
X6.0217Y-3.7378
X6.0606Y-3.7398
X6.1114Y-3.3902
X6.1157Y-3.4492
X6.152Y-4.1756
X6.1528Y-4.2425
X6.2657Y-4.2445
X6.2697Y-4.1697
X6.2728Y-3.8661
X6.2756Y-3.6488
X6.3425Y-3.4858
T3
X4.8545Y-3.6348
X4.8545Y-3.6848
X4.8545Y-3.7348
X4.8545Y-3.7848
X4.8545Y-3.8348
X4.8545Y-3.8848
X4.9045Y-3.6348
X4.9045Y-3.6848
X4.9045Y-3.7348
X4.9045Y-3.7848
X4.9045Y-3.8348
X4.9045Y-3.8848
T2
G00X6.1669Y-3.8252
M15
G01X6.1945Y-3.8252
M16
G05
G00X6.1673Y-4.1083
M15
G01X6.1949Y-4.1083
M16
G05
G00X6.3039Y-3.8244
M15
G01X6.3315Y-3.8244
M16
G05
G00X6.3039Y-4.1087
M15
G01X6.3315Y-4.1087
M16
G05
T0
M30
