%TF.GenerationSoftware,KiCad,Pcbnew,(6.0.7)*%
%TF.CreationDate,2022-11-04T16:49:25+01:00*%
%TF.ProjectId,LDAD ATOM PRO,4c444144-2041-4544-9f4d-2050524f2e6b,5.3*%
%TF.SameCoordinates,Original*%
%TF.FileFunction,Legend,Top*%
%TF.FilePolarity,Positive*%
%FSLAX46Y46*%
G04 Gerber Fmt 4.6, Leading zero omitted, Abs format (unit mm)*
G04 Created by KiCad (PCBNEW (6.0.7)) date 2022-11-04 16:49:25*
%MOMM*%
%LPD*%
G01*
G04 APERTURE LIST*
%ADD10C,0.280000*%
%ADD11C,0.340000*%
%ADD12C,0.150000*%
%ADD13C,0.120000*%
%ADD14C,0.127000*%
%ADD15C,0.381000*%
%ADD16C,0.300000*%
%ADD17C,0.200000*%
G04 APERTURE END LIST*
D10*
X152501050Y-107610000D02*
G75*
G03*
X152501050Y-107610000I-191050J0D01*
G01*
D11*
X147470799Y-86590000D02*
G75*
G03*
X147470799Y-86590000I-250799J0D01*
G01*
D10*
X149671050Y-89850000D02*
G75*
G03*
X149671050Y-89850000I-191050J0D01*
G01*
X137931050Y-89150000D02*
G75*
G03*
X137931050Y-89150000I-191050J0D01*
G01*
X156248694Y-108268951D02*
G75*
G03*
X156248694Y-108268951I-218694J0D01*
G01*
X159351050Y-101590000D02*
G75*
G03*
X159351050Y-101590000I-191050J0D01*
G01*
X145951050Y-94970000D02*
G75*
G03*
X145951050Y-94970000I-191050J0D01*
G01*
X135361050Y-99730000D02*
G75*
G03*
X135361050Y-99730000I-191050J0D01*
G01*
X159501050Y-90160000D02*
G75*
G03*
X159501050Y-90160000I-191050J0D01*
G01*
X137771050Y-95630000D02*
G75*
G03*
X137771050Y-95630000I-191050J0D01*
G01*
D12*
X121460000Y-108016666D02*
X121793333Y-108016666D01*
X121393333Y-108216666D02*
X121626666Y-107516666D01*
X121860000Y-108216666D01*
X122093333Y-108216666D02*
X122093333Y-107516666D01*
X122493333Y-108216666D01*
X122493333Y-107516666D01*
X122726666Y-107516666D02*
X123126666Y-107516666D01*
X122926666Y-108216666D02*
X122926666Y-107516666D01*
X123360000Y-107850000D02*
X123593333Y-107850000D01*
X123693333Y-108216666D02*
X123360000Y-108216666D01*
X123360000Y-107516666D01*
X123693333Y-107516666D01*
X123993333Y-108216666D02*
X123993333Y-107516666D01*
X124393333Y-108216666D01*
X124393333Y-107516666D01*
X124726666Y-108216666D02*
X124726666Y-107516666D01*
X125126666Y-108216666D01*
X125126666Y-107516666D01*
X125426666Y-108016666D02*
X125760000Y-108016666D01*
X125360000Y-108216666D02*
X125593333Y-107516666D01*
X125826666Y-108216666D01*
X149673333Y-85866666D02*
X150106666Y-85866666D01*
X149873333Y-86133333D01*
X149973333Y-86133333D01*
X150040000Y-86166666D01*
X150073333Y-86200000D01*
X150106666Y-86266666D01*
X150106666Y-86433333D01*
X150073333Y-86500000D01*
X150040000Y-86533333D01*
X149973333Y-86566666D01*
X149773333Y-86566666D01*
X149706666Y-86533333D01*
X149673333Y-86500000D01*
X150306666Y-85866666D02*
X150540000Y-86566666D01*
X150773333Y-85866666D01*
X150940000Y-85866666D02*
X151373333Y-85866666D01*
X151140000Y-86133333D01*
X151240000Y-86133333D01*
X151306666Y-86166666D01*
X151340000Y-86200000D01*
X151373333Y-86266666D01*
X151373333Y-86433333D01*
X151340000Y-86500000D01*
X151306666Y-86533333D01*
X151240000Y-86566666D01*
X151040000Y-86566666D01*
X150973333Y-86533333D01*
X150940000Y-86500000D01*
X125816666Y-101780000D02*
X125750000Y-101746666D01*
X125650000Y-101746666D01*
X125550000Y-101780000D01*
X125483333Y-101846666D01*
X125450000Y-101913333D01*
X125416666Y-102046666D01*
X125416666Y-102146666D01*
X125450000Y-102280000D01*
X125483333Y-102346666D01*
X125550000Y-102413333D01*
X125650000Y-102446666D01*
X125716666Y-102446666D01*
X125816666Y-102413333D01*
X125850000Y-102380000D01*
X125850000Y-102146666D01*
X125716666Y-102146666D01*
X126150000Y-102446666D02*
X126150000Y-101746666D01*
X126550000Y-102446666D01*
X126550000Y-101746666D01*
X126883333Y-102446666D02*
X126883333Y-101746666D01*
X127050000Y-101746666D01*
X127150000Y-101780000D01*
X127216666Y-101846666D01*
X127250000Y-101913333D01*
X127283333Y-102046666D01*
X127283333Y-102146666D01*
X127250000Y-102280000D01*
X127216666Y-102346666D01*
X127150000Y-102413333D01*
X127050000Y-102446666D01*
X126883333Y-102446666D01*
X117273333Y-88143333D02*
X117273333Y-87810000D01*
X116940000Y-87776666D01*
X116973333Y-87810000D01*
X117006666Y-87876666D01*
X117006666Y-88043333D01*
X116973333Y-88110000D01*
X116940000Y-88143333D01*
X116873333Y-88176666D01*
X116706666Y-88176666D01*
X116640000Y-88143333D01*
X116606666Y-88110000D01*
X116573333Y-88043333D01*
X116573333Y-87876666D01*
X116606666Y-87810000D01*
X116640000Y-87776666D01*
X117273333Y-88376666D02*
X116573333Y-88610000D01*
X117273333Y-88843333D01*
X117273333Y-89210000D02*
X117273333Y-89276666D01*
X117240000Y-89343333D01*
X117206666Y-89376666D01*
X117140000Y-89410000D01*
X117006666Y-89443333D01*
X116840000Y-89443333D01*
X116706666Y-89410000D01*
X116640000Y-89376666D01*
X116606666Y-89343333D01*
X116573333Y-89276666D01*
X116573333Y-89210000D01*
X116606666Y-89143333D01*
X116640000Y-89110000D01*
X116706666Y-89076666D01*
X116840000Y-89043333D01*
X117006666Y-89043333D01*
X117140000Y-89076666D01*
X117206666Y-89110000D01*
X117240000Y-89143333D01*
X117273333Y-89210000D01*
%TO.C,*%
%TO.C,I2C2*%
X118052380Y-100002380D02*
X117052380Y-100002380D01*
X117147619Y-99573809D02*
X117100000Y-99526190D01*
X117052380Y-99430952D01*
X117052380Y-99192857D01*
X117100000Y-99097619D01*
X117147619Y-99050000D01*
X117242857Y-99002380D01*
X117338095Y-99002380D01*
X117480952Y-99050000D01*
X118052380Y-99621428D01*
X118052380Y-99002380D01*
X117957142Y-98002380D02*
X118004761Y-98050000D01*
X118052380Y-98192857D01*
X118052380Y-98288095D01*
X118004761Y-98430952D01*
X117909523Y-98526190D01*
X117814285Y-98573809D01*
X117623809Y-98621428D01*
X117480952Y-98621428D01*
X117290476Y-98573809D01*
X117195238Y-98526190D01*
X117100000Y-98430952D01*
X117052380Y-98288095D01*
X117052380Y-98192857D01*
X117100000Y-98050000D01*
X117147619Y-98002380D01*
X117147619Y-97621428D02*
X117100000Y-97573809D01*
X117052380Y-97478571D01*
X117052380Y-97240476D01*
X117100000Y-97145238D01*
X117147619Y-97097619D01*
X117242857Y-97050000D01*
X117338095Y-97050000D01*
X117480952Y-97097619D01*
X118052380Y-97669047D01*
X118052380Y-97050000D01*
%TO.C,J3*%
X116852380Y-92843333D02*
X117566666Y-92843333D01*
X117709523Y-92890952D01*
X117804761Y-92986190D01*
X117852380Y-93129047D01*
X117852380Y-93224285D01*
X116852380Y-92462380D02*
X116852380Y-91843333D01*
X117233333Y-92176666D01*
X117233333Y-92033809D01*
X117280952Y-91938571D01*
X117328571Y-91890952D01*
X117423809Y-91843333D01*
X117661904Y-91843333D01*
X117757142Y-91890952D01*
X117804761Y-91938571D01*
X117852380Y-92033809D01*
X117852380Y-92319523D01*
X117804761Y-92414761D01*
X117757142Y-92462380D01*
%TO.C,*%
D13*
%TO.C,EC20*%
X133225000Y-104278748D02*
X133225000Y-104801252D01*
X131755000Y-104278748D02*
X131755000Y-104801252D01*
%TO.C,EC18*%
X142225000Y-106801252D02*
X142225000Y-106278748D01*
X143695000Y-106801252D02*
X143695000Y-106278748D01*
%TO.C,AUC1*%
X147595000Y-106138748D02*
X147595000Y-106661252D01*
X146125000Y-106138748D02*
X146125000Y-106661252D01*
%TO.C,AR1*%
X161425000Y-90622936D02*
X161425000Y-91077064D01*
X159955000Y-90622936D02*
X159955000Y-91077064D01*
%TO.C,EC25*%
X149828748Y-102745000D02*
X150351252Y-102745000D01*
X149828748Y-101275000D02*
X150351252Y-101275000D01*
%TO.C,LR1*%
X141812936Y-86075000D02*
X142267064Y-86075000D01*
X141812936Y-87545000D02*
X142267064Y-87545000D01*
%TO.C,ECY3*%
X134820000Y-96312500D02*
X133420000Y-96312500D01*
X133420000Y-96312500D02*
X133420000Y-96552500D01*
X133420000Y-92712500D02*
X134820000Y-92712500D01*
X131120000Y-94912500D02*
X131420000Y-94912500D01*
X131420000Y-94912500D02*
X131420000Y-94112500D01*
X136820000Y-94112500D02*
X136820000Y-94912500D01*
%TO.C,EC60*%
X132741252Y-92465000D02*
X132218748Y-92465000D01*
X132741252Y-90995000D02*
X132218748Y-90995000D01*
%TO.C,EC61*%
X132841252Y-96615000D02*
X132318748Y-96615000D01*
X132841252Y-98085000D02*
X132318748Y-98085000D01*
%TO.C,J1*%
X123868471Y-93085000D02*
X124011529Y-93085000D01*
X122175000Y-92325000D02*
X122175000Y-91565000D01*
X123612530Y-99370000D02*
X124267470Y-99370000D01*
X125705000Y-91630000D02*
X125705000Y-99370000D01*
X124065000Y-91630000D02*
X124267470Y-91630000D01*
X122175000Y-91565000D02*
X123305000Y-91565000D01*
X124065000Y-91761529D02*
X124065000Y-91630000D01*
X122175000Y-93085000D02*
X122741529Y-93085000D01*
X124882530Y-91630000D02*
X125705000Y-91630000D01*
X122175000Y-93085000D02*
X122175000Y-99370000D01*
X122175000Y-99370000D02*
X122997470Y-99370000D01*
X124065000Y-93031529D02*
X124065000Y-92888471D01*
X124882530Y-99370000D02*
X125705000Y-99370000D01*
%TO.C,ESP32S3*%
X139990432Y-94824308D02*
X140450051Y-94364689D01*
X140909670Y-104115692D02*
X140450051Y-104575311D01*
X145555362Y-99470000D02*
X145095743Y-99010381D01*
X140450051Y-104575311D02*
X139990432Y-104115692D01*
X135804359Y-99010381D02*
X135344740Y-99470000D01*
X140450051Y-94364689D02*
X140909670Y-94824308D01*
X145095743Y-99929619D02*
X145555362Y-99470000D01*
%TO.C,ER1*%
X138955000Y-106969564D02*
X138955000Y-106515436D01*
X137485000Y-106969564D02*
X137485000Y-106515436D01*
%TO.C,ER3*%
X122222936Y-89535000D02*
X122677064Y-89535000D01*
X122222936Y-91005000D02*
X122677064Y-91005000D01*
%TO.C,EC38*%
X126928748Y-106055000D02*
X127451252Y-106055000D01*
X126928748Y-104585000D02*
X127451252Y-104585000D01*
%TO.C,J2*%
X162620000Y-104360000D02*
X161360000Y-104360000D01*
X162620000Y-97140000D02*
X162620000Y-104360000D01*
X159560000Y-104360000D02*
X157920000Y-104360000D01*
X159560000Y-97140000D02*
X157900000Y-97140000D01*
X161360000Y-97140000D02*
X162620000Y-97140000D01*
%TO.C,SHC1*%
X161185000Y-107021252D02*
X161185000Y-106498748D01*
X159715000Y-107021252D02*
X159715000Y-106498748D01*
%TO.C,PSR1*%
X146275000Y-90687064D02*
X146275000Y-90232936D01*
X144805000Y-90687064D02*
X144805000Y-90232936D01*
%TO.C,SH1*%
X159170000Y-108110000D02*
X159170000Y-106810000D01*
X156350000Y-108550000D02*
X156350000Y-106810000D01*
D14*
%TO.C,J20*%
X119795000Y-102160000D02*
X117195000Y-102160000D01*
D13*
%TO.C,EC26*%
X145388748Y-104505000D02*
X145911252Y-104505000D01*
X145388748Y-103035000D02*
X145911252Y-103035000D01*
%TO.C,AC1*%
X153581252Y-87925000D02*
X153058748Y-87925000D01*
X153581252Y-86455000D02*
X153058748Y-86455000D01*
%TO.C,EC40*%
X135545000Y-104831252D02*
X135545000Y-104308748D01*
X137015000Y-104831252D02*
X137015000Y-104308748D01*
%TO.C,TP2*%
X151360000Y-87530000D02*
G75*
G03*
X151360000Y-87530000I-700000J0D01*
G01*
%TO.C,EC17*%
X145605000Y-106781252D02*
X145605000Y-106258748D01*
X144135000Y-106781252D02*
X144135000Y-106258748D01*
%TO.C,AL1*%
X157817936Y-88760000D02*
X159022064Y-88760000D01*
X157817936Y-86040000D02*
X159022064Y-86040000D01*
%TO.C,EPS1*%
X150190000Y-94290000D02*
X148240000Y-94290000D01*
X150190000Y-89170000D02*
X146740000Y-89170000D01*
X150190000Y-89170000D02*
X152140000Y-89170000D01*
X150190000Y-94290000D02*
X152140000Y-94290000D01*
%TO.C,ICR1*%
X133772936Y-86155000D02*
X134227064Y-86155000D01*
X133772936Y-87625000D02*
X134227064Y-87625000D01*
D14*
%TO.C,ANT1*%
X119790000Y-106830000D02*
X127790000Y-106830000D01*
X127790000Y-108930000D02*
X119790000Y-108930000D01*
D15*
X117630500Y-107880000D02*
G75*
G03*
X117630500Y-107880000I-190500J0D01*
G01*
D13*
%TO.C,EC16*%
X139488748Y-94305000D02*
X140011252Y-94305000D01*
X139488748Y-92835000D02*
X140011252Y-92835000D01*
%TO.C,IMUC1*%
X132198748Y-89135000D02*
X132721252Y-89135000D01*
X132198748Y-90605000D02*
X132721252Y-90605000D01*
%TO.C,Q5*%
X119430000Y-87460000D02*
X119430000Y-89135000D01*
X122550000Y-87460000D02*
X122550000Y-86810000D01*
X122550000Y-87460000D02*
X122550000Y-88110000D01*
X119430000Y-87460000D02*
X119430000Y-86810000D01*
%TO.C,EC51*%
X142985000Y-90961252D02*
X142985000Y-90438748D01*
X144455000Y-90961252D02*
X144455000Y-90438748D01*
%TO.C,EC15*%
X132438748Y-100335000D02*
X132961252Y-100335000D01*
X132438748Y-101805000D02*
X132961252Y-101805000D01*
%TO.C,TP3*%
X125150000Y-102705000D02*
G75*
G03*
X125150000Y-102705000I-700000J0D01*
G01*
%TO.C,IDR1*%
X138052936Y-87635000D02*
X138507064Y-87635000D01*
X138052936Y-86165000D02*
X138507064Y-86165000D01*
%TO.C,QR1*%
X119085000Y-88007064D02*
X119085000Y-87552936D01*
X117615000Y-88007064D02*
X117615000Y-87552936D01*
%TO.C,L2*%
X133920000Y-105009622D02*
X133920000Y-104210378D01*
X135040000Y-105009622D02*
X135040000Y-104210378D01*
%TO.C,AC2*%
X158211252Y-96205000D02*
X157688748Y-96205000D01*
X158211252Y-94735000D02*
X157688748Y-94735000D01*
%TO.C,LED1*%
X144325000Y-88235000D02*
X148410000Y-88235000D01*
X144325000Y-86065000D02*
X144325000Y-88235000D01*
X148410000Y-86065000D02*
X144325000Y-86065000D01*
D16*
X148596496Y-85543504D02*
G75*
G03*
X148596496Y-85543504I-161496J0D01*
G01*
D13*
%TO.C,EC19*%
X133691252Y-107995000D02*
X133168748Y-107995000D01*
X133691252Y-106525000D02*
X133168748Y-106525000D01*
%TO.C,EC14*%
X132568748Y-98485000D02*
X133091252Y-98485000D01*
X132568748Y-99955000D02*
X133091252Y-99955000D01*
%TO.C,AU1*%
X158975000Y-93485000D02*
X155975000Y-93485000D01*
X155975000Y-93485000D02*
X155975000Y-90485000D01*
X155975000Y-90485000D02*
X158975000Y-90485000D01*
X158975000Y-90485000D02*
X158975000Y-93485000D01*
D17*
X159445011Y-90135000D02*
G75*
G03*
X159445011Y-90135000I-200006J0D01*
G01*
D13*
%TO.C,I2C2*%
X120925000Y-101660000D02*
X120925000Y-100610000D01*
X118425000Y-101660000D02*
X120925000Y-101660000D01*
X120925000Y-96490000D02*
X121915000Y-96490000D01*
X120925000Y-95440000D02*
X120925000Y-96490000D01*
X116455000Y-96610000D02*
X116455000Y-100490000D01*
X118425000Y-95440000D02*
X120925000Y-95440000D01*
%TO.C,EXP_R3*%
X127657064Y-96945000D02*
X127202936Y-96945000D01*
X127657064Y-98415000D02*
X127202936Y-98415000D01*
%TO.C,EC50*%
X137885000Y-91061252D02*
X137885000Y-90538748D01*
X139355000Y-91061252D02*
X139355000Y-90538748D01*
D17*
%TO.C,ESP_FLASH1*%
X146290000Y-95160000D02*
X146290000Y-94660000D01*
X146290000Y-100660000D02*
X154290000Y-100660000D01*
X154290000Y-94660000D02*
X154290000Y-95160000D01*
X146290000Y-94660000D02*
X154290000Y-94660000D01*
X154290000Y-100660000D02*
X154290000Y-100160000D01*
X146290000Y-100160000D02*
X146290000Y-100660000D01*
X145890000Y-94910000D02*
G75*
G03*
X145890000Y-94910000I-100000J0D01*
G01*
D13*
%TO.C,EXP_R4*%
X127547064Y-99445000D02*
X127092936Y-99445000D01*
X127547064Y-100915000D02*
X127092936Y-100915000D01*
%TO.C,EC37*%
X121585000Y-103221252D02*
X121585000Y-102698748D01*
X123055000Y-103221252D02*
X123055000Y-102698748D01*
%TO.C,EL4*%
X122750378Y-105990000D02*
X123549622Y-105990000D01*
X122750378Y-104870000D02*
X123549622Y-104870000D01*
%TO.C,AR2*%
X161485000Y-94232936D02*
X161485000Y-94687064D01*
X160015000Y-94232936D02*
X160015000Y-94687064D01*
%TO.C,J3*%
X116395000Y-91400000D02*
X116395000Y-93280000D01*
X120865000Y-94450000D02*
X120865000Y-93400000D01*
X118365000Y-94450000D02*
X120865000Y-94450000D01*
X118365000Y-90230000D02*
X120865000Y-90230000D01*
X120865000Y-90230000D02*
X120865000Y-91280000D01*
X120865000Y-91280000D02*
X121855000Y-91280000D01*
%TO.C,EXP_R2*%
X127717064Y-96605000D02*
X127262936Y-96605000D01*
X127717064Y-95135000D02*
X127262936Y-95135000D01*
%TO.C,EXP_R1*%
X127737064Y-93315000D02*
X127282936Y-93315000D01*
X127737064Y-94785000D02*
X127282936Y-94785000D01*
D14*
%TO.C,U2*%
X153395000Y-103160000D02*
X149405000Y-103160000D01*
X153395000Y-108200000D02*
X149405000Y-108200000D01*
D17*
X155950000Y-108175000D02*
G75*
G03*
X155950000Y-108175000I-100000J0D01*
G01*
D13*
%TO.C,IMU1*%
X134650000Y-92440000D02*
X134800000Y-92440000D01*
X137370000Y-92440000D02*
X137220000Y-92440000D01*
X134650000Y-89220000D02*
X134800000Y-89220000D01*
X134650000Y-91790000D02*
X134650000Y-92440000D01*
X137370000Y-89870000D02*
X137370000Y-89220000D01*
X137370000Y-91790000D02*
X137370000Y-92440000D01*
X134650000Y-89870000D02*
X134650000Y-89220000D01*
%TO.C,ER2*%
X127292936Y-92635000D02*
X127747064Y-92635000D01*
X127292936Y-91165000D02*
X127747064Y-91165000D01*
%TO.C,EC24*%
X153661252Y-102715000D02*
X153138748Y-102715000D01*
X153661252Y-101245000D02*
X153138748Y-101245000D01*
%TO.C,ECY2*%
X142760000Y-92850000D02*
X142760000Y-88950000D01*
X139560000Y-92850000D02*
X142760000Y-92850000D01*
%TO.C,TP1*%
X131990000Y-86530000D02*
G75*
G03*
X131990000Y-86530000I-700000J0D01*
G01*
%TD*%
M02*
