%TF.GenerationSoftware,KiCad,Pcbnew,(6.0.7)*%
%TF.CreationDate,2022-11-04T16:49:27+01:00*%
%TF.ProjectId,LDAD ATOM PRO,4c444144-2041-4544-9f4d-2050524f2e6b,5.3*%
%TF.SameCoordinates,Original*%
%TF.FileFunction,Drillmap*%
%TF.FilePolarity,Positive*%
%FSLAX45Y45*%
G04 Gerber Fmt 4.5, Leading zero omitted, Abs format (unit mm)*
G04 Created by KiCad (PCBNEW (6.0.7)) date 2022-11-04 16:49:27*
%MOMM*%
%LPD*%
G01*
G04 APERTURE LIST*
%ADD10C,0.100000*%
%ADD11C,0.200000*%
%ADD12C,0.040000*%
%ADD13C,0.050000*%
%ADD14C,0.065000*%
G04 APERTURE END LIST*
D10*
X11910315Y-10919793D02*
X15903973Y-10920000D01*
X16181179Y-8848000D02*
G75*
G03*
X15893000Y-8570000I-278189J-10D01*
G01*
X15903973Y-10920002D02*
G75*
G03*
X16181972Y-10631820I-3J278182D01*
G01*
X11900387Y-8568955D02*
X15893000Y-8570000D01*
X16181972Y-10631820D02*
X16181180Y-8848000D01*
X11622138Y-10641793D02*
G75*
G03*
X11910315Y-10919793I278182J3D01*
G01*
X11622135Y-10641793D02*
X11622387Y-8857135D01*
X11900387Y-8568956D02*
G75*
G03*
X11622387Y-8857135I-27J-278154D01*
G01*
D11*
D12*
X11723000Y-9895000D02*
X11763000Y-9935000D01*
X11763000Y-9895000D02*
X11723000Y-9935000D01*
X11924000Y-9001000D02*
X11964000Y-9041000D01*
X11964000Y-9001000D02*
X11924000Y-9041000D01*
X11966000Y-9873000D02*
X12006000Y-9913000D01*
X12006000Y-9873000D02*
X11966000Y-9913000D01*
X12013000Y-9055000D02*
X12053000Y-9095000D01*
X12053000Y-9055000D02*
X12013000Y-9095000D01*
X12119000Y-9570000D02*
X12159000Y-9610000D01*
X12159000Y-9570000D02*
X12119000Y-9610000D01*
X12433000Y-9013000D02*
X12473000Y-9053000D01*
X12473000Y-9013000D02*
X12433000Y-9053000D01*
X12513000Y-8908000D02*
X12553000Y-8948000D01*
X12553000Y-8908000D02*
X12513000Y-8948000D01*
X12536000Y-9098000D02*
X12576000Y-9138000D01*
X12576000Y-9098000D02*
X12536000Y-9138000D01*
X12609000Y-9033000D02*
X12649000Y-9073000D01*
X12649000Y-9033000D02*
X12609000Y-9073000D01*
X12708000Y-9038000D02*
X12748000Y-9078000D01*
X12748000Y-9038000D02*
X12708000Y-9078000D01*
X12819000Y-9872000D02*
X12859000Y-9912000D01*
X12859000Y-9872000D02*
X12819000Y-9912000D01*
X12829000Y-9040000D02*
X12869000Y-9080000D01*
X12869000Y-9040000D02*
X12829000Y-9080000D01*
X12941000Y-9866000D02*
X12981000Y-9906000D01*
X12981000Y-9866000D02*
X12941000Y-9906000D01*
X12943000Y-9641000D02*
X12983000Y-9681000D01*
X12983000Y-9641000D02*
X12943000Y-9681000D01*
X13001000Y-8601000D02*
X13041000Y-8641000D01*
X13041000Y-8601000D02*
X13001000Y-8641000D01*
X13021000Y-10309000D02*
X13061000Y-10349000D01*
X13061000Y-10309000D02*
X13021000Y-10349000D01*
X13024000Y-10849000D02*
X13064000Y-10889000D01*
X13064000Y-10849000D02*
X13024000Y-10889000D01*
X13026000Y-10130000D02*
X13066000Y-10170000D01*
X13066000Y-10130000D02*
X13026000Y-10170000D01*
X13032000Y-8853000D02*
X13072000Y-8893000D01*
X13072000Y-8853000D02*
X13032000Y-8893000D01*
X13033000Y-9506000D02*
X13073000Y-9546000D01*
X13073000Y-9506000D02*
X13033000Y-9546000D01*
X13092000Y-8753000D02*
X13132000Y-8793000D01*
X13132000Y-8753000D02*
X13092000Y-8793000D01*
X13189000Y-8755000D02*
X13229000Y-8795000D01*
X13229000Y-8755000D02*
X13189000Y-8795000D01*
X13224000Y-10175000D02*
X13264000Y-10215000D01*
X13264000Y-10175000D02*
X13224000Y-10215000D01*
X13307000Y-10616000D02*
X13347000Y-10656000D01*
X13347000Y-10616000D02*
X13307000Y-10656000D01*
X13419000Y-8959000D02*
X13459000Y-8999000D01*
X13459000Y-8959000D02*
X13419000Y-8999000D01*
X13429000Y-9506000D02*
X13469000Y-9546000D01*
X13469000Y-9506000D02*
X13429000Y-9546000D01*
X13516000Y-8840000D02*
X13556000Y-8880000D01*
X13556000Y-8840000D02*
X13516000Y-8880000D01*
X13548000Y-9908000D02*
X13588000Y-9948000D01*
X13588000Y-9908000D02*
X13548000Y-9948000D01*
X13560000Y-8742000D02*
X13600000Y-8782000D01*
X13600000Y-8742000D02*
X13560000Y-8782000D01*
X13579000Y-9661000D02*
X13619000Y-9701000D01*
X13619000Y-9661000D02*
X13579000Y-9701000D01*
X13581000Y-9060000D02*
X13621000Y-9100000D01*
X13621000Y-9060000D02*
X13581000Y-9100000D01*
X13602000Y-10151000D02*
X13642000Y-10191000D01*
X13642000Y-10151000D02*
X13602000Y-10191000D01*
X13612000Y-10627000D02*
X13652000Y-10667000D01*
X13652000Y-10627000D02*
X13612000Y-10667000D01*
X13657000Y-10200000D02*
X13697000Y-10240000D01*
X13697000Y-10200000D02*
X13657000Y-10240000D01*
X13714000Y-10259000D02*
X13754000Y-10299000D01*
X13754000Y-10259000D02*
X13714000Y-10299000D01*
X13715000Y-9429000D02*
X13755000Y-9469000D01*
X13755000Y-9429000D02*
X13715000Y-9469000D01*
X13723000Y-9338000D02*
X13763000Y-9378000D01*
X13763000Y-9338000D02*
X13723000Y-9378000D01*
X13724000Y-8954000D02*
X13764000Y-8994000D01*
X13764000Y-8954000D02*
X13724000Y-8994000D01*
X13725000Y-9188000D02*
X13765000Y-9228000D01*
X13765000Y-9188000D02*
X13725000Y-9228000D01*
X13749000Y-9062000D02*
X13789000Y-9102000D01*
X13789000Y-9062000D02*
X13749000Y-9102000D01*
X13775000Y-10351000D02*
X13815000Y-10391000D01*
X13815000Y-10351000D02*
X13775000Y-10391000D01*
X13781000Y-8749000D02*
X13821000Y-8789000D01*
X13821000Y-8749000D02*
X13781000Y-8789000D01*
X13784000Y-10442000D02*
X13824000Y-10482000D01*
X13824000Y-10442000D02*
X13784000Y-10482000D01*
X13791000Y-9875000D02*
X13831000Y-9915000D01*
X13831000Y-9875000D02*
X13791000Y-9915000D01*
X13844000Y-9483000D02*
X13884000Y-9523000D01*
X13884000Y-9483000D02*
X13844000Y-9523000D01*
X13847000Y-8843000D02*
X13887000Y-8883000D01*
X13887000Y-8843000D02*
X13847000Y-8883000D01*
X13885000Y-10453000D02*
X13925000Y-10493000D01*
X13925000Y-10453000D02*
X13885000Y-10493000D01*
X13901000Y-9759000D02*
X13941000Y-9799000D01*
X13941000Y-9759000D02*
X13901000Y-9799000D01*
X13916000Y-10625000D02*
X13956000Y-10665000D01*
X13956000Y-10625000D02*
X13916000Y-10665000D01*
X13923000Y-10021000D02*
X13963000Y-10061000D01*
X13963000Y-10021000D02*
X13923000Y-10061000D01*
X13955000Y-9434000D02*
X13995000Y-9474000D01*
X13995000Y-9434000D02*
X13955000Y-9474000D01*
X13988000Y-10422000D02*
X14028000Y-10462000D01*
X14028000Y-10422000D02*
X13988000Y-10462000D01*
X14026000Y-9619000D02*
X14066000Y-9659000D01*
X14066000Y-9619000D02*
X14026000Y-9659000D01*
X14043000Y-9886000D02*
X14083000Y-9926000D01*
X14083000Y-9886000D02*
X14043000Y-9926000D01*
X14061000Y-10167000D02*
X14101000Y-10207000D01*
X14101000Y-10167000D02*
X14061000Y-10207000D01*
X14091000Y-9063000D02*
X14131000Y-9103000D01*
X14131000Y-9063000D02*
X14091000Y-9103000D01*
X14130000Y-9413000D02*
X14170000Y-9453000D01*
X14170000Y-9413000D02*
X14130000Y-9453000D01*
X14140000Y-8771000D02*
X14180000Y-8811000D01*
X14180000Y-8771000D02*
X14140000Y-8811000D01*
X14147000Y-10635000D02*
X14187000Y-10675000D01*
X14187000Y-10635000D02*
X14147000Y-10675000D01*
X14148000Y-10558000D02*
X14188000Y-10598000D01*
X14188000Y-10558000D02*
X14148000Y-10598000D01*
X14166000Y-9755000D02*
X14206000Y-9795000D01*
X14206000Y-9755000D02*
X14166000Y-9795000D01*
X14183000Y-8843000D02*
X14223000Y-8883000D01*
X14223000Y-8843000D02*
X14183000Y-8883000D01*
X14183000Y-9291000D02*
X14223000Y-9331000D01*
X14223000Y-9291000D02*
X14183000Y-9331000D01*
X14183000Y-10030000D02*
X14223000Y-10070000D01*
X14223000Y-10030000D02*
X14183000Y-10070000D01*
X14244000Y-10329000D02*
X14284000Y-10369000D01*
X14284000Y-10329000D02*
X14244000Y-10369000D01*
X14308000Y-9903000D02*
X14348000Y-9943000D01*
X14348000Y-9903000D02*
X14308000Y-9943000D01*
X14321000Y-10308000D02*
X14361000Y-10348000D01*
X14361000Y-10308000D02*
X14321000Y-10348000D01*
X14374000Y-10247000D02*
X14414000Y-10287000D01*
X14414000Y-10247000D02*
X14374000Y-10287000D01*
X14386000Y-8747000D02*
X14426000Y-8787000D01*
X14426000Y-8747000D02*
X14386000Y-8787000D01*
X14391000Y-9248000D02*
X14431000Y-9288000D01*
X14431000Y-9248000D02*
X14391000Y-9288000D01*
X14469000Y-9217000D02*
X14509000Y-9257000D01*
X14509000Y-9217000D02*
X14469000Y-9257000D01*
X14514000Y-9601000D02*
X14554000Y-9641000D01*
X14554000Y-9601000D02*
X14514000Y-9641000D01*
X14543000Y-9431000D02*
X14583000Y-9471000D01*
X14583000Y-9431000D02*
X14543000Y-9471000D01*
X14545000Y-9260000D02*
X14585000Y-9300000D01*
X14585000Y-9260000D02*
X14545000Y-9300000D01*
X14566000Y-10463000D02*
X14606000Y-10503000D01*
X14606000Y-10463000D02*
X14566000Y-10503000D01*
X14568000Y-10715000D02*
X14608000Y-10755000D01*
X14608000Y-10715000D02*
X14568000Y-10755000D01*
X14585000Y-10779000D02*
X14625000Y-10819000D01*
X14625000Y-10779000D02*
X14585000Y-10819000D01*
X14660000Y-10053000D02*
X14700000Y-10093000D01*
X14700000Y-10053000D02*
X14660000Y-10093000D01*
X14697000Y-8761000D02*
X14737000Y-8801000D01*
X14737000Y-8761000D02*
X14697000Y-8801000D01*
X14738000Y-10291000D02*
X14778000Y-10331000D01*
X14778000Y-10291000D02*
X14738000Y-10331000D01*
X14798000Y-9573000D02*
X14838000Y-9613000D01*
X14838000Y-9573000D02*
X14798000Y-9613000D01*
X14839000Y-9942000D02*
X14879000Y-9982000D01*
X14879000Y-9942000D02*
X14839000Y-9982000D01*
X14896000Y-10003000D02*
X14936000Y-10043000D01*
X14936000Y-10003000D02*
X14896000Y-10043000D01*
X14939000Y-8705000D02*
X14979000Y-8745000D01*
X14979000Y-8705000D02*
X14939000Y-8745000D01*
X15026000Y-9546000D02*
X15066000Y-9586000D01*
X15066000Y-9546000D02*
X15026000Y-9586000D01*
X15031000Y-10374000D02*
X15071000Y-10414000D01*
X15071000Y-10374000D02*
X15031000Y-10414000D01*
X15033000Y-10486000D02*
X15073000Y-10526000D01*
X15073000Y-10486000D02*
X15033000Y-10526000D01*
X15167000Y-10561000D02*
X15207000Y-10601000D01*
X15207000Y-10561000D02*
X15167000Y-10601000D01*
X15171000Y-9422000D02*
X15211000Y-9462000D01*
X15211000Y-9422000D02*
X15171000Y-9462000D01*
X15213000Y-8834000D02*
X15253000Y-8874000D01*
X15253000Y-8834000D02*
X15213000Y-8874000D01*
X15231000Y-10291000D02*
X15271000Y-10331000D01*
X15271000Y-10291000D02*
X15231000Y-10331000D01*
X15275000Y-9474000D02*
X15315000Y-9514000D01*
X15315000Y-9474000D02*
X15275000Y-9514000D01*
X15374000Y-9479000D02*
X15414000Y-9519000D01*
X15414000Y-9479000D02*
X15374000Y-9519000D01*
X15503000Y-8591000D02*
X15543000Y-8631000D01*
X15543000Y-8591000D02*
X15503000Y-8631000D01*
X15514000Y-8741000D02*
X15554000Y-8781000D01*
X15554000Y-8741000D02*
X15514000Y-8781000D01*
X15606000Y-10586000D02*
X15646000Y-10626000D01*
X15646000Y-10586000D02*
X15606000Y-10626000D01*
X15608000Y-10756000D02*
X15648000Y-10796000D01*
X15648000Y-10756000D02*
X15608000Y-10796000D01*
X15895000Y-10761000D02*
X15935000Y-10801000D01*
X15935000Y-10761000D02*
X15895000Y-10801000D01*
X15905000Y-10571000D02*
X15945000Y-10611000D01*
X15945000Y-10571000D02*
X15905000Y-10611000D01*
X15913000Y-9800000D02*
X15953000Y-9840000D01*
X15953000Y-9800000D02*
X15913000Y-9840000D01*
X15920000Y-9248000D02*
X15960000Y-9288000D01*
X15960000Y-9248000D02*
X15920000Y-9288000D01*
X16090000Y-8834000D02*
X16130000Y-8874000D01*
X16130000Y-8834000D02*
X16090000Y-8874000D01*
D13*
X15724000Y-9716000D02*
G75*
G03*
X15724000Y-9716000I-25000J0D01*
G01*
D11*
X15664000Y-9741000D02*
X15734000Y-9741000D01*
X15664000Y-9691000D02*
X15734000Y-9691000D01*
X15734000Y-9741000D02*
G75*
G03*
X15734000Y-9691000I0J25000D01*
G01*
X15664000Y-9691000D02*
G75*
G03*
X15664000Y-9741000I0J-25000D01*
G01*
D13*
X15725000Y-10435000D02*
G75*
G03*
X15725000Y-10435000I-25000J0D01*
G01*
D11*
X15665000Y-10460000D02*
X15735000Y-10460000D01*
X15665000Y-10410000D02*
X15735000Y-10410000D01*
X15735000Y-10460000D02*
G75*
G03*
X15735000Y-10410000I0J25000D01*
G01*
X15665000Y-10410000D02*
G75*
G03*
X15665000Y-10460000I0J-25000D01*
G01*
D13*
X16072000Y-9714000D02*
G75*
G03*
X16072000Y-9714000I-25000J0D01*
G01*
D11*
X16012000Y-9739000D02*
X16082000Y-9739000D01*
X16012000Y-9689000D02*
X16082000Y-9689000D01*
X16082000Y-9739000D02*
G75*
G03*
X16082000Y-9689000I0J25000D01*
G01*
X16012000Y-9689000D02*
G75*
G03*
X16012000Y-9739000I0J-25000D01*
G01*
D13*
X16072000Y-10436000D02*
G75*
G03*
X16072000Y-10436000I-25000J0D01*
G01*
D11*
X16012000Y-10461000D02*
X16082000Y-10461000D01*
X16012000Y-10411000D02*
X16082000Y-10411000D01*
X16082000Y-10461000D02*
G75*
G03*
X16082000Y-10411000I0J25000D01*
G01*
X16012000Y-10411000D02*
G75*
G03*
X16012000Y-10461000I0J-25000D01*
G01*
D14*
X12330500Y-9200000D02*
X12330500Y-9265000D01*
X12298000Y-9232500D02*
X12363000Y-9232500D01*
X12330500Y-9327000D02*
X12330500Y-9392000D01*
X12298000Y-9359500D02*
X12363000Y-9359500D01*
X12330500Y-9454000D02*
X12330500Y-9519000D01*
X12298000Y-9486500D02*
X12363000Y-9486500D01*
X12330500Y-9581000D02*
X12330500Y-9646000D01*
X12298000Y-9613500D02*
X12363000Y-9613500D01*
X12330500Y-9708000D02*
X12330500Y-9773000D01*
X12298000Y-9740500D02*
X12363000Y-9740500D01*
X12330500Y-9835000D02*
X12330500Y-9900000D01*
X12298000Y-9867500D02*
X12363000Y-9867500D01*
X12457500Y-9200000D02*
X12457500Y-9265000D01*
X12425000Y-9232500D02*
X12490000Y-9232500D01*
X12457500Y-9327000D02*
X12457500Y-9392000D01*
X12425000Y-9359500D02*
X12490000Y-9359500D01*
X12457500Y-9454000D02*
X12457500Y-9519000D01*
X12425000Y-9486500D02*
X12490000Y-9486500D01*
X12457500Y-9581000D02*
X12457500Y-9646000D01*
X12425000Y-9613500D02*
X12490000Y-9613500D01*
X12457500Y-9708000D02*
X12457500Y-9773000D01*
X12425000Y-9740500D02*
X12490000Y-9740500D01*
X12457500Y-9835000D02*
X12457500Y-9900000D01*
X12425000Y-9867500D02*
X12490000Y-9867500D01*
D11*
X11874754Y-11235476D02*
X11874754Y-11035476D01*
X11922373Y-11035476D01*
X11950944Y-11045000D01*
X11969992Y-11064048D01*
X11979516Y-11083095D01*
X11989040Y-11121190D01*
X11989040Y-11149762D01*
X11979516Y-11187857D01*
X11969992Y-11206905D01*
X11950944Y-11225952D01*
X11922373Y-11235476D01*
X11874754Y-11235476D01*
X12074754Y-11235476D02*
X12074754Y-11102143D01*
X12074754Y-11140238D02*
X12084278Y-11121190D01*
X12093801Y-11111667D01*
X12112849Y-11102143D01*
X12131897Y-11102143D01*
X12198563Y-11235476D02*
X12198563Y-11102143D01*
X12198563Y-11035476D02*
X12189040Y-11045000D01*
X12198563Y-11054524D01*
X12208087Y-11045000D01*
X12198563Y-11035476D01*
X12198563Y-11054524D01*
X12322373Y-11235476D02*
X12303325Y-11225952D01*
X12293801Y-11206905D01*
X12293801Y-11035476D01*
X12427135Y-11235476D02*
X12408087Y-11225952D01*
X12398563Y-11206905D01*
X12398563Y-11035476D01*
X12655706Y-11235476D02*
X12655706Y-11035476D01*
X12722373Y-11178333D01*
X12789040Y-11035476D01*
X12789040Y-11235476D01*
X12969992Y-11235476D02*
X12969992Y-11130714D01*
X12960468Y-11111667D01*
X12941421Y-11102143D01*
X12903325Y-11102143D01*
X12884278Y-11111667D01*
X12969992Y-11225952D02*
X12950944Y-11235476D01*
X12903325Y-11235476D01*
X12884278Y-11225952D01*
X12874754Y-11206905D01*
X12874754Y-11187857D01*
X12884278Y-11168809D01*
X12903325Y-11159286D01*
X12950944Y-11159286D01*
X12969992Y-11149762D01*
X13065230Y-11102143D02*
X13065230Y-11302143D01*
X13065230Y-11111667D02*
X13084278Y-11102143D01*
X13122373Y-11102143D01*
X13141421Y-11111667D01*
X13150944Y-11121190D01*
X13160468Y-11140238D01*
X13160468Y-11197381D01*
X13150944Y-11216428D01*
X13141421Y-11225952D01*
X13122373Y-11235476D01*
X13084278Y-11235476D01*
X13065230Y-11225952D01*
X13246182Y-11216428D02*
X13255706Y-11225952D01*
X13246182Y-11235476D01*
X13236659Y-11225952D01*
X13246182Y-11216428D01*
X13246182Y-11235476D01*
X13246182Y-11111667D02*
X13255706Y-11121190D01*
X13246182Y-11130714D01*
X13236659Y-11121190D01*
X13246182Y-11111667D01*
X13246182Y-11130714D01*
D12*
X11577135Y-11545000D02*
X11617135Y-11585000D01*
X11617135Y-11545000D02*
X11577135Y-11585000D01*
D11*
X11912849Y-11455476D02*
X11931897Y-11455476D01*
X11950944Y-11465000D01*
X11960468Y-11474524D01*
X11969992Y-11493571D01*
X11979516Y-11531666D01*
X11979516Y-11579286D01*
X11969992Y-11617381D01*
X11960468Y-11636428D01*
X11950944Y-11645952D01*
X11931897Y-11655476D01*
X11912849Y-11655476D01*
X11893801Y-11645952D01*
X11884278Y-11636428D01*
X11874754Y-11617381D01*
X11865230Y-11579286D01*
X11865230Y-11531666D01*
X11874754Y-11493571D01*
X11884278Y-11474524D01*
X11893801Y-11465000D01*
X11912849Y-11455476D01*
X12065230Y-11636428D02*
X12074754Y-11645952D01*
X12065230Y-11655476D01*
X12055706Y-11645952D01*
X12065230Y-11636428D01*
X12065230Y-11655476D01*
X12246182Y-11522143D02*
X12246182Y-11655476D01*
X12198563Y-11445952D02*
X12150944Y-11588809D01*
X12274754Y-11588809D01*
X12389040Y-11455476D02*
X12408087Y-11455476D01*
X12427135Y-11465000D01*
X12436659Y-11474524D01*
X12446182Y-11493571D01*
X12455706Y-11531666D01*
X12455706Y-11579286D01*
X12446182Y-11617381D01*
X12436659Y-11636428D01*
X12427135Y-11645952D01*
X12408087Y-11655476D01*
X12389040Y-11655476D01*
X12369992Y-11645952D01*
X12360468Y-11636428D01*
X12350944Y-11617381D01*
X12341421Y-11579286D01*
X12341421Y-11531666D01*
X12350944Y-11493571D01*
X12360468Y-11474524D01*
X12369992Y-11465000D01*
X12389040Y-11455476D01*
X12579516Y-11455476D02*
X12598563Y-11455476D01*
X12617611Y-11465000D01*
X12627135Y-11474524D01*
X12636659Y-11493571D01*
X12646182Y-11531666D01*
X12646182Y-11579286D01*
X12636659Y-11617381D01*
X12627135Y-11636428D01*
X12617611Y-11645952D01*
X12598563Y-11655476D01*
X12579516Y-11655476D01*
X12560468Y-11645952D01*
X12550944Y-11636428D01*
X12541421Y-11617381D01*
X12531897Y-11579286D01*
X12531897Y-11531666D01*
X12541421Y-11493571D01*
X12550944Y-11474524D01*
X12560468Y-11465000D01*
X12579516Y-11455476D01*
X12731897Y-11655476D02*
X12731897Y-11522143D01*
X12731897Y-11541190D02*
X12741421Y-11531666D01*
X12760468Y-11522143D01*
X12789040Y-11522143D01*
X12808087Y-11531666D01*
X12817611Y-11550714D01*
X12817611Y-11655476D01*
X12817611Y-11550714D02*
X12827135Y-11531666D01*
X12846182Y-11522143D01*
X12874754Y-11522143D01*
X12893801Y-11531666D01*
X12903325Y-11550714D01*
X12903325Y-11655476D01*
X12998563Y-11655476D02*
X12998563Y-11522143D01*
X12998563Y-11541190D02*
X13008087Y-11531666D01*
X13027135Y-11522143D01*
X13055706Y-11522143D01*
X13074754Y-11531666D01*
X13084278Y-11550714D01*
X13084278Y-11655476D01*
X13084278Y-11550714D02*
X13093801Y-11531666D01*
X13112849Y-11522143D01*
X13141421Y-11522143D01*
X13160468Y-11531666D01*
X13169992Y-11550714D01*
X13169992Y-11655476D01*
X13560468Y-11445952D02*
X13389040Y-11703095D01*
X13817611Y-11455476D02*
X13836659Y-11455476D01*
X13855706Y-11465000D01*
X13865230Y-11474524D01*
X13874754Y-11493571D01*
X13884278Y-11531666D01*
X13884278Y-11579286D01*
X13874754Y-11617381D01*
X13865230Y-11636428D01*
X13855706Y-11645952D01*
X13836659Y-11655476D01*
X13817611Y-11655476D01*
X13798563Y-11645952D01*
X13789040Y-11636428D01*
X13779516Y-11617381D01*
X13769992Y-11579286D01*
X13769992Y-11531666D01*
X13779516Y-11493571D01*
X13789040Y-11474524D01*
X13798563Y-11465000D01*
X13817611Y-11455476D01*
X13969992Y-11636428D02*
X13979516Y-11645952D01*
X13969992Y-11655476D01*
X13960468Y-11645952D01*
X13969992Y-11636428D01*
X13969992Y-11655476D01*
X14103325Y-11455476D02*
X14122373Y-11455476D01*
X14141421Y-11465000D01*
X14150944Y-11474524D01*
X14160468Y-11493571D01*
X14169992Y-11531666D01*
X14169992Y-11579286D01*
X14160468Y-11617381D01*
X14150944Y-11636428D01*
X14141421Y-11645952D01*
X14122373Y-11655476D01*
X14103325Y-11655476D01*
X14084278Y-11645952D01*
X14074754Y-11636428D01*
X14065230Y-11617381D01*
X14055706Y-11579286D01*
X14055706Y-11531666D01*
X14065230Y-11493571D01*
X14074754Y-11474524D01*
X14084278Y-11465000D01*
X14103325Y-11455476D01*
X14360468Y-11655476D02*
X14246182Y-11655476D01*
X14303325Y-11655476D02*
X14303325Y-11455476D01*
X14284278Y-11484047D01*
X14265230Y-11503095D01*
X14246182Y-11512619D01*
X14541421Y-11455476D02*
X14446182Y-11455476D01*
X14436659Y-11550714D01*
X14446182Y-11541190D01*
X14465230Y-11531666D01*
X14512849Y-11531666D01*
X14531897Y-11541190D01*
X14541421Y-11550714D01*
X14550944Y-11569762D01*
X14550944Y-11617381D01*
X14541421Y-11636428D01*
X14531897Y-11645952D01*
X14512849Y-11655476D01*
X14465230Y-11655476D01*
X14446182Y-11645952D01*
X14436659Y-11636428D01*
X14617611Y-11455476D02*
X14750944Y-11455476D01*
X14665230Y-11655476D01*
X14817611Y-11455476D02*
X14817611Y-11493571D01*
X14893801Y-11455476D02*
X14893801Y-11493571D01*
X15189040Y-11731666D02*
X15179516Y-11722143D01*
X15160468Y-11693571D01*
X15150944Y-11674524D01*
X15141421Y-11645952D01*
X15131897Y-11598333D01*
X15131897Y-11560238D01*
X15141421Y-11512619D01*
X15150944Y-11484047D01*
X15160468Y-11465000D01*
X15179516Y-11436428D01*
X15189040Y-11426905D01*
X15369992Y-11655476D02*
X15255706Y-11655476D01*
X15312849Y-11655476D02*
X15312849Y-11455476D01*
X15293801Y-11484047D01*
X15274754Y-11503095D01*
X15255706Y-11512619D01*
X15493801Y-11455476D02*
X15512849Y-11455476D01*
X15531897Y-11465000D01*
X15541421Y-11474524D01*
X15550944Y-11493571D01*
X15560468Y-11531666D01*
X15560468Y-11579286D01*
X15550944Y-11617381D01*
X15541421Y-11636428D01*
X15531897Y-11645952D01*
X15512849Y-11655476D01*
X15493801Y-11655476D01*
X15474754Y-11645952D01*
X15465230Y-11636428D01*
X15455706Y-11617381D01*
X15446182Y-11579286D01*
X15446182Y-11531666D01*
X15455706Y-11493571D01*
X15465230Y-11474524D01*
X15474754Y-11465000D01*
X15493801Y-11455476D01*
X15636659Y-11474524D02*
X15646182Y-11465000D01*
X15665230Y-11455476D01*
X15712849Y-11455476D01*
X15731897Y-11465000D01*
X15741421Y-11474524D01*
X15750944Y-11493571D01*
X15750944Y-11512619D01*
X15741421Y-11541190D01*
X15627135Y-11655476D01*
X15750944Y-11655476D01*
X15989040Y-11655476D02*
X15989040Y-11455476D01*
X16074754Y-11655476D02*
X16074754Y-11550714D01*
X16065230Y-11531666D01*
X16046182Y-11522143D01*
X16017611Y-11522143D01*
X15998563Y-11531666D01*
X15989040Y-11541190D01*
X16198563Y-11655476D02*
X16179516Y-11645952D01*
X16169992Y-11636428D01*
X16160468Y-11617381D01*
X16160468Y-11560238D01*
X16169992Y-11541190D01*
X16179516Y-11531666D01*
X16198563Y-11522143D01*
X16227135Y-11522143D01*
X16246182Y-11531666D01*
X16255706Y-11541190D01*
X16265230Y-11560238D01*
X16265230Y-11617381D01*
X16255706Y-11636428D01*
X16246182Y-11645952D01*
X16227135Y-11655476D01*
X16198563Y-11655476D01*
X16379516Y-11655476D02*
X16360468Y-11645952D01*
X16350944Y-11626905D01*
X16350944Y-11455476D01*
X16531897Y-11645952D02*
X16512849Y-11655476D01*
X16474754Y-11655476D01*
X16455706Y-11645952D01*
X16446182Y-11626905D01*
X16446182Y-11550714D01*
X16455706Y-11531666D01*
X16474754Y-11522143D01*
X16512849Y-11522143D01*
X16531897Y-11531666D01*
X16541421Y-11550714D01*
X16541421Y-11569762D01*
X16446182Y-11588809D01*
X16617611Y-11645952D02*
X16636659Y-11655476D01*
X16674754Y-11655476D01*
X16693801Y-11645952D01*
X16703325Y-11626905D01*
X16703325Y-11617381D01*
X16693801Y-11598333D01*
X16674754Y-11588809D01*
X16646182Y-11588809D01*
X16627135Y-11579286D01*
X16617611Y-11560238D01*
X16617611Y-11550714D01*
X16627135Y-11531666D01*
X16646182Y-11522143D01*
X16674754Y-11522143D01*
X16693801Y-11531666D01*
X16769992Y-11731666D02*
X16779516Y-11722143D01*
X16798563Y-11693571D01*
X16808087Y-11674524D01*
X16817611Y-11645952D01*
X16827135Y-11598333D01*
X16827135Y-11560238D01*
X16817611Y-11512619D01*
X16808087Y-11484047D01*
X16798563Y-11465000D01*
X16779516Y-11436428D01*
X16769992Y-11426905D01*
D13*
X11617135Y-11829000D02*
G75*
G03*
X11617135Y-11829000I-25000J0D01*
G01*
D11*
X11912849Y-11719476D02*
X11931897Y-11719476D01*
X11950944Y-11729000D01*
X11960468Y-11738524D01*
X11969992Y-11757571D01*
X11979516Y-11795666D01*
X11979516Y-11843286D01*
X11969992Y-11881381D01*
X11960468Y-11900428D01*
X11950944Y-11909952D01*
X11931897Y-11919476D01*
X11912849Y-11919476D01*
X11893801Y-11909952D01*
X11884278Y-11900428D01*
X11874754Y-11881381D01*
X11865230Y-11843286D01*
X11865230Y-11795666D01*
X11874754Y-11757571D01*
X11884278Y-11738524D01*
X11893801Y-11729000D01*
X11912849Y-11719476D01*
X12065230Y-11900428D02*
X12074754Y-11909952D01*
X12065230Y-11919476D01*
X12055706Y-11909952D01*
X12065230Y-11900428D01*
X12065230Y-11919476D01*
X12255706Y-11719476D02*
X12160468Y-11719476D01*
X12150944Y-11814714D01*
X12160468Y-11805190D01*
X12179516Y-11795666D01*
X12227135Y-11795666D01*
X12246182Y-11805190D01*
X12255706Y-11814714D01*
X12265230Y-11833762D01*
X12265230Y-11881381D01*
X12255706Y-11900428D01*
X12246182Y-11909952D01*
X12227135Y-11919476D01*
X12179516Y-11919476D01*
X12160468Y-11909952D01*
X12150944Y-11900428D01*
X12389040Y-11719476D02*
X12408087Y-11719476D01*
X12427135Y-11729000D01*
X12436659Y-11738524D01*
X12446182Y-11757571D01*
X12455706Y-11795666D01*
X12455706Y-11843286D01*
X12446182Y-11881381D01*
X12436659Y-11900428D01*
X12427135Y-11909952D01*
X12408087Y-11919476D01*
X12389040Y-11919476D01*
X12369992Y-11909952D01*
X12360468Y-11900428D01*
X12350944Y-11881381D01*
X12341421Y-11843286D01*
X12341421Y-11795666D01*
X12350944Y-11757571D01*
X12360468Y-11738524D01*
X12369992Y-11729000D01*
X12389040Y-11719476D01*
X12579516Y-11719476D02*
X12598563Y-11719476D01*
X12617611Y-11729000D01*
X12627135Y-11738524D01*
X12636659Y-11757571D01*
X12646182Y-11795666D01*
X12646182Y-11843286D01*
X12636659Y-11881381D01*
X12627135Y-11900428D01*
X12617611Y-11909952D01*
X12598563Y-11919476D01*
X12579516Y-11919476D01*
X12560468Y-11909952D01*
X12550944Y-11900428D01*
X12541421Y-11881381D01*
X12531897Y-11843286D01*
X12531897Y-11795666D01*
X12541421Y-11757571D01*
X12550944Y-11738524D01*
X12560468Y-11729000D01*
X12579516Y-11719476D01*
X12731897Y-11919476D02*
X12731897Y-11786143D01*
X12731897Y-11805190D02*
X12741421Y-11795666D01*
X12760468Y-11786143D01*
X12789040Y-11786143D01*
X12808087Y-11795666D01*
X12817611Y-11814714D01*
X12817611Y-11919476D01*
X12817611Y-11814714D02*
X12827135Y-11795666D01*
X12846182Y-11786143D01*
X12874754Y-11786143D01*
X12893801Y-11795666D01*
X12903325Y-11814714D01*
X12903325Y-11919476D01*
X12998563Y-11919476D02*
X12998563Y-11786143D01*
X12998563Y-11805190D02*
X13008087Y-11795666D01*
X13027135Y-11786143D01*
X13055706Y-11786143D01*
X13074754Y-11795666D01*
X13084278Y-11814714D01*
X13084278Y-11919476D01*
X13084278Y-11814714D02*
X13093801Y-11795666D01*
X13112849Y-11786143D01*
X13141421Y-11786143D01*
X13160468Y-11795666D01*
X13169992Y-11814714D01*
X13169992Y-11919476D01*
X13560468Y-11709952D02*
X13389040Y-11967095D01*
X13817611Y-11719476D02*
X13836659Y-11719476D01*
X13855706Y-11729000D01*
X13865230Y-11738524D01*
X13874754Y-11757571D01*
X13884278Y-11795666D01*
X13884278Y-11843286D01*
X13874754Y-11881381D01*
X13865230Y-11900428D01*
X13855706Y-11909952D01*
X13836659Y-11919476D01*
X13817611Y-11919476D01*
X13798563Y-11909952D01*
X13789040Y-11900428D01*
X13779516Y-11881381D01*
X13769992Y-11843286D01*
X13769992Y-11795666D01*
X13779516Y-11757571D01*
X13789040Y-11738524D01*
X13798563Y-11729000D01*
X13817611Y-11719476D01*
X13969992Y-11900428D02*
X13979516Y-11909952D01*
X13969992Y-11919476D01*
X13960468Y-11909952D01*
X13969992Y-11900428D01*
X13969992Y-11919476D01*
X14103325Y-11719476D02*
X14122373Y-11719476D01*
X14141421Y-11729000D01*
X14150944Y-11738524D01*
X14160468Y-11757571D01*
X14169992Y-11795666D01*
X14169992Y-11843286D01*
X14160468Y-11881381D01*
X14150944Y-11900428D01*
X14141421Y-11909952D01*
X14122373Y-11919476D01*
X14103325Y-11919476D01*
X14084278Y-11909952D01*
X14074754Y-11900428D01*
X14065230Y-11881381D01*
X14055706Y-11843286D01*
X14055706Y-11795666D01*
X14065230Y-11757571D01*
X14074754Y-11738524D01*
X14084278Y-11729000D01*
X14103325Y-11719476D01*
X14360468Y-11919476D02*
X14246182Y-11919476D01*
X14303325Y-11919476D02*
X14303325Y-11719476D01*
X14284278Y-11748047D01*
X14265230Y-11767095D01*
X14246182Y-11776619D01*
X14455706Y-11919476D02*
X14493801Y-11919476D01*
X14512849Y-11909952D01*
X14522373Y-11900428D01*
X14541421Y-11871857D01*
X14550944Y-11833762D01*
X14550944Y-11757571D01*
X14541421Y-11738524D01*
X14531897Y-11729000D01*
X14512849Y-11719476D01*
X14474754Y-11719476D01*
X14455706Y-11729000D01*
X14446182Y-11738524D01*
X14436659Y-11757571D01*
X14436659Y-11805190D01*
X14446182Y-11824238D01*
X14455706Y-11833762D01*
X14474754Y-11843286D01*
X14512849Y-11843286D01*
X14531897Y-11833762D01*
X14541421Y-11824238D01*
X14550944Y-11805190D01*
X14617611Y-11719476D02*
X14750944Y-11719476D01*
X14665230Y-11919476D01*
X14817611Y-11719476D02*
X14817611Y-11757571D01*
X14893801Y-11719476D02*
X14893801Y-11757571D01*
X15189040Y-11995666D02*
X15179516Y-11986143D01*
X15160468Y-11957571D01*
X15150944Y-11938524D01*
X15141421Y-11909952D01*
X15131897Y-11862333D01*
X15131897Y-11824238D01*
X15141421Y-11776619D01*
X15150944Y-11748047D01*
X15160468Y-11729000D01*
X15179516Y-11700428D01*
X15189040Y-11690905D01*
X15303325Y-11719476D02*
X15322373Y-11719476D01*
X15341421Y-11729000D01*
X15350944Y-11738524D01*
X15360468Y-11757571D01*
X15369992Y-11795666D01*
X15369992Y-11843286D01*
X15360468Y-11881381D01*
X15350944Y-11900428D01*
X15341421Y-11909952D01*
X15322373Y-11919476D01*
X15303325Y-11919476D01*
X15284278Y-11909952D01*
X15274754Y-11900428D01*
X15265230Y-11881381D01*
X15255706Y-11843286D01*
X15255706Y-11795666D01*
X15265230Y-11757571D01*
X15274754Y-11738524D01*
X15284278Y-11729000D01*
X15303325Y-11719476D01*
X15608087Y-11919476D02*
X15608087Y-11719476D01*
X15693801Y-11919476D02*
X15693801Y-11814714D01*
X15684278Y-11795666D01*
X15665230Y-11786143D01*
X15636659Y-11786143D01*
X15617611Y-11795666D01*
X15608087Y-11805190D01*
X15817611Y-11919476D02*
X15798563Y-11909952D01*
X15789040Y-11900428D01*
X15779516Y-11881381D01*
X15779516Y-11824238D01*
X15789040Y-11805190D01*
X15798563Y-11795666D01*
X15817611Y-11786143D01*
X15846182Y-11786143D01*
X15865230Y-11795666D01*
X15874754Y-11805190D01*
X15884278Y-11824238D01*
X15884278Y-11881381D01*
X15874754Y-11900428D01*
X15865230Y-11909952D01*
X15846182Y-11919476D01*
X15817611Y-11919476D01*
X15998563Y-11919476D02*
X15979516Y-11909952D01*
X15969992Y-11890905D01*
X15969992Y-11719476D01*
X16150944Y-11909952D02*
X16131897Y-11919476D01*
X16093801Y-11919476D01*
X16074754Y-11909952D01*
X16065230Y-11890905D01*
X16065230Y-11814714D01*
X16074754Y-11795666D01*
X16093801Y-11786143D01*
X16131897Y-11786143D01*
X16150944Y-11795666D01*
X16160468Y-11814714D01*
X16160468Y-11833762D01*
X16065230Y-11852809D01*
X16236659Y-11909952D02*
X16255706Y-11919476D01*
X16293801Y-11919476D01*
X16312849Y-11909952D01*
X16322373Y-11890905D01*
X16322373Y-11881381D01*
X16312849Y-11862333D01*
X16293801Y-11852809D01*
X16265230Y-11852809D01*
X16246182Y-11843286D01*
X16236659Y-11824238D01*
X16236659Y-11814714D01*
X16246182Y-11795666D01*
X16265230Y-11786143D01*
X16293801Y-11786143D01*
X16312849Y-11795666D01*
X16560468Y-11843286D02*
X16712849Y-11843286D01*
X16636659Y-11919476D02*
X16636659Y-11767095D01*
X17046183Y-11786143D02*
X17046183Y-11919476D01*
X16998563Y-11709952D02*
X16950944Y-11852809D01*
X17074754Y-11852809D01*
X17293802Y-11909952D02*
X17312849Y-11919476D01*
X17350944Y-11919476D01*
X17369992Y-11909952D01*
X17379516Y-11890905D01*
X17379516Y-11881381D01*
X17369992Y-11862333D01*
X17350944Y-11852809D01*
X17322373Y-11852809D01*
X17303325Y-11843286D01*
X17293802Y-11824238D01*
X17293802Y-11814714D01*
X17303325Y-11795666D01*
X17322373Y-11786143D01*
X17350944Y-11786143D01*
X17369992Y-11795666D01*
X17493802Y-11919476D02*
X17474754Y-11909952D01*
X17465230Y-11890905D01*
X17465230Y-11719476D01*
X17598563Y-11919476D02*
X17579516Y-11909952D01*
X17569992Y-11900428D01*
X17560468Y-11881381D01*
X17560468Y-11824238D01*
X17569992Y-11805190D01*
X17579516Y-11795666D01*
X17598563Y-11786143D01*
X17627135Y-11786143D01*
X17646183Y-11795666D01*
X17655706Y-11805190D01*
X17665230Y-11824238D01*
X17665230Y-11881381D01*
X17655706Y-11900428D01*
X17646183Y-11909952D01*
X17627135Y-11919476D01*
X17598563Y-11919476D01*
X17722373Y-11786143D02*
X17798563Y-11786143D01*
X17750944Y-11719476D02*
X17750944Y-11890905D01*
X17760468Y-11909952D01*
X17779516Y-11919476D01*
X17798563Y-11919476D01*
X17855706Y-11909952D02*
X17874754Y-11919476D01*
X17912849Y-11919476D01*
X17931897Y-11909952D01*
X17941421Y-11890905D01*
X17941421Y-11881381D01*
X17931897Y-11862333D01*
X17912849Y-11852809D01*
X17884278Y-11852809D01*
X17865230Y-11843286D01*
X17855706Y-11824238D01*
X17855706Y-11814714D01*
X17865230Y-11795666D01*
X17884278Y-11786143D01*
X17912849Y-11786143D01*
X17931897Y-11795666D01*
X18008087Y-11995666D02*
X18017611Y-11986143D01*
X18036659Y-11957571D01*
X18046183Y-11938524D01*
X18055706Y-11909952D01*
X18065230Y-11862333D01*
X18065230Y-11824238D01*
X18055706Y-11776619D01*
X18046183Y-11748047D01*
X18036659Y-11729000D01*
X18017611Y-11700428D01*
X18008087Y-11690905D01*
D14*
X11584635Y-12060500D02*
X11584635Y-12125500D01*
X11552135Y-12093000D02*
X11617135Y-12093000D01*
D11*
X11912849Y-11983476D02*
X11931897Y-11983476D01*
X11950944Y-11993000D01*
X11960468Y-12002524D01*
X11969992Y-12021571D01*
X11979516Y-12059666D01*
X11979516Y-12107286D01*
X11969992Y-12145381D01*
X11960468Y-12164428D01*
X11950944Y-12173952D01*
X11931897Y-12183476D01*
X11912849Y-12183476D01*
X11893801Y-12173952D01*
X11884278Y-12164428D01*
X11874754Y-12145381D01*
X11865230Y-12107286D01*
X11865230Y-12059666D01*
X11874754Y-12021571D01*
X11884278Y-12002524D01*
X11893801Y-11993000D01*
X11912849Y-11983476D01*
X12065230Y-12164428D02*
X12074754Y-12173952D01*
X12065230Y-12183476D01*
X12055706Y-12173952D01*
X12065230Y-12164428D01*
X12065230Y-12183476D01*
X12246182Y-11983476D02*
X12208087Y-11983476D01*
X12189040Y-11993000D01*
X12179516Y-12002524D01*
X12160468Y-12031095D01*
X12150944Y-12069190D01*
X12150944Y-12145381D01*
X12160468Y-12164428D01*
X12169992Y-12173952D01*
X12189040Y-12183476D01*
X12227135Y-12183476D01*
X12246182Y-12173952D01*
X12255706Y-12164428D01*
X12265230Y-12145381D01*
X12265230Y-12097762D01*
X12255706Y-12078714D01*
X12246182Y-12069190D01*
X12227135Y-12059666D01*
X12189040Y-12059666D01*
X12169992Y-12069190D01*
X12160468Y-12078714D01*
X12150944Y-12097762D01*
X12446182Y-11983476D02*
X12350944Y-11983476D01*
X12341421Y-12078714D01*
X12350944Y-12069190D01*
X12369992Y-12059666D01*
X12417611Y-12059666D01*
X12436659Y-12069190D01*
X12446182Y-12078714D01*
X12455706Y-12097762D01*
X12455706Y-12145381D01*
X12446182Y-12164428D01*
X12436659Y-12173952D01*
X12417611Y-12183476D01*
X12369992Y-12183476D01*
X12350944Y-12173952D01*
X12341421Y-12164428D01*
X12579516Y-11983476D02*
X12598563Y-11983476D01*
X12617611Y-11993000D01*
X12627135Y-12002524D01*
X12636659Y-12021571D01*
X12646182Y-12059666D01*
X12646182Y-12107286D01*
X12636659Y-12145381D01*
X12627135Y-12164428D01*
X12617611Y-12173952D01*
X12598563Y-12183476D01*
X12579516Y-12183476D01*
X12560468Y-12173952D01*
X12550944Y-12164428D01*
X12541421Y-12145381D01*
X12531897Y-12107286D01*
X12531897Y-12059666D01*
X12541421Y-12021571D01*
X12550944Y-12002524D01*
X12560468Y-11993000D01*
X12579516Y-11983476D01*
X12731897Y-12183476D02*
X12731897Y-12050143D01*
X12731897Y-12069190D02*
X12741421Y-12059666D01*
X12760468Y-12050143D01*
X12789040Y-12050143D01*
X12808087Y-12059666D01*
X12817611Y-12078714D01*
X12817611Y-12183476D01*
X12817611Y-12078714D02*
X12827135Y-12059666D01*
X12846182Y-12050143D01*
X12874754Y-12050143D01*
X12893801Y-12059666D01*
X12903325Y-12078714D01*
X12903325Y-12183476D01*
X12998563Y-12183476D02*
X12998563Y-12050143D01*
X12998563Y-12069190D02*
X13008087Y-12059666D01*
X13027135Y-12050143D01*
X13055706Y-12050143D01*
X13074754Y-12059666D01*
X13084278Y-12078714D01*
X13084278Y-12183476D01*
X13084278Y-12078714D02*
X13093801Y-12059666D01*
X13112849Y-12050143D01*
X13141421Y-12050143D01*
X13160468Y-12059666D01*
X13169992Y-12078714D01*
X13169992Y-12183476D01*
X13560468Y-11973952D02*
X13389040Y-12231095D01*
X13817611Y-11983476D02*
X13836659Y-11983476D01*
X13855706Y-11993000D01*
X13865230Y-12002524D01*
X13874754Y-12021571D01*
X13884278Y-12059666D01*
X13884278Y-12107286D01*
X13874754Y-12145381D01*
X13865230Y-12164428D01*
X13855706Y-12173952D01*
X13836659Y-12183476D01*
X13817611Y-12183476D01*
X13798563Y-12173952D01*
X13789040Y-12164428D01*
X13779516Y-12145381D01*
X13769992Y-12107286D01*
X13769992Y-12059666D01*
X13779516Y-12021571D01*
X13789040Y-12002524D01*
X13798563Y-11993000D01*
X13817611Y-11983476D01*
X13969992Y-12164428D02*
X13979516Y-12173952D01*
X13969992Y-12183476D01*
X13960468Y-12173952D01*
X13969992Y-12164428D01*
X13969992Y-12183476D01*
X14103325Y-11983476D02*
X14122373Y-11983476D01*
X14141421Y-11993000D01*
X14150944Y-12002524D01*
X14160468Y-12021571D01*
X14169992Y-12059666D01*
X14169992Y-12107286D01*
X14160468Y-12145381D01*
X14150944Y-12164428D01*
X14141421Y-12173952D01*
X14122373Y-12183476D01*
X14103325Y-12183476D01*
X14084278Y-12173952D01*
X14074754Y-12164428D01*
X14065230Y-12145381D01*
X14055706Y-12107286D01*
X14055706Y-12059666D01*
X14065230Y-12021571D01*
X14074754Y-12002524D01*
X14084278Y-11993000D01*
X14103325Y-11983476D01*
X14246182Y-12002524D02*
X14255706Y-11993000D01*
X14274754Y-11983476D01*
X14322373Y-11983476D01*
X14341421Y-11993000D01*
X14350944Y-12002524D01*
X14360468Y-12021571D01*
X14360468Y-12040619D01*
X14350944Y-12069190D01*
X14236659Y-12183476D01*
X14360468Y-12183476D01*
X14541421Y-11983476D02*
X14446182Y-11983476D01*
X14436659Y-12078714D01*
X14446182Y-12069190D01*
X14465230Y-12059666D01*
X14512849Y-12059666D01*
X14531897Y-12069190D01*
X14541421Y-12078714D01*
X14550944Y-12097762D01*
X14550944Y-12145381D01*
X14541421Y-12164428D01*
X14531897Y-12173952D01*
X14512849Y-12183476D01*
X14465230Y-12183476D01*
X14446182Y-12173952D01*
X14436659Y-12164428D01*
X14722373Y-11983476D02*
X14684278Y-11983476D01*
X14665230Y-11993000D01*
X14655706Y-12002524D01*
X14636659Y-12031095D01*
X14627135Y-12069190D01*
X14627135Y-12145381D01*
X14636659Y-12164428D01*
X14646182Y-12173952D01*
X14665230Y-12183476D01*
X14703325Y-12183476D01*
X14722373Y-12173952D01*
X14731897Y-12164428D01*
X14741421Y-12145381D01*
X14741421Y-12097762D01*
X14731897Y-12078714D01*
X14722373Y-12069190D01*
X14703325Y-12059666D01*
X14665230Y-12059666D01*
X14646182Y-12069190D01*
X14636659Y-12078714D01*
X14627135Y-12097762D01*
X14817611Y-11983476D02*
X14817611Y-12021571D01*
X14893801Y-11983476D02*
X14893801Y-12021571D01*
X15189040Y-12259666D02*
X15179516Y-12250143D01*
X15160468Y-12221571D01*
X15150944Y-12202524D01*
X15141421Y-12173952D01*
X15131897Y-12126333D01*
X15131897Y-12088238D01*
X15141421Y-12040619D01*
X15150944Y-12012047D01*
X15160468Y-11993000D01*
X15179516Y-11964428D01*
X15189040Y-11954905D01*
X15369992Y-12183476D02*
X15255706Y-12183476D01*
X15312849Y-12183476D02*
X15312849Y-11983476D01*
X15293801Y-12012047D01*
X15274754Y-12031095D01*
X15255706Y-12040619D01*
X15446182Y-12002524D02*
X15455706Y-11993000D01*
X15474754Y-11983476D01*
X15522373Y-11983476D01*
X15541421Y-11993000D01*
X15550944Y-12002524D01*
X15560468Y-12021571D01*
X15560468Y-12040619D01*
X15550944Y-12069190D01*
X15436659Y-12183476D01*
X15560468Y-12183476D01*
X15798563Y-12183476D02*
X15798563Y-11983476D01*
X15884278Y-12183476D02*
X15884278Y-12078714D01*
X15874754Y-12059666D01*
X15855706Y-12050143D01*
X15827135Y-12050143D01*
X15808087Y-12059666D01*
X15798563Y-12069190D01*
X16008087Y-12183476D02*
X15989040Y-12173952D01*
X15979516Y-12164428D01*
X15969992Y-12145381D01*
X15969992Y-12088238D01*
X15979516Y-12069190D01*
X15989040Y-12059666D01*
X16008087Y-12050143D01*
X16036659Y-12050143D01*
X16055706Y-12059666D01*
X16065230Y-12069190D01*
X16074754Y-12088238D01*
X16074754Y-12145381D01*
X16065230Y-12164428D01*
X16055706Y-12173952D01*
X16036659Y-12183476D01*
X16008087Y-12183476D01*
X16189040Y-12183476D02*
X16169992Y-12173952D01*
X16160468Y-12154905D01*
X16160468Y-11983476D01*
X16341421Y-12173952D02*
X16322373Y-12183476D01*
X16284278Y-12183476D01*
X16265230Y-12173952D01*
X16255706Y-12154905D01*
X16255706Y-12078714D01*
X16265230Y-12059666D01*
X16284278Y-12050143D01*
X16322373Y-12050143D01*
X16341421Y-12059666D01*
X16350944Y-12078714D01*
X16350944Y-12097762D01*
X16255706Y-12116809D01*
X16427135Y-12173952D02*
X16446182Y-12183476D01*
X16484278Y-12183476D01*
X16503325Y-12173952D01*
X16512849Y-12154905D01*
X16512849Y-12145381D01*
X16503325Y-12126333D01*
X16484278Y-12116809D01*
X16455706Y-12116809D01*
X16436659Y-12107286D01*
X16427135Y-12088238D01*
X16427135Y-12078714D01*
X16436659Y-12059666D01*
X16455706Y-12050143D01*
X16484278Y-12050143D01*
X16503325Y-12059666D01*
X16579516Y-12259666D02*
X16589040Y-12250143D01*
X16608087Y-12221571D01*
X16617611Y-12202524D01*
X16627135Y-12173952D01*
X16636659Y-12126333D01*
X16636659Y-12088238D01*
X16627135Y-12040619D01*
X16617611Y-12012047D01*
X16608087Y-11993000D01*
X16589040Y-11964428D01*
X16579516Y-11954905D01*
M02*
