%TF.GenerationSoftware,KiCad,Pcbnew,(6.0.7)*%
%TF.CreationDate,2022-11-04T16:49:25+01:00*%
%TF.ProjectId,LDAD ATOM PRO,4c444144-2041-4544-9f4d-2050524f2e6b,5.3*%
%TF.SameCoordinates,Original*%
%TF.FileFunction,Copper,L2,Bot*%
%TF.FilePolarity,Positive*%
%FSLAX46Y46*%
G04 Gerber Fmt 4.6, Leading zero omitted, Abs format (unit mm)*
G04 Created by KiCad (PCBNEW (6.0.7)) date 2022-11-04 16:49:25*
%MOMM*%
%LPD*%
G01*
G04 APERTURE LIST*
G04 Aperture macros list*
%AMRoundRect*
0 Rectangle with rounded corners*
0 $1 Rounding radius*
0 $2 $3 $4 $5 $6 $7 $8 $9 X,Y pos of 4 corners*
0 Add a 4 corners polygon primitive as box body*
4,1,4,$2,$3,$4,$5,$6,$7,$8,$9,$2,$3,0*
0 Add four circle primitives for the rounded corners*
1,1,$1+$1,$2,$3*
1,1,$1+$1,$4,$5*
1,1,$1+$1,$6,$7*
1,1,$1+$1,$8,$9*
0 Add four rect primitives between the rounded corners*
20,1,$1+$1,$2,$3,$4,$5,0*
20,1,$1+$1,$4,$5,$6,$7,0*
20,1,$1+$1,$6,$7,$8,$9,0*
20,1,$1+$1,$8,$9,$2,$3,0*%
G04 Aperture macros list end*
%TA.AperFunction,ComponentPad*%
%ADD10R,1.000000X1.000000*%
%TD*%
%TA.AperFunction,ComponentPad*%
%ADD11O,1.000000X1.000000*%
%TD*%
%TA.AperFunction,ComponentPad*%
%ADD12O,1.700000X1.100000*%
%TD*%
%TA.AperFunction,SMDPad,CuDef*%
%ADD13R,0.500000X0.500000*%
%TD*%
%TA.AperFunction,SMDPad,CuDef*%
%ADD14O,0.800000X1.500000*%
%TD*%
%TA.AperFunction,SMDPad,CuDef*%
%ADD15RoundRect,0.250000X0.475000X-0.250000X0.475000X0.250000X-0.475000X0.250000X-0.475000X-0.250000X0*%
%TD*%
%TA.AperFunction,SMDPad,CuDef*%
%ADD16RoundRect,0.150000X-0.150000X0.587500X-0.150000X-0.587500X0.150000X-0.587500X0.150000X0.587500X0*%
%TD*%
%TA.AperFunction,SMDPad,CuDef*%
%ADD17RoundRect,0.250000X-0.250000X-0.475000X0.250000X-0.475000X0.250000X0.475000X-0.250000X0.475000X0*%
%TD*%
%TA.AperFunction,ViaPad*%
%ADD18C,0.800000*%
%TD*%
%TA.AperFunction,ViaPad*%
%ADD19C,0.600000*%
%TD*%
%TA.AperFunction,ViaPad*%
%ADD20C,0.500000*%
%TD*%
%TA.AperFunction,ViaPad*%
%ADD21C,0.700000*%
%TD*%
%TA.AperFunction,Conductor*%
%ADD22C,0.300000*%
%TD*%
%TA.AperFunction,Conductor*%
%ADD23C,0.400000*%
%TD*%
%TA.AperFunction,Conductor*%
%ADD24C,0.200000*%
%TD*%
%TA.AperFunction,Conductor*%
%ADD25C,0.150000*%
%TD*%
%TA.AperFunction,Conductor*%
%ADD26C,0.320000*%
%TD*%
%TA.AperFunction,Conductor*%
%ADD27C,0.250000*%
%TD*%
%TA.AperFunction,Conductor*%
%ADD28C,0.510000*%
%TD*%
%TA.AperFunction,Conductor*%
%ADD29C,0.180000*%
%TD*%
G04 APERTURE END LIST*
D10*
%TO.P,J1,1,Pin_1*%
%TO.N,ADC_OUT*%
X123305000Y-92325000D03*
D11*
%TO.P,J1,2,Pin_2*%
%TO.N,GPIO8_I2C_SDA*%
X124575000Y-92325000D03*
%TO.P,J1,3,Pin_3*%
%TO.N,ADC_OUT*%
X123305000Y-93595000D03*
%TO.P,J1,4,Pin_4*%
%TO.N,GPIO06_EXT_PLUG2*%
X124575000Y-93595000D03*
%TO.P,J1,5,Pin_5*%
%TO.N,ADC_OUT*%
X123305000Y-94865000D03*
%TO.P,J1,6,Pin_6*%
%TO.N,Net-(EXP_R1-Pad2)*%
X124575000Y-94865000D03*
%TO.P,J1,7,Pin_7*%
%TO.N,ADC_OUT*%
X123305000Y-96135000D03*
%TO.P,J1,8,Pin_8*%
%TO.N,Net-(EXP_R2-Pad2)*%
X124575000Y-96135000D03*
%TO.P,J1,9,Pin_9*%
%TO.N,ADC_OUT*%
X123305000Y-97405000D03*
%TO.P,J1,10,Pin_10*%
%TO.N,Net-(EXP_R3-Pad2)*%
X124575000Y-97405000D03*
%TO.P,J1,11,Pin_11*%
%TO.N,ADC_OUT*%
X123305000Y-98675000D03*
%TO.P,J1,12,Pin_12*%
%TO.N,Net-(EXP_R4-Pad2)*%
X124575000Y-98675000D03*
%TD*%
D12*
%TO.P,J2,6,Shield*%
%TO.N,GND*%
X156990000Y-97160000D03*
X160470000Y-97140000D03*
X160470000Y-104360000D03*
X157000000Y-104350000D03*
%TD*%
D13*
%TO.P,REF\u002A\u002A,1*%
%TO.N,N/C*%
X135375000Y-96755000D03*
%TO.P,REF\u002A\u002A,2*%
X134750000Y-96760000D03*
%TD*%
D14*
%TO.P,ICSP1,1,Pin_1*%
%TO.N,5V0*%
X128275000Y-87150500D03*
%TO.P,ICSP1,2,Pin_2*%
%TO.N,GND*%
X127005000Y-87150500D03*
%TO.P,ICSP1,3,Pin_3*%
%TO.N,TXD0*%
X125735000Y-87150500D03*
%TO.P,ICSP1,4,Pin_4*%
%TO.N,RXD0*%
X124465000Y-87150500D03*
%TD*%
D15*
%TO.P,MCPC2,1*%
%TO.N,GND*%
X121380000Y-94730000D03*
%TO.P,MCPC2,2*%
%TO.N,VOLTAGE_REF*%
X121380000Y-92830000D03*
%TD*%
D16*
%TO.P,U1,1,Vin*%
%TO.N,3V3_PLUG*%
X117720000Y-94112500D03*
%TO.P,U1,2,Vout*%
%TO.N,VOLTAGE_REF*%
X119620000Y-94112500D03*
%TO.P,U1,3,Vss*%
%TO.N,GND*%
X118670000Y-95987500D03*
%TD*%
D17*
%TO.P,MCPC1,1*%
%TO.N,GND*%
X117680000Y-92070000D03*
%TO.P,MCPC1,2*%
%TO.N,3V3_PLUG*%
X119580000Y-92070000D03*
%TD*%
D18*
%TO.N,GND*%
X143280000Y-99230000D03*
D19*
X138670000Y-88630000D03*
X136010000Y-90800000D03*
D18*
X117430000Y-99150000D03*
X140460000Y-96390000D03*
X142030000Y-100500000D03*
X121390000Y-95900000D03*
X140810000Y-101870000D03*
D20*
X139360000Y-106450000D03*
D18*
X139430000Y-100410000D03*
X138110000Y-98950000D03*
D19*
X130530000Y-95260000D03*
D18*
X130440000Y-108690000D03*
D19*
X152330000Y-88540000D03*
D20*
X148180000Y-95930000D03*
D19*
X130410000Y-103290000D03*
D20*
X136320000Y-106470000D03*
X132440000Y-101950000D03*
D19*
X147580000Y-103110000D03*
X130460000Y-101500000D03*
D18*
X141860000Y-97750000D03*
D19*
X134490000Y-95260000D03*
X130520000Y-88730000D03*
D20*
X148590000Y-99620000D03*
D18*
X139210000Y-97790000D03*
D19*
X145860000Y-104830000D03*
D18*
X159400000Y-92680000D03*
D20*
X152510000Y-103110000D03*
X142030000Y-88630000D03*
X133270000Y-106360000D03*
D18*
X140630000Y-99060000D03*
D20*
X141500000Y-94330000D03*
D19*
X135360000Y-88600000D03*
%TO.N,VOLTAGE_REF*%
X138040000Y-104620000D03*
D20*
%TO.N,Net-(EC50-Pad1)*%
X141110000Y-90830000D03*
X143940000Y-102670000D03*
%TO.N,Net-(EC51-Pad1)*%
X143410000Y-103280000D03*
X142030000Y-93110000D03*
D21*
%TO.N,3V3*%
X141680000Y-105780000D03*
D19*
X155340000Y-87610000D03*
D18*
X132090000Y-87750000D03*
D20*
X145880000Y-107350000D03*
D21*
X141670000Y-106550000D03*
D19*
X135680000Y-99280000D03*
D20*
X134390000Y-89790000D03*
D19*
X138640000Y-95030000D03*
X149590000Y-87250000D03*
D20*
X146050000Y-107990000D03*
D19*
X161100000Y-88540000D03*
D18*
X131120000Y-87730000D03*
D20*
X142640000Y-103490000D03*
D19*
X155230000Y-86110000D03*
X159250000Y-105910000D03*
D20*
%TO.N,CHIP_EN*%
X129630000Y-96610000D03*
X136220000Y-101710000D03*
%TO.N,ESP_GPIO0_BOOT-DTR*%
X136770000Y-102200000D03*
X135990000Y-96810000D03*
X125330000Y-89280000D03*
X125560000Y-91180000D03*
D19*
%TO.N,GPIO8_I2C_SDA*%
X151870000Y-105810000D03*
X139050000Y-104730000D03*
D20*
X137440000Y-89740000D03*
D19*
X150510000Y-103940000D03*
D20*
X156260000Y-106060000D03*
X156280000Y-107760000D03*
X138010000Y-87690000D03*
%TO.N,SPIHD*%
X150460000Y-95660000D03*
X153940000Y-94990000D03*
%TO.N,SPICLK*%
X145340000Y-96210000D03*
X152950000Y-94940000D03*
%TO.N,SPID*%
X145630000Y-94510000D03*
X151910000Y-94420000D03*
D19*
%TO.N,TXD0*%
X127280000Y-90580000D03*
%TO.N,RXD0*%
X137350000Y-94490000D03*
D20*
X124530000Y-90330000D03*
X126290000Y-90530000D03*
%TO.N,GPIO9_I2C_SCL*%
X119860000Y-98930000D03*
X135800000Y-87620000D03*
D19*
X159150000Y-107810000D03*
X140080000Y-104420000D03*
D20*
X137690000Y-90820000D03*
D19*
X150530000Y-105060000D03*
%TO.N,Net-(ER2-Pad2)*%
X128490000Y-90600000D03*
X137430000Y-93580000D03*
D20*
%TO.N,SPICS1*%
X146800000Y-100730000D03*
X149160000Y-100230000D03*
%TO.N,IO35_LED_G*%
X144060000Y-87670000D03*
D19*
X144890000Y-92370000D03*
%TO.N,5V0*%
X120330000Y-90750000D03*
X130210000Y-86210000D03*
D18*
X159330000Y-98200000D03*
D19*
%TO.N,IO34_LED_B*%
X145650000Y-92800000D03*
D20*
X147170000Y-87810000D03*
D19*
%TO.N,IO36_LED_R*%
X144110000Y-92680000D03*
D20*
X141600000Y-87910000D03*
D19*
%TO.N,GPIO06_EXT_PLUG2*%
X137950000Y-103710000D03*
D20*
X128390000Y-98920000D03*
%TO.N,GPIO38_IMU_CS*%
X137450000Y-92080000D03*
X139750000Y-94540000D03*
%TO.N,GPIO2_PLUG_PWR_3V3*%
X137340000Y-102790000D03*
D19*
X129610000Y-98860000D03*
%TO.N,3V3_PLUG*%
X119440000Y-90210000D03*
%TD*%
D22*
%TO.N,GND*%
X130460000Y-101500000D02*
X130460000Y-104360000D01*
D23*
X155560000Y-91530000D02*
X155560000Y-93480000D01*
D22*
X130440000Y-108690000D02*
X145510000Y-108690000D01*
D24*
X135280000Y-95270000D02*
X134980000Y-95270000D01*
X148180000Y-95930000D02*
X148180000Y-97920000D01*
D25*
X127005000Y-87150500D02*
X127005000Y-89065000D01*
D26*
X118430000Y-99190000D02*
X117450000Y-99190000D01*
D24*
X134980000Y-95270000D02*
X136690000Y-95270000D01*
D23*
X155400000Y-88540000D02*
X155560000Y-88700000D01*
D24*
X143240000Y-99440000D02*
X140810000Y-101870000D01*
X139430000Y-100180000D02*
X141860000Y-97750000D01*
D23*
X130420000Y-89420000D02*
X130420000Y-91050000D01*
D24*
X139430000Y-100410000D02*
X139430000Y-100180000D01*
X147580000Y-103910000D02*
X146670000Y-104820000D01*
X138180000Y-99030000D02*
X138180000Y-98670000D01*
D22*
X127005000Y-86555000D02*
X127005000Y-87150500D01*
D24*
X134630000Y-95210000D02*
X130490000Y-95210000D01*
X147580000Y-103110000D02*
X147580000Y-103910000D01*
D23*
X156990000Y-94910000D02*
X156990000Y-96640000D01*
D26*
X121380000Y-95890000D02*
X121390000Y-95900000D01*
D24*
X152530000Y-103160000D02*
X152530000Y-101840000D01*
X136010000Y-90800000D02*
X136620000Y-91410000D01*
D26*
X116780000Y-92970000D02*
X117680000Y-92070000D01*
X121390000Y-95900000D02*
X121302500Y-95987500D01*
D24*
X130480000Y-88590000D02*
X130480000Y-88720000D01*
X139340000Y-106470000D02*
X139360000Y-106450000D01*
D27*
X132380000Y-105390000D02*
X133260000Y-106270000D01*
D23*
X127360000Y-89420000D02*
X127010000Y-89070000D01*
D24*
X137990000Y-99030000D02*
X138180000Y-99030000D01*
X135280000Y-95270000D02*
X136670000Y-95270000D01*
X136010000Y-90810000D02*
X136010000Y-88700000D01*
D23*
X138670000Y-88630000D02*
X142030000Y-88630000D01*
D22*
X130440000Y-108690000D02*
X130440000Y-107510000D01*
D24*
X148720000Y-99670000D02*
X148750000Y-99700000D01*
X136010000Y-88700000D02*
X136120000Y-88590000D01*
D26*
X121390000Y-95900000D02*
X121390000Y-96230000D01*
D23*
X152330000Y-88540000D02*
X153440000Y-88540000D01*
D27*
X133460000Y-106470000D02*
X136320000Y-106470000D01*
D24*
X139210000Y-97790000D02*
X139400000Y-97790000D01*
D27*
X132380000Y-103500000D02*
X132380000Y-105390000D01*
D24*
X135710000Y-95270000D02*
X135280000Y-95270000D01*
D27*
X132380000Y-103500000D02*
X132380000Y-101890000D01*
X133260000Y-106270000D02*
X133460000Y-106470000D01*
D24*
X134690000Y-95270000D02*
X134630000Y-95210000D01*
X139400000Y-97790000D02*
X142000000Y-100390000D01*
X138580000Y-91410000D02*
X141500000Y-94330000D01*
D23*
X130440000Y-88650000D02*
X133490000Y-88650000D01*
D24*
X136620000Y-91410000D02*
X138580000Y-91410000D01*
D23*
X155560000Y-88700000D02*
X155560000Y-91530000D01*
D24*
X136320000Y-106470000D02*
X139340000Y-106470000D01*
D23*
X130420000Y-89420000D02*
X127360000Y-89420000D01*
D26*
X118670000Y-95987500D02*
X117577500Y-95987500D01*
X117577500Y-95987500D02*
X116780000Y-95190000D01*
D23*
X130420000Y-88710000D02*
X130420000Y-89420000D01*
X153440000Y-88540000D02*
X155400000Y-88540000D01*
D24*
X148180000Y-99130000D02*
X148720000Y-99670000D01*
D26*
X121302500Y-95987500D02*
X118670000Y-95987500D01*
D24*
X152530000Y-101650000D02*
X152530000Y-101840000D01*
X143240000Y-99120000D02*
X143240000Y-99440000D01*
D26*
X121380000Y-94730000D02*
X121380000Y-95890000D01*
D24*
X148750000Y-99700000D02*
X150580000Y-99700000D01*
X127005000Y-87085000D02*
X127005000Y-86555000D01*
D23*
X153440000Y-88540000D02*
X147470000Y-88540000D01*
D24*
X136010000Y-90800000D02*
X136020000Y-90800000D01*
X146670000Y-104820000D02*
X145855000Y-104820000D01*
X148180000Y-97920000D02*
X148180000Y-99130000D01*
D23*
X136080000Y-88590000D02*
X135040000Y-88590000D01*
D26*
X121390000Y-96230000D02*
X118430000Y-99190000D01*
D25*
X127005000Y-89065000D02*
X127010000Y-89070000D01*
D24*
X136660000Y-95280000D02*
X136670000Y-95270000D01*
X138180000Y-98670000D02*
X140460000Y-96390000D01*
X136690000Y-95270000D02*
X139210000Y-97790000D01*
X150580000Y-99700000D02*
X152530000Y-101650000D01*
D23*
X130420000Y-89860000D02*
X130420000Y-91770000D01*
D24*
X134980000Y-95270000D02*
X134690000Y-95270000D01*
D23*
X155560000Y-93480000D02*
X156990000Y-94910000D01*
D26*
X116780000Y-95190000D02*
X116780000Y-92970000D01*
%TO.N,VOLTAGE_REF*%
X119620000Y-94112500D02*
X119620000Y-94110000D01*
D25*
X122040000Y-91100000D02*
X121380000Y-91760000D01*
D26*
X119620000Y-94110000D02*
X120900000Y-92830000D01*
D25*
X124660000Y-91100000D02*
X122040000Y-91100000D01*
X136080000Y-104620000D02*
X131430000Y-99970000D01*
X126500000Y-92940000D02*
X124660000Y-91100000D01*
X138040000Y-104620000D02*
X136080000Y-104620000D01*
X126500000Y-97870000D02*
X126500000Y-92940000D01*
X121380000Y-91760000D02*
X121380000Y-92830000D01*
D26*
X120900000Y-92830000D02*
X121380000Y-92830000D01*
D25*
X128600000Y-99970000D02*
X126500000Y-97870000D01*
X131430000Y-99970000D02*
X128600000Y-99970000D01*
%TO.N,Net-(EC50-Pad1)*%
X143910000Y-102670000D02*
X143960000Y-102720000D01*
X142130000Y-95240000D02*
X145460000Y-98570000D01*
X141110000Y-93140000D02*
X142130000Y-94160000D01*
X142130000Y-94160000D02*
X142130000Y-95240000D01*
X141110000Y-90830000D02*
X141110000Y-93140000D01*
X145460000Y-101150000D02*
X143940000Y-102670000D01*
X145460000Y-98570000D02*
X145460000Y-101150000D01*
%TO.N,Net-(EC51-Pad1)*%
X143410000Y-103280000D02*
X143520000Y-103390000D01*
X145840000Y-101570000D02*
X145840000Y-98380000D01*
X144020000Y-103390000D02*
X145840000Y-101570000D01*
X142510000Y-95050000D02*
X142510000Y-93590000D01*
X143520000Y-103390000D02*
X144020000Y-103390000D01*
X145840000Y-98380000D02*
X142510000Y-95050000D01*
X142510000Y-93590000D02*
X142030000Y-93110000D01*
D23*
%TO.N,3V3*%
X132720000Y-87730000D02*
X131120000Y-87730000D01*
X158430000Y-98770000D02*
X158690000Y-99030000D01*
D28*
X144135000Y-100235000D02*
X144900000Y-99470000D01*
D24*
X135190000Y-86810000D02*
X135150000Y-86770000D01*
D29*
X161100000Y-88540000D02*
X161100000Y-88310000D01*
X161100000Y-88310000D02*
X159100000Y-86310000D01*
D28*
X141680000Y-104180000D02*
X141680000Y-105780000D01*
X142645000Y-101725000D02*
X141015000Y-103355000D01*
X160260000Y-107820000D02*
X159480000Y-108600000D01*
X137535000Y-100035000D02*
X136780000Y-99280000D01*
D23*
X156190000Y-88070000D02*
X155730000Y-87610000D01*
D24*
X135170000Y-86790000D02*
X135150000Y-86770000D01*
D28*
X141795000Y-95855000D02*
X141210000Y-95270000D01*
D23*
X133495000Y-86955000D02*
X133300000Y-87150000D01*
D24*
X142250000Y-102160000D02*
X142250000Y-102120000D01*
D23*
X158430000Y-96750000D02*
X158430000Y-98770000D01*
D28*
X142645000Y-101725000D02*
X144135000Y-100235000D01*
X160260000Y-107420000D02*
X160260000Y-106920000D01*
D23*
X155340000Y-87610000D02*
X149950000Y-87610000D01*
D28*
X141210000Y-95270000D02*
X138880000Y-95270000D01*
D23*
X139860000Y-86770000D02*
X140750000Y-86770000D01*
X158690000Y-99030000D02*
X158690000Y-105350000D01*
D28*
X159480000Y-108600000D02*
X146650000Y-108600000D01*
X140855000Y-103355000D02*
X141330000Y-103830000D01*
D23*
X134250000Y-86770000D02*
X135150000Y-86770000D01*
D28*
X160260000Y-107420000D02*
X160260000Y-107820000D01*
D23*
X133495000Y-86955000D02*
X132720000Y-87730000D01*
X149950000Y-87610000D02*
X149590000Y-87250000D01*
X156190000Y-93100000D02*
X156190000Y-88070000D01*
X158430000Y-95340000D02*
X156190000Y-93100000D01*
D28*
X141015000Y-103355000D02*
X140855000Y-103355000D01*
X144900000Y-99470000D02*
X144900000Y-98960000D01*
X160260000Y-106920000D02*
X159250000Y-105910000D01*
D23*
X133680000Y-86770000D02*
X133495000Y-86955000D01*
D24*
X134390000Y-86910000D02*
X134250000Y-86770000D01*
D28*
X144900000Y-98960000D02*
X141795000Y-95855000D01*
D23*
X140750000Y-86770000D02*
X147660000Y-86770000D01*
X155730000Y-87610000D02*
X155340000Y-87610000D01*
D28*
X141330000Y-103830000D02*
X141575000Y-104075000D01*
D29*
X155430000Y-86310000D02*
X155230000Y-86110000D01*
D28*
X142250000Y-102120000D02*
X142645000Y-101725000D01*
D24*
X142280000Y-102120000D02*
X142250000Y-102120000D01*
D28*
X138880000Y-95270000D02*
X138640000Y-95030000D01*
D24*
X134390000Y-89790000D02*
X134390000Y-86910000D01*
D23*
X147660000Y-86770000D02*
X149110000Y-86770000D01*
D28*
X145880000Y-107830000D02*
X145880000Y-107350000D01*
D23*
X135150000Y-86770000D02*
X139860000Y-86770000D01*
X158430000Y-96750000D02*
X158430000Y-95340000D01*
D28*
X141575000Y-104075000D02*
X141680000Y-104180000D01*
D24*
X142630000Y-103470000D02*
X141820000Y-102660000D01*
D28*
X146650000Y-108600000D02*
X145880000Y-107830000D01*
D27*
X144135000Y-100245000D02*
X144135000Y-100235000D01*
D23*
X158690000Y-105350000D02*
X159250000Y-105910000D01*
D29*
X159100000Y-86310000D02*
X155430000Y-86310000D01*
D28*
X136780000Y-99280000D02*
X135680000Y-99280000D01*
D23*
X134250000Y-86770000D02*
X133680000Y-86770000D01*
D28*
X137535000Y-100035000D02*
X140855000Y-103355000D01*
D23*
X149110000Y-86770000D02*
X149590000Y-87250000D01*
D25*
%TO.N,CHIP_EN*%
X136210000Y-101610000D02*
X134640000Y-101610000D01*
X129740000Y-96710000D02*
X129740000Y-96570000D01*
X134640000Y-101610000D02*
X129740000Y-96710000D01*
%TO.N,ESP_GPIO0_BOOT-DTR*%
X134630000Y-101060000D02*
X136500000Y-101060000D01*
D24*
X135277500Y-96787500D02*
X135282500Y-96782500D01*
D25*
X135990000Y-96810000D02*
X135310000Y-96810000D01*
X131325000Y-97755000D02*
X134630000Y-101060000D01*
X130630000Y-96810000D02*
X130630000Y-96380000D01*
X130630000Y-96810000D02*
X131310000Y-96810000D01*
X130630000Y-97060000D02*
X130630000Y-96810000D01*
X131325000Y-97755000D02*
X130870000Y-97300000D01*
D24*
X125430000Y-89310000D02*
X125430000Y-91070000D01*
D25*
X131310000Y-96810000D02*
X131670000Y-96810000D01*
X130870000Y-97300000D02*
X130630000Y-97060000D01*
X136800000Y-101360000D02*
X136800000Y-102110000D01*
X135310000Y-96810000D02*
X135282500Y-96782500D01*
X130630000Y-96380000D02*
X125420000Y-91170000D01*
X131670000Y-96810000D02*
X135990000Y-96810000D01*
X136500000Y-101060000D02*
X136800000Y-101360000D01*
X134657500Y-96787500D02*
X135277500Y-96787500D01*
X136800000Y-102110000D02*
X136720000Y-102190000D01*
%TO.N,GPIO8_I2C_SDA*%
X155530000Y-105330000D02*
X155530000Y-94740000D01*
X144290000Y-105480000D02*
X142110000Y-107660000D01*
X142290000Y-90460000D02*
X141570000Y-89740000D01*
X148200000Y-103940000D02*
X146660000Y-105480000D01*
X146660000Y-105480000D02*
X144290000Y-105480000D01*
X125365000Y-92325000D02*
X124575000Y-92325000D01*
X150510000Y-103940000D02*
X148200000Y-103940000D01*
X129570000Y-104180000D02*
X129570000Y-102100000D01*
X126100000Y-93060000D02*
X125365000Y-92325000D01*
X142290000Y-91870000D02*
X142290000Y-90460000D01*
X137440000Y-89740000D02*
X137440000Y-88210000D01*
X140430000Y-103790000D02*
X140080000Y-103790000D01*
D24*
X156280000Y-107760000D02*
X156280000Y-107740000D01*
D25*
X143940000Y-93520000D02*
X142290000Y-91870000D01*
X139940000Y-106010000D02*
X139940000Y-105620000D01*
X132570000Y-107180000D02*
X129570000Y-104180000D01*
X141280000Y-107660000D02*
X140910000Y-107290000D01*
X139490000Y-107180000D02*
X132570000Y-107180000D01*
D24*
X156280000Y-107740000D02*
X154350000Y-105810000D01*
D25*
X139050000Y-104380000D02*
X139050000Y-104730000D01*
X139940000Y-106010000D02*
X139940000Y-106730000D01*
X126100000Y-98630000D02*
X126100000Y-93060000D01*
D24*
X154350000Y-105810000D02*
X151870000Y-105810000D01*
D25*
X139940000Y-106730000D02*
X139490000Y-107180000D01*
X141570000Y-89740000D02*
X137440000Y-89740000D01*
X129570000Y-102100000D02*
X126100000Y-98630000D01*
X137440000Y-88210000D02*
X137960000Y-87690000D01*
X156260000Y-106060000D02*
X155530000Y-105330000D01*
X139640000Y-103790000D02*
X139050000Y-104380000D01*
X139940000Y-105620000D02*
X139050000Y-104730000D01*
X140910000Y-104270000D02*
X140430000Y-103790000D01*
X137960000Y-87690000D02*
X138010000Y-87690000D01*
X154310000Y-93520000D02*
X143940000Y-93520000D01*
X142110000Y-107660000D02*
X141280000Y-107660000D01*
X155530000Y-94740000D02*
X154310000Y-93520000D01*
X140080000Y-103790000D02*
X139640000Y-103790000D01*
X140910000Y-107290000D02*
X140910000Y-104270000D01*
D24*
%TO.N,SPIHD*%
X152100000Y-95510000D02*
X151660000Y-95510000D01*
X153460000Y-95510000D02*
X152100000Y-95510000D01*
X153940000Y-94990000D02*
X153940000Y-95030000D01*
X152100000Y-95510000D02*
X150610000Y-95510000D01*
X153940000Y-95030000D02*
X153460000Y-95510000D01*
X150610000Y-95510000D02*
X150460000Y-95660000D01*
%TO.N,SPICLK*%
X146270000Y-94990000D02*
X145340000Y-95920000D01*
X152370000Y-94990000D02*
X146270000Y-94990000D01*
X152900000Y-94990000D02*
X152950000Y-94940000D01*
X152790000Y-94990000D02*
X152950000Y-94830000D01*
X145340000Y-95920000D02*
X145340000Y-96210000D01*
X152370000Y-94990000D02*
X152790000Y-94990000D01*
X152370000Y-94990000D02*
X152900000Y-94990000D01*
%TO.N,SPID*%
X151820000Y-94510000D02*
X151910000Y-94420000D01*
X145630000Y-94510000D02*
X151820000Y-94510000D01*
%TO.N,TXD0*%
X125735000Y-88855000D02*
X126415000Y-89535000D01*
X125735000Y-87150500D02*
X125735000Y-88855000D01*
X126415000Y-89535000D02*
X127270000Y-90390000D01*
X127270000Y-90390000D02*
X127270000Y-90770000D01*
D25*
%TO.N,RXD0*%
X126290000Y-91400000D02*
X126290000Y-90640000D01*
X137350000Y-94490000D02*
X129380000Y-94490000D01*
X124465000Y-87050500D02*
X124465000Y-89195000D01*
X129380000Y-94490000D02*
X126290000Y-91400000D01*
X124465000Y-89195000D02*
X124465000Y-90265000D01*
X124465000Y-89195000D02*
X124465000Y-89875000D01*
X124465000Y-90265000D02*
X124530000Y-90330000D01*
%TO.N,GPIO9_I2C_SCL*%
X119860000Y-98930000D02*
X122240000Y-101310000D01*
X142280000Y-108010000D02*
X141120000Y-108010000D01*
X144450000Y-105840000D02*
X142280000Y-108010000D01*
X140430000Y-107370000D02*
X140620000Y-107560000D01*
X159235000Y-107750000D02*
X157200000Y-107750000D01*
X146800000Y-105840000D02*
X144450000Y-105840000D01*
X141560000Y-90260000D02*
X138250000Y-90260000D01*
X129200000Y-104330000D02*
X132430000Y-107560000D01*
X140170000Y-107560000D02*
X140360000Y-107370000D01*
X136780000Y-88430000D02*
X135960000Y-87610000D01*
X140400000Y-104710000D02*
X140400000Y-106470000D01*
X132430000Y-107560000D02*
X140170000Y-107560000D01*
X129200000Y-102250000D02*
X129200000Y-104330000D01*
X157200000Y-107750000D02*
X155090000Y-105640000D01*
X154280000Y-104960000D02*
X155020000Y-104960000D01*
X136780000Y-89050000D02*
X136780000Y-88430000D01*
X140400000Y-106470000D02*
X140400000Y-107370000D01*
X137690000Y-90820000D02*
X137280000Y-90820000D01*
X154280000Y-104960000D02*
X150490000Y-104960000D01*
X128260000Y-101310000D02*
X129200000Y-102250000D01*
X147580000Y-105060000D02*
X146800000Y-105840000D01*
X140620000Y-107560000D02*
X140370000Y-107560000D01*
X141910000Y-92050000D02*
X141910000Y-90610000D01*
X140400000Y-107370000D02*
X140430000Y-107370000D01*
X122240000Y-101310000D02*
X128260000Y-101310000D01*
X155090000Y-94800000D02*
X154160000Y-93870000D01*
X140370000Y-107560000D02*
X140170000Y-107560000D01*
X154160000Y-93870000D02*
X143730000Y-93870000D01*
X140110000Y-104420000D02*
X140400000Y-104710000D01*
X137280000Y-90820000D02*
X136780000Y-90320000D01*
X150530000Y-105060000D02*
X147580000Y-105060000D01*
X138250000Y-90260000D02*
X137690000Y-90820000D01*
D24*
X140080000Y-104420000D02*
X140110000Y-104420000D01*
D25*
X136780000Y-90320000D02*
X136780000Y-89050000D01*
X140360000Y-107370000D02*
X140400000Y-107370000D01*
X141120000Y-108010000D02*
X140670000Y-107560000D01*
X155090000Y-105640000D02*
X155090000Y-94800000D01*
X143730000Y-93870000D02*
X141910000Y-92050000D01*
X140400000Y-107370000D02*
X140400000Y-107530000D01*
X141910000Y-90610000D02*
X141560000Y-90260000D01*
X140400000Y-107530000D02*
X140370000Y-107560000D01*
X140670000Y-107560000D02*
X140620000Y-107560000D01*
%TO.N,Net-(ER2-Pad2)*%
X137430000Y-93580000D02*
X130280000Y-93580000D01*
X130280000Y-93580000D02*
X128460000Y-91760000D01*
X128460000Y-91760000D02*
X128460000Y-90630000D01*
D29*
%TO.N,SPICS1*%
X148510000Y-100880000D02*
X149160000Y-100230000D01*
X147820000Y-100880000D02*
X148510000Y-100880000D01*
D24*
X146940000Y-100880000D02*
X146780000Y-100720000D01*
D29*
X147820000Y-100880000D02*
X146940000Y-100880000D01*
D24*
%TO.N,IO35_LED_G*%
X143970000Y-87830000D02*
X144070000Y-87730000D01*
D25*
X144890000Y-92370000D02*
X144890000Y-88500000D01*
X144890000Y-88500000D02*
X144060000Y-87670000D01*
D23*
%TO.N,5V0*%
X128290000Y-86160000D02*
X128260000Y-86130000D01*
X159090000Y-96380000D02*
X159090000Y-95120000D01*
X159090000Y-96380000D02*
X159090000Y-97470000D01*
D27*
X123050000Y-86540000D02*
X120320000Y-89270000D01*
D23*
X129540000Y-86160000D02*
X128550000Y-86160000D01*
X128275000Y-87150500D02*
X128260000Y-87135500D01*
X129800000Y-86160000D02*
X129540000Y-86160000D01*
X159090000Y-97960000D02*
X159330000Y-98200000D01*
D27*
X123050000Y-86540000D02*
X123590000Y-86000000D01*
D23*
X148750000Y-86160000D02*
X129800000Y-86160000D01*
X149680000Y-86160000D02*
X150005000Y-86485000D01*
X155830000Y-86850000D02*
X156840000Y-87860000D01*
X128550000Y-86160000D02*
X128290000Y-86160000D01*
D27*
X127890000Y-86000000D02*
X128390000Y-86000000D01*
D23*
X128260000Y-87092750D02*
X128260000Y-86087250D01*
D27*
X128390000Y-86000000D02*
X128550000Y-86160000D01*
D23*
X159090000Y-95120000D02*
X156840000Y-92870000D01*
X148750000Y-86160000D02*
X149680000Y-86160000D01*
D27*
X120320000Y-89270000D02*
X120320000Y-90630000D01*
X127890000Y-86000000D02*
X128130000Y-86000000D01*
D23*
X150005000Y-86485000D02*
X150370000Y-86850000D01*
X156840000Y-87860000D02*
X156840000Y-88270000D01*
X159090000Y-96380000D02*
X159090000Y-97960000D01*
X150370000Y-86850000D02*
X155830000Y-86850000D01*
X156840000Y-92870000D02*
X156840000Y-88270000D01*
D27*
X123590000Y-86000000D02*
X127890000Y-86000000D01*
X128130000Y-86000000D02*
X128260000Y-86130000D01*
D25*
%TO.N,IO34_LED_B*%
X145650000Y-92800000D02*
X145650000Y-88450000D01*
X146290000Y-87810000D02*
X147170000Y-87810000D01*
X145650000Y-88450000D02*
X146290000Y-87810000D01*
%TO.N,IO36_LED_R*%
X142160000Y-87890000D02*
X141710000Y-87890000D01*
X144110000Y-89600000D02*
X144110000Y-89970000D01*
X142400000Y-87890000D02*
X142160000Y-87890000D01*
X143290000Y-87890000D02*
X142160000Y-87890000D01*
X144110000Y-89970000D02*
X144110000Y-92680000D01*
X144110000Y-88710000D02*
X143290000Y-87890000D01*
X144110000Y-89970000D02*
X144110000Y-88710000D01*
%TO.N,GPIO06_EXT_PLUG2*%
X138150000Y-103720000D02*
X135700000Y-103720000D01*
X132075000Y-100095000D02*
X131590000Y-99610000D01*
X128520000Y-99060000D02*
X128520000Y-98920000D01*
X131590000Y-99610000D02*
X129070000Y-99610000D01*
X135700000Y-103720000D02*
X132075000Y-100095000D01*
X129070000Y-99610000D02*
X128520000Y-99060000D01*
%TO.N,GPIO38_IMU_CS*%
X139770000Y-94540000D02*
X137450000Y-92220000D01*
X137450000Y-92220000D02*
X137450000Y-91930000D01*
%TO.N,GPIO2_PLUG_PWR_3V3*%
X136680000Y-102790000D02*
X135310000Y-102790000D01*
X137400000Y-102790000D02*
X136680000Y-102790000D01*
X131300000Y-98780000D02*
X129450000Y-98780000D01*
X135310000Y-102790000D02*
X132405000Y-99885000D01*
X132405000Y-99885000D02*
X131300000Y-98780000D01*
D26*
%TO.N,3V3_PLUG*%
X119580000Y-92070000D02*
X119440000Y-91930000D01*
X119440000Y-91930000D02*
X119440000Y-90210000D01*
X119580000Y-92070000D02*
X119580000Y-92252500D01*
X119580000Y-92252500D02*
X117720000Y-94112500D01*
%TD*%
%TA.AperFunction,Conductor*%
%TO.N,GND*%
G36*
X155046799Y-88084502D02*
G01*
X155053000Y-88088863D01*
X155053807Y-88089329D01*
X155060357Y-88094355D01*
X155067983Y-88097514D01*
X155067985Y-88097515D01*
X155172113Y-88140646D01*
X155195246Y-88150228D01*
X155340000Y-88169285D01*
X155348188Y-88168207D01*
X155476566Y-88151306D01*
X155484754Y-88150228D01*
X155507887Y-88140646D01*
X155578477Y-88133057D01*
X155645200Y-88167960D01*
X155698595Y-88221355D01*
X155732621Y-88283667D01*
X155735500Y-88310450D01*
X155735500Y-93065544D01*
X155734627Y-93080353D01*
X155730593Y-93114438D01*
X155732285Y-93123702D01*
X155732285Y-93123705D01*
X155741229Y-93172680D01*
X155741878Y-93176582D01*
X155749284Y-93225836D01*
X155750685Y-93235151D01*
X155753838Y-93241718D01*
X155755147Y-93248883D01*
X155782462Y-93301467D01*
X155784205Y-93304957D01*
X155809846Y-93358353D01*
X155814741Y-93363648D01*
X155814834Y-93363787D01*
X155818148Y-93370166D01*
X155822494Y-93375254D01*
X155860076Y-93412836D01*
X155863506Y-93416401D01*
X155902617Y-93458712D01*
X155909017Y-93462430D01*
X155915277Y-93468037D01*
X157938595Y-95491355D01*
X157972621Y-95553667D01*
X157975500Y-95580450D01*
X157975500Y-96116411D01*
X157955498Y-96184532D01*
X157901842Y-96231025D01*
X157831568Y-96241129D01*
X157788799Y-96226826D01*
X157714202Y-96185816D01*
X157702938Y-96180988D01*
X157516905Y-96121975D01*
X157504916Y-96119427D01*
X157353053Y-96102393D01*
X157346029Y-96102000D01*
X157262115Y-96102000D01*
X157246876Y-96106475D01*
X157245671Y-96107865D01*
X157244000Y-96115548D01*
X157244000Y-97288000D01*
X157223998Y-97356121D01*
X157170342Y-97402614D01*
X157118000Y-97414000D01*
X156862000Y-97414000D01*
X156793879Y-97393998D01*
X156747386Y-97340342D01*
X156736000Y-97288000D01*
X156736000Y-96120115D01*
X156731525Y-96104876D01*
X156730135Y-96103671D01*
X156722452Y-96102000D01*
X156640876Y-96102000D01*
X156634728Y-96102301D01*
X156489639Y-96116527D01*
X156477604Y-96118910D01*
X156290777Y-96175317D01*
X156279435Y-96179992D01*
X156107121Y-96271612D01*
X156096905Y-96278399D01*
X156065136Y-96304310D01*
X155999705Y-96331864D01*
X155929763Y-96319669D01*
X155877518Y-96271597D01*
X155859500Y-96206667D01*
X155859500Y-94759882D01*
X155859980Y-94748900D01*
X155862349Y-94721822D01*
X155863310Y-94710840D01*
X155853419Y-94673927D01*
X155851041Y-94663199D01*
X155846319Y-94636419D01*
X155846319Y-94636418D01*
X155844405Y-94625566D01*
X155838894Y-94616021D01*
X155837637Y-94612567D01*
X155836087Y-94609244D01*
X155833235Y-94598599D01*
X155811315Y-94567294D01*
X155805410Y-94558024D01*
X155791819Y-94534483D01*
X155791816Y-94534479D01*
X155786305Y-94524934D01*
X155757044Y-94500381D01*
X155748940Y-94492956D01*
X155495736Y-94239752D01*
X155490000Y-88590000D01*
X151300000Y-88550000D01*
X151298002Y-88191201D01*
X151317625Y-88122970D01*
X151371021Y-88076180D01*
X151424000Y-88064500D01*
X154978678Y-88064500D01*
X155046799Y-88084502D01*
G37*
%TD.AperFunction*%
%TA.AperFunction,Conductor*%
G36*
X158973234Y-86674502D02*
G01*
X158994208Y-86691405D01*
X160540741Y-88237938D01*
X160574767Y-88300250D01*
X160568054Y-88375252D01*
X160559772Y-88395246D01*
X160540715Y-88540000D01*
X160541793Y-88548188D01*
X160547298Y-88590000D01*
X160559772Y-88684754D01*
X160615645Y-88819642D01*
X160704526Y-88935474D01*
X160711076Y-88940500D01*
X160711079Y-88940503D01*
X160805238Y-89012754D01*
X160820357Y-89024355D01*
X160955246Y-89080228D01*
X161100000Y-89099285D01*
X161108188Y-89098207D01*
X161236566Y-89081306D01*
X161244754Y-89080228D01*
X161379643Y-89024355D01*
X161380567Y-89026587D01*
X161437584Y-89012754D01*
X161504676Y-89035974D01*
X161548564Y-89091780D01*
X161557590Y-89138555D01*
X161560708Y-96154650D01*
X161540736Y-96222780D01*
X161487101Y-96269296D01*
X161416832Y-96279431D01*
X161371248Y-96261676D01*
X161370627Y-96262806D01*
X161194202Y-96165816D01*
X161182938Y-96160988D01*
X160996905Y-96101975D01*
X160984916Y-96099427D01*
X160833053Y-96082393D01*
X160826029Y-96082000D01*
X160742115Y-96082000D01*
X160726876Y-96086475D01*
X160725671Y-96087865D01*
X160724000Y-96095548D01*
X160724000Y-97268000D01*
X160703998Y-97336121D01*
X160650342Y-97382614D01*
X160598000Y-97394000D01*
X160342000Y-97394000D01*
X160273879Y-97373998D01*
X160227386Y-97320342D01*
X160216000Y-97268000D01*
X160216000Y-96100115D01*
X160211525Y-96084876D01*
X160210135Y-96083671D01*
X160202452Y-96082000D01*
X160120876Y-96082000D01*
X160114728Y-96082301D01*
X159969639Y-96096527D01*
X159957604Y-96098910D01*
X159770777Y-96155317D01*
X159759439Y-96159990D01*
X159729654Y-96175827D01*
X159660116Y-96190147D01*
X159593876Y-96164599D01*
X159551963Y-96107295D01*
X159544500Y-96064576D01*
X159544500Y-95154464D01*
X159545373Y-95139654D01*
X159548301Y-95114915D01*
X159549408Y-95105563D01*
X159538763Y-95047275D01*
X159538119Y-95043407D01*
X159534329Y-95018198D01*
X159529315Y-94984849D01*
X159526162Y-94978282D01*
X159524853Y-94971117D01*
X159497554Y-94918564D01*
X159495785Y-94915023D01*
X159474233Y-94870140D01*
X159474231Y-94870137D01*
X159470154Y-94861647D01*
X159465264Y-94856357D01*
X159465159Y-94856202D01*
X159461852Y-94849835D01*
X159457506Y-94844746D01*
X159419924Y-94807164D01*
X159416494Y-94803598D01*
X159383774Y-94768202D01*
X159377383Y-94761288D01*
X159370983Y-94757570D01*
X159364723Y-94751963D01*
X157331405Y-92718645D01*
X157297379Y-92656333D01*
X157294500Y-92629550D01*
X157294500Y-87894457D01*
X157295373Y-87879648D01*
X157298300Y-87854916D01*
X157299407Y-87845563D01*
X157288771Y-87787324D01*
X157288121Y-87783420D01*
X157280715Y-87734158D01*
X157280714Y-87734155D01*
X157279315Y-87724849D01*
X157276162Y-87718282D01*
X157274853Y-87711117D01*
X157247554Y-87658564D01*
X157245785Y-87655023D01*
X157224233Y-87610140D01*
X157224231Y-87610137D01*
X157220154Y-87601647D01*
X157215264Y-87596357D01*
X157215159Y-87596202D01*
X157211852Y-87589835D01*
X157207506Y-87584746D01*
X157169924Y-87547164D01*
X157166494Y-87543598D01*
X157127383Y-87501288D01*
X157120983Y-87497570D01*
X157114723Y-87491963D01*
X156492355Y-86869595D01*
X156458329Y-86807283D01*
X156463394Y-86736468D01*
X156505941Y-86679632D01*
X156572461Y-86654821D01*
X156581450Y-86654500D01*
X158905113Y-86654500D01*
X158973234Y-86674502D01*
G37*
%TD.AperFunction*%
%TD*%
%TA.AperFunction,Conductor*%
%TO.N,GND*%
G36*
X151383080Y-105309502D02*
G01*
X151429573Y-105363158D01*
X151439677Y-105433432D01*
X151414921Y-105492205D01*
X151390672Y-105523806D01*
X151390670Y-105523809D01*
X151385645Y-105530358D01*
X151382486Y-105537984D01*
X151382485Y-105537986D01*
X151356704Y-105600228D01*
X151329772Y-105665246D01*
X151328695Y-105673430D01*
X151328694Y-105673432D01*
X151315742Y-105771812D01*
X151310715Y-105810000D01*
X151311793Y-105818188D01*
X151327541Y-105937806D01*
X151329772Y-105954754D01*
X151385645Y-106089642D01*
X151390672Y-106096193D01*
X151458434Y-106184502D01*
X151474526Y-106205474D01*
X151481076Y-106210500D01*
X151481079Y-106210503D01*
X151583804Y-106289327D01*
X151590357Y-106294355D01*
X151725246Y-106350228D01*
X151870000Y-106369285D01*
X151878188Y-106368207D01*
X152006566Y-106351306D01*
X152014754Y-106350228D01*
X152149643Y-106294355D01*
X152265474Y-106205474D01*
X152269012Y-106200863D01*
X152330331Y-106167379D01*
X152357114Y-106164500D01*
X154150971Y-106164500D01*
X154219092Y-106184502D01*
X154240066Y-106201405D01*
X155541662Y-107503001D01*
X155575688Y-107565313D01*
X155578567Y-107591964D01*
X155578958Y-107964368D01*
X155559027Y-108032509D01*
X155505421Y-108079059D01*
X155452958Y-108090500D01*
X146913232Y-108090500D01*
X146845111Y-108070498D01*
X146824136Y-108053595D01*
X146647514Y-107876972D01*
X146441904Y-107671362D01*
X146435546Y-107664514D01*
X146420046Y-107646525D01*
X146390733Y-107581862D01*
X146389500Y-107564278D01*
X146389500Y-107364292D01*
X146389582Y-107362454D01*
X146389536Y-107362453D01*
X146389688Y-107350000D01*
X146391300Y-107350020D01*
X146391598Y-107348687D01*
X146389500Y-107348687D01*
X146389500Y-107313418D01*
X146374049Y-107205530D01*
X146313643Y-107072674D01*
X146285306Y-107039787D01*
X146224235Y-106968910D01*
X146224233Y-106968908D01*
X146218377Y-106962112D01*
X146095908Y-106882732D01*
X145956083Y-106840915D01*
X145947107Y-106840860D01*
X145947106Y-106840860D01*
X145885943Y-106840486D01*
X145810142Y-106840023D01*
X145669816Y-106880129D01*
X145546387Y-106958007D01*
X145449777Y-107067397D01*
X145387753Y-107199505D01*
X145370500Y-107310309D01*
X145370500Y-107342810D01*
X145370350Y-107343773D01*
X145370500Y-107344920D01*
X145370500Y-107758817D01*
X145369141Y-107770978D01*
X145369620Y-107771017D01*
X145368900Y-107779963D01*
X145366919Y-107788719D01*
X145368973Y-107821819D01*
X145370258Y-107842539D01*
X145370500Y-107850341D01*
X145370500Y-107866582D01*
X145371135Y-107871015D01*
X145371135Y-107871016D01*
X145371988Y-107876972D01*
X145373018Y-107887028D01*
X145375400Y-107925424D01*
X145375956Y-107934383D01*
X145379003Y-107942824D01*
X145379577Y-107945595D01*
X145383881Y-107962855D01*
X145384678Y-107965579D01*
X145385951Y-107974470D01*
X145389668Y-107982645D01*
X145405591Y-108017668D01*
X145409403Y-108027032D01*
X145425513Y-108071655D01*
X145430809Y-108078904D01*
X145432146Y-108081419D01*
X145441108Y-108096756D01*
X145442641Y-108099153D01*
X145446357Y-108107326D01*
X145452219Y-108114129D01*
X145477321Y-108143261D01*
X145483609Y-108151179D01*
X145491663Y-108162205D01*
X145502667Y-108173209D01*
X145509024Y-108180055D01*
X145541623Y-108217888D01*
X145549153Y-108222769D01*
X145555314Y-108228143D01*
X145567296Y-108237838D01*
X145982891Y-108653433D01*
X146016917Y-108715745D01*
X146011852Y-108786560D01*
X145969305Y-108843396D01*
X145902785Y-108868207D01*
X145893897Y-108868528D01*
X137969032Y-108874894D01*
X130336275Y-108881026D01*
X130268140Y-108861079D01*
X130221604Y-108807460D01*
X130210176Y-108754790D01*
X130210955Y-108339980D01*
X130212525Y-107503001D01*
X130215130Y-106115068D01*
X130235260Y-106046984D01*
X130289003Y-106000592D01*
X130359296Y-105990620D01*
X130423821Y-106020235D01*
X130430225Y-106026209D01*
X132182945Y-107778929D01*
X132190372Y-107787033D01*
X132214934Y-107816305D01*
X132224479Y-107821816D01*
X132224483Y-107821819D01*
X132248024Y-107835410D01*
X132257294Y-107841315D01*
X132288599Y-107863235D01*
X132299244Y-107866087D01*
X132302567Y-107867637D01*
X132306021Y-107868894D01*
X132315566Y-107874405D01*
X132326418Y-107876319D01*
X132326419Y-107876319D01*
X132353199Y-107881041D01*
X132363927Y-107883419D01*
X132400840Y-107893310D01*
X132411815Y-107892350D01*
X132411816Y-107892350D01*
X132438915Y-107889979D01*
X132449896Y-107889500D01*
X140150118Y-107889500D01*
X140161100Y-107889980D01*
X140188175Y-107892349D01*
X140188176Y-107892349D01*
X140199160Y-107893310D01*
X140209809Y-107890457D01*
X140215270Y-107889979D01*
X140226249Y-107889500D01*
X140350118Y-107889500D01*
X140361100Y-107889980D01*
X140388175Y-107892349D01*
X140388176Y-107892349D01*
X140399160Y-107893310D01*
X140409809Y-107890457D01*
X140415270Y-107889979D01*
X140426249Y-107889500D01*
X140481327Y-107889500D01*
X140549448Y-107909502D01*
X140570422Y-107926405D01*
X140872940Y-108228923D01*
X140880367Y-108237027D01*
X140904934Y-108266305D01*
X140914477Y-108271815D01*
X140914481Y-108271818D01*
X140938029Y-108285413D01*
X140947300Y-108291319D01*
X140969571Y-108306914D01*
X140969573Y-108306915D01*
X140978599Y-108313235D01*
X140989243Y-108316087D01*
X140992567Y-108317637D01*
X140996021Y-108318894D01*
X141005566Y-108324405D01*
X141016418Y-108326319D01*
X141016419Y-108326319D01*
X141043199Y-108331041D01*
X141053930Y-108333420D01*
X141080191Y-108340457D01*
X141080193Y-108340457D01*
X141090840Y-108343310D01*
X141101824Y-108342349D01*
X141101825Y-108342349D01*
X141128900Y-108339980D01*
X141139882Y-108339500D01*
X142260118Y-108339500D01*
X142271100Y-108339980D01*
X142298175Y-108342349D01*
X142298176Y-108342349D01*
X142309160Y-108343310D01*
X142319807Y-108340457D01*
X142319809Y-108340457D01*
X142346070Y-108333420D01*
X142356801Y-108331041D01*
X142383581Y-108326319D01*
X142383582Y-108326319D01*
X142394434Y-108324405D01*
X142403979Y-108318894D01*
X142407433Y-108317637D01*
X142410757Y-108316087D01*
X142421401Y-108313235D01*
X142430427Y-108306915D01*
X142430429Y-108306914D01*
X142452700Y-108291319D01*
X142461971Y-108285413D01*
X142485515Y-108271820D01*
X142485518Y-108271818D01*
X142495066Y-108266305D01*
X142519640Y-108237019D01*
X142527055Y-108228928D01*
X144549578Y-106206405D01*
X144611890Y-106172379D01*
X144638673Y-106169500D01*
X146780118Y-106169500D01*
X146791100Y-106169980D01*
X146818175Y-106172349D01*
X146818176Y-106172349D01*
X146829160Y-106173310D01*
X146839807Y-106170457D01*
X146839809Y-106170457D01*
X146866070Y-106163420D01*
X146876801Y-106161041D01*
X146903581Y-106156319D01*
X146903582Y-106156319D01*
X146914434Y-106154405D01*
X146923979Y-106148894D01*
X146927433Y-106147637D01*
X146930757Y-106146087D01*
X146941401Y-106143235D01*
X146950427Y-106136915D01*
X146950429Y-106136914D01*
X146972700Y-106121319D01*
X146981971Y-106115413D01*
X147005515Y-106101820D01*
X147005518Y-106101818D01*
X147015066Y-106096305D01*
X147039624Y-106067038D01*
X147047050Y-106058933D01*
X147679580Y-105426404D01*
X147741892Y-105392379D01*
X147768675Y-105389500D01*
X150021766Y-105389500D01*
X150089887Y-105409502D01*
X150121727Y-105438794D01*
X150134526Y-105455474D01*
X150141076Y-105460500D01*
X150242057Y-105537986D01*
X150250357Y-105544355D01*
X150385246Y-105600228D01*
X150530000Y-105619285D01*
X150538188Y-105618207D01*
X150666566Y-105601306D01*
X150674754Y-105600228D01*
X150809643Y-105544355D01*
X150817266Y-105538506D01*
X150918921Y-105460503D01*
X150918924Y-105460500D01*
X150925474Y-105455474D01*
X150942388Y-105433432D01*
X151014355Y-105339642D01*
X151017030Y-105341694D01*
X151057026Y-105303529D01*
X151114806Y-105289500D01*
X151314959Y-105289500D01*
X151383080Y-105309502D01*
G37*
%TD.AperFunction*%
%TA.AperFunction,Conductor*%
G36*
X143048012Y-93654450D02*
G01*
X143054595Y-93660579D01*
X143482945Y-94088929D01*
X143490372Y-94097033D01*
X143514934Y-94126305D01*
X143524479Y-94131816D01*
X143524483Y-94131819D01*
X143548024Y-94145410D01*
X143557294Y-94151315D01*
X143588599Y-94173235D01*
X143599244Y-94176087D01*
X143602567Y-94177637D01*
X143606021Y-94178894D01*
X143615566Y-94184405D01*
X143626418Y-94186319D01*
X143626419Y-94186319D01*
X143653199Y-94191041D01*
X143663927Y-94193419D01*
X143700840Y-94203310D01*
X143711815Y-94202350D01*
X143711816Y-94202350D01*
X143738915Y-94199979D01*
X143749896Y-94199500D01*
X145023004Y-94199500D01*
X145091125Y-94219502D01*
X145137618Y-94273158D01*
X145147722Y-94343432D01*
X145144907Y-94356031D01*
X145142583Y-94360982D01*
X145136983Y-94396948D01*
X145122698Y-94488694D01*
X145120350Y-94503773D01*
X145121514Y-94512675D01*
X145121514Y-94512678D01*
X145134711Y-94613595D01*
X145139088Y-94647065D01*
X145197289Y-94779339D01*
X145203063Y-94786208D01*
X145254121Y-94846948D01*
X145290276Y-94889960D01*
X145297747Y-94894933D01*
X145297748Y-94894934D01*
X145403101Y-94965063D01*
X145403103Y-94965064D01*
X145410574Y-94970037D01*
X145419138Y-94972713D01*
X145419141Y-94972714D01*
X145499849Y-94997929D01*
X145558905Y-95037335D01*
X145587282Y-95102414D01*
X145575969Y-95172504D01*
X145551370Y-95207291D01*
X145125578Y-95633084D01*
X145110098Y-95645586D01*
X145106868Y-95648525D01*
X145098118Y-95654175D01*
X145078991Y-95678438D01*
X145075441Y-95682433D01*
X145075540Y-95682517D01*
X145072182Y-95686480D01*
X145068506Y-95690156D01*
X145065483Y-95694385D01*
X145065483Y-95694386D01*
X145058146Y-95704652D01*
X145054585Y-95709395D01*
X145031503Y-95738675D01*
X145031501Y-95738679D01*
X145025054Y-95746857D01*
X145022221Y-95754925D01*
X145017247Y-95761885D01*
X145014263Y-95771863D01*
X145003580Y-95807586D01*
X145001746Y-95813229D01*
X144999648Y-95819204D01*
X144975206Y-95860867D01*
X144913999Y-95930170D01*
X144910185Y-95938293D01*
X144910184Y-95938295D01*
X144893292Y-95974274D01*
X144852583Y-96060982D01*
X144851203Y-96069846D01*
X144851202Y-96069849D01*
X144832930Y-96187205D01*
X144830350Y-96203773D01*
X144831514Y-96212675D01*
X144831514Y-96212678D01*
X144844060Y-96308615D01*
X144849088Y-96347065D01*
X144907289Y-96479339D01*
X145000276Y-96589960D01*
X145007747Y-96594933D01*
X145007748Y-96594934D01*
X145113101Y-96665063D01*
X145113103Y-96665064D01*
X145120574Y-96670037D01*
X145129138Y-96672713D01*
X145129141Y-96672714D01*
X145189542Y-96691584D01*
X145258510Y-96713132D01*
X145402998Y-96715780D01*
X145422530Y-96710455D01*
X145533763Y-96680130D01*
X145533765Y-96680129D01*
X145542422Y-96677769D01*
X145665572Y-96602154D01*
X145762551Y-96495014D01*
X145825560Y-96364962D01*
X145849536Y-96222453D01*
X145849688Y-96210000D01*
X145837239Y-96123073D01*
X145830474Y-96075835D01*
X145830473Y-96075833D01*
X145829201Y-96066948D01*
X145823210Y-96053771D01*
X145813222Y-95983482D01*
X145842821Y-95918950D01*
X145848815Y-95912524D01*
X146379934Y-95381405D01*
X146442246Y-95347379D01*
X146469029Y-95344500D01*
X149854533Y-95344500D01*
X149922654Y-95364502D01*
X149969147Y-95418158D01*
X149979251Y-95488432D01*
X149975693Y-95504358D01*
X149972583Y-95510982D01*
X149971203Y-95519846D01*
X149971202Y-95519849D01*
X149951769Y-95644662D01*
X149950350Y-95653773D01*
X149951514Y-95662675D01*
X149951514Y-95662678D01*
X149964823Y-95764453D01*
X149969088Y-95797065D01*
X150027289Y-95929339D01*
X150120276Y-96039960D01*
X150127747Y-96044933D01*
X150127748Y-96044934D01*
X150233101Y-96115063D01*
X150233103Y-96115064D01*
X150240574Y-96120037D01*
X150249138Y-96122713D01*
X150249141Y-96122714D01*
X150281905Y-96132950D01*
X150378510Y-96163132D01*
X150522998Y-96165780D01*
X150616180Y-96140376D01*
X150653763Y-96130130D01*
X150653765Y-96130129D01*
X150662422Y-96127769D01*
X150785572Y-96052154D01*
X150882551Y-95945014D01*
X150886464Y-95936938D01*
X150886467Y-95936933D01*
X150887131Y-95935562D01*
X150888147Y-95934442D01*
X150891485Y-95929493D01*
X150892199Y-95929975D01*
X150934833Y-95882978D01*
X151000523Y-95864500D01*
X153408743Y-95864500D01*
X153428537Y-95866606D01*
X153432890Y-95866811D01*
X153443070Y-95869003D01*
X153473740Y-95865373D01*
X153479083Y-95865058D01*
X153479072Y-95864928D01*
X153484252Y-95864500D01*
X153489451Y-95864500D01*
X153494575Y-95863647D01*
X153494588Y-95863646D01*
X153507041Y-95861573D01*
X153512916Y-95860736D01*
X153549929Y-95856355D01*
X153560270Y-95855131D01*
X153567978Y-95851430D01*
X153576417Y-95850025D01*
X153618401Y-95827371D01*
X153623664Y-95824690D01*
X153635089Y-95819204D01*
X153666658Y-95804045D01*
X153670650Y-95800689D01*
X153672597Y-95798742D01*
X153674222Y-95797252D01*
X153674654Y-95797019D01*
X153674687Y-95797055D01*
X153674845Y-95796916D01*
X153680280Y-95793983D01*
X153692172Y-95781119D01*
X153714357Y-95757119D01*
X153717786Y-95753553D01*
X153942528Y-95528811D01*
X154003001Y-95495789D01*
X154002998Y-95495780D01*
X154109660Y-95466701D01*
X154133763Y-95460130D01*
X154133765Y-95460129D01*
X154142422Y-95457769D01*
X154265572Y-95382154D01*
X154362551Y-95275014D01*
X154425560Y-95144962D01*
X154449536Y-95002453D01*
X154449688Y-94990000D01*
X154442409Y-94939174D01*
X154452551Y-94868905D01*
X154499074Y-94815275D01*
X154567206Y-94795311D01*
X154635315Y-94815351D01*
X154656231Y-94832216D01*
X154723595Y-94899580D01*
X154757621Y-94961892D01*
X154760500Y-94988675D01*
X154760500Y-104504500D01*
X154740498Y-104572621D01*
X154686842Y-104619114D01*
X154634500Y-104630500D01*
X150923902Y-104630500D01*
X150855781Y-104610498D01*
X150847201Y-104604464D01*
X150831336Y-104592291D01*
X150789467Y-104534955D01*
X150785243Y-104464084D01*
X150820006Y-104402180D01*
X150831333Y-104392365D01*
X150898921Y-104340503D01*
X150898924Y-104340500D01*
X150905474Y-104335474D01*
X150927780Y-104306405D01*
X150973135Y-104247296D01*
X150994355Y-104219642D01*
X150999468Y-104207300D01*
X151047069Y-104092380D01*
X151050228Y-104084754D01*
X151052908Y-104064401D01*
X151068207Y-103948188D01*
X151069285Y-103940000D01*
X151050228Y-103795246D01*
X151019249Y-103720457D01*
X150997515Y-103667986D01*
X150997514Y-103667984D01*
X150994355Y-103660358D01*
X150927654Y-103573432D01*
X150910501Y-103551077D01*
X150910500Y-103551076D01*
X150905474Y-103544526D01*
X150898923Y-103539499D01*
X150898921Y-103539497D01*
X150796196Y-103460673D01*
X150796194Y-103460672D01*
X150789643Y-103455645D01*
X150654754Y-103399772D01*
X150510000Y-103380715D01*
X150501812Y-103381793D01*
X150373432Y-103398694D01*
X150373430Y-103398695D01*
X150365246Y-103399772D01*
X150317430Y-103419578D01*
X150237986Y-103452485D01*
X150237984Y-103452486D01*
X150230358Y-103455645D01*
X150194767Y-103482955D01*
X150135829Y-103528180D01*
X150114526Y-103544526D01*
X150104479Y-103557620D01*
X150101727Y-103561206D01*
X150044388Y-103603072D01*
X150001766Y-103610500D01*
X148219882Y-103610500D01*
X148208900Y-103610020D01*
X148181825Y-103607651D01*
X148181824Y-103607651D01*
X148170840Y-103606690D01*
X148160193Y-103609543D01*
X148160191Y-103609543D01*
X148133930Y-103616580D01*
X148123199Y-103618959D01*
X148096419Y-103623681D01*
X148096418Y-103623681D01*
X148085566Y-103625595D01*
X148076021Y-103631106D01*
X148072567Y-103632363D01*
X148069244Y-103633913D01*
X148058599Y-103636765D01*
X148049571Y-103643086D01*
X148049572Y-103643086D01*
X148027294Y-103658685D01*
X148018024Y-103664590D01*
X147994483Y-103678181D01*
X147994479Y-103678184D01*
X147984934Y-103683695D01*
X147977846Y-103692142D01*
X147960376Y-103712962D01*
X147952950Y-103721066D01*
X147249662Y-104424355D01*
X146560422Y-105113595D01*
X146498110Y-105147620D01*
X146471327Y-105150500D01*
X144309882Y-105150500D01*
X144298900Y-105150020D01*
X144271825Y-105147651D01*
X144271824Y-105147651D01*
X144260840Y-105146690D01*
X144250193Y-105149543D01*
X144250191Y-105149543D01*
X144223930Y-105156580D01*
X144213199Y-105158959D01*
X144186419Y-105163681D01*
X144186418Y-105163681D01*
X144175566Y-105165595D01*
X144166021Y-105171106D01*
X144162567Y-105172363D01*
X144159244Y-105173913D01*
X144148599Y-105176765D01*
X144139571Y-105183086D01*
X144139572Y-105183086D01*
X144117294Y-105198685D01*
X144108024Y-105204590D01*
X144084483Y-105218181D01*
X144084479Y-105218184D01*
X144074934Y-105223695D01*
X144067846Y-105232142D01*
X144050376Y-105252962D01*
X144042950Y-105261066D01*
X143014690Y-106289327D01*
X142466474Y-106837543D01*
X142404162Y-106871568D01*
X142333347Y-106866504D01*
X142276511Y-106823957D01*
X142251700Y-106757437D01*
X142255672Y-106715837D01*
X142255779Y-106715437D01*
X142258940Y-106707806D01*
X142279716Y-106550000D01*
X142258940Y-106392194D01*
X142255782Y-106384570D01*
X142255781Y-106384566D01*
X142201192Y-106252777D01*
X142198030Y-106245142D01*
X142193000Y-106238587D01*
X142190900Y-106234949D01*
X142174164Y-106165953D01*
X142200059Y-106095247D01*
X142203001Y-106091412D01*
X142203001Y-106091411D01*
X142208030Y-106084858D01*
X142232323Y-106026209D01*
X142265781Y-105945434D01*
X142265782Y-105945430D01*
X142268940Y-105937806D01*
X142289716Y-105780000D01*
X142268940Y-105622194D01*
X142265782Y-105614570D01*
X142265781Y-105614566D01*
X142211192Y-105482775D01*
X142211191Y-105482773D01*
X142208030Y-105475142D01*
X142205783Y-105472214D01*
X142189500Y-105411442D01*
X142189500Y-104251185D01*
X142190858Y-104239024D01*
X142190380Y-104238986D01*
X142191100Y-104230035D01*
X142193081Y-104221281D01*
X142189742Y-104167460D01*
X142189500Y-104159659D01*
X142189500Y-104143418D01*
X142188737Y-104138091D01*
X142188012Y-104133028D01*
X142186982Y-104122972D01*
X142184600Y-104084576D01*
X142184600Y-104084574D01*
X142184044Y-104075617D01*
X142180996Y-104067175D01*
X142180422Y-104064401D01*
X142175163Y-104043305D01*
X142174470Y-104038466D01*
X142184612Y-103968198D01*
X142231135Y-103914568D01*
X142299267Y-103894604D01*
X142369016Y-103915717D01*
X142413101Y-103945063D01*
X142413103Y-103945064D01*
X142420574Y-103950037D01*
X142429138Y-103952713D01*
X142429141Y-103952714D01*
X142489542Y-103971584D01*
X142558510Y-103993132D01*
X142702998Y-103995780D01*
X142725512Y-103989642D01*
X142833763Y-103960130D01*
X142833765Y-103960129D01*
X142842422Y-103957769D01*
X142965572Y-103882154D01*
X142988505Y-103856818D01*
X143061379Y-103776309D01*
X143121923Y-103739228D01*
X143192369Y-103740598D01*
X143222879Y-103750130D01*
X143328510Y-103783132D01*
X143472998Y-103785780D01*
X143512488Y-103775014D01*
X143603763Y-103750130D01*
X143603765Y-103750129D01*
X143612422Y-103747769D01*
X143628130Y-103738124D01*
X143694058Y-103719500D01*
X144000118Y-103719500D01*
X144011100Y-103719980D01*
X144038175Y-103722349D01*
X144038176Y-103722349D01*
X144049160Y-103723310D01*
X144059807Y-103720457D01*
X144059809Y-103720457D01*
X144086070Y-103713420D01*
X144096801Y-103711041D01*
X144123581Y-103706319D01*
X144123582Y-103706319D01*
X144134434Y-103704405D01*
X144143979Y-103698894D01*
X144147433Y-103697637D01*
X144150757Y-103696087D01*
X144161401Y-103693235D01*
X144170427Y-103686915D01*
X144170429Y-103686914D01*
X144192700Y-103671319D01*
X144201971Y-103665413D01*
X144225515Y-103651820D01*
X144225518Y-103651818D01*
X144235066Y-103646305D01*
X144259640Y-103617019D01*
X144267055Y-103608928D01*
X146058929Y-101817055D01*
X146067033Y-101809628D01*
X146073576Y-101804138D01*
X146096305Y-101785066D01*
X146101816Y-101775521D01*
X146101819Y-101775517D01*
X146115410Y-101751976D01*
X146121315Y-101742706D01*
X146136914Y-101720428D01*
X146143235Y-101711401D01*
X146146087Y-101700756D01*
X146147637Y-101697433D01*
X146148894Y-101693979D01*
X146154405Y-101684434D01*
X146161041Y-101646801D01*
X146163420Y-101636070D01*
X146170458Y-101609803D01*
X146173310Y-101599160D01*
X146169979Y-101561085D01*
X146169500Y-101550104D01*
X146169500Y-101109754D01*
X146189502Y-101041633D01*
X146243158Y-100995140D01*
X146313432Y-100985036D01*
X146378012Y-101014530D01*
X146391951Y-101028678D01*
X146392598Y-101029447D01*
X146460276Y-101109960D01*
X146467747Y-101114933D01*
X146467748Y-101114934D01*
X146573101Y-101185063D01*
X146573103Y-101185064D01*
X146580574Y-101190037D01*
X146589138Y-101192713D01*
X146589141Y-101192714D01*
X146617968Y-101201720D01*
X146718510Y-101233132D01*
X146862998Y-101235780D01*
X146867239Y-101234624D01*
X146888517Y-101234643D01*
X146894955Y-101236568D01*
X146968300Y-101233686D01*
X147002475Y-101232344D01*
X147002476Y-101232344D01*
X147012882Y-101231935D01*
X147022597Y-101228177D01*
X147027708Y-101227118D01*
X147053260Y-101224500D01*
X148489454Y-101224500D01*
X148500435Y-101224979D01*
X148529512Y-101227523D01*
X148529513Y-101227523D01*
X148540488Y-101228483D01*
X148551131Y-101225631D01*
X148551134Y-101225631D01*
X148579316Y-101218080D01*
X148590043Y-101215702D01*
X148618781Y-101210634D01*
X148618784Y-101210633D01*
X148629643Y-101208718D01*
X148639193Y-101203204D01*
X148643270Y-101201720D01*
X148647191Y-101199892D01*
X148657838Y-101197039D01*
X148690773Y-101173977D01*
X148700043Y-101168072D01*
X148725307Y-101153486D01*
X148734856Y-101147973D01*
X148760692Y-101117183D01*
X148768118Y-101109079D01*
X149105020Y-100772177D01*
X149167332Y-100738151D01*
X149196424Y-100735293D01*
X149222998Y-100735780D01*
X149282159Y-100719651D01*
X149353763Y-100700130D01*
X149353765Y-100700129D01*
X149362422Y-100697769D01*
X149485572Y-100622154D01*
X149582551Y-100515014D01*
X149645560Y-100384962D01*
X149669536Y-100242453D01*
X149669688Y-100230000D01*
X149649201Y-100086948D01*
X149589388Y-99955395D01*
X149583530Y-99948596D01*
X149583527Y-99948592D01*
X149500916Y-99852718D01*
X149500913Y-99852716D01*
X149495056Y-99845918D01*
X149373790Y-99767317D01*
X149347074Y-99759327D01*
X149243938Y-99728482D01*
X149243936Y-99728482D01*
X149235337Y-99725910D01*
X149226363Y-99725855D01*
X149226361Y-99725855D01*
X149163082Y-99725469D01*
X149090827Y-99725028D01*
X149082196Y-99727495D01*
X149082194Y-99727495D01*
X148960509Y-99762272D01*
X148960505Y-99762274D01*
X148951879Y-99764739D01*
X148944292Y-99769526D01*
X148944290Y-99769527D01*
X148837254Y-99837062D01*
X148829661Y-99841853D01*
X148733999Y-99950170D01*
X148672583Y-100080982D01*
X148671203Y-100089846D01*
X148671202Y-100089849D01*
X148651387Y-100217110D01*
X148621142Y-100281343D01*
X148615982Y-100286820D01*
X148404207Y-100498595D01*
X148341895Y-100532621D01*
X148315112Y-100535500D01*
X147346933Y-100535500D01*
X147278812Y-100515498D01*
X147239545Y-100470103D01*
X147237940Y-100471130D01*
X147233104Y-100463567D01*
X147229388Y-100455395D01*
X147223530Y-100448596D01*
X147223527Y-100448592D01*
X147140916Y-100352718D01*
X147140913Y-100352716D01*
X147135056Y-100345918D01*
X147063442Y-100299500D01*
X147021324Y-100272200D01*
X147021322Y-100272199D01*
X147013790Y-100267317D01*
X146973418Y-100255243D01*
X146883938Y-100228482D01*
X146883936Y-100228482D01*
X146875337Y-100225910D01*
X146866363Y-100225855D01*
X146866361Y-100225855D01*
X146803082Y-100225469D01*
X146730827Y-100225028D01*
X146722196Y-100227495D01*
X146722194Y-100227495D01*
X146600509Y-100262272D01*
X146600505Y-100262274D01*
X146591879Y-100264739D01*
X146584292Y-100269526D01*
X146584290Y-100269527D01*
X146477254Y-100337062D01*
X146469661Y-100341853D01*
X146463718Y-100348582D01*
X146463717Y-100348583D01*
X146389941Y-100432119D01*
X146329856Y-100469937D01*
X146258862Y-100469267D01*
X146199501Y-100430321D01*
X146170619Y-100365465D01*
X146169500Y-100348711D01*
X146169500Y-98399882D01*
X146169980Y-98388900D01*
X146172349Y-98361822D01*
X146173310Y-98350840D01*
X146163419Y-98313927D01*
X146161041Y-98303199D01*
X146156319Y-98276419D01*
X146156319Y-98276418D01*
X146154405Y-98265566D01*
X146148894Y-98256021D01*
X146147637Y-98252567D01*
X146146087Y-98249243D01*
X146143235Y-98238599D01*
X146121317Y-98207296D01*
X146115413Y-98198029D01*
X146101820Y-98174485D01*
X146101818Y-98174482D01*
X146096305Y-98164934D01*
X146067019Y-98140360D01*
X146058928Y-98132945D01*
X142876405Y-94950422D01*
X142842379Y-94888110D01*
X142839500Y-94861327D01*
X142839500Y-93749674D01*
X142859502Y-93681553D01*
X142913158Y-93635060D01*
X142983432Y-93624956D01*
X143048012Y-93654450D01*
G37*
%TD.AperFunction*%
%TA.AperFunction,Conductor*%
G36*
X131309448Y-100319502D02*
G01*
X131330422Y-100336405D01*
X135832940Y-104838923D01*
X135840367Y-104847027D01*
X135864934Y-104876305D01*
X135874477Y-104881815D01*
X135874481Y-104881818D01*
X135898029Y-104895413D01*
X135907300Y-104901319D01*
X135929571Y-104916914D01*
X135929573Y-104916915D01*
X135938599Y-104923235D01*
X135949243Y-104926087D01*
X135952567Y-104927637D01*
X135956021Y-104928894D01*
X135965566Y-104934405D01*
X135976418Y-104936319D01*
X135976419Y-104936319D01*
X136003199Y-104941041D01*
X136013930Y-104943420D01*
X136040191Y-104950457D01*
X136040193Y-104950457D01*
X136050840Y-104953310D01*
X136061824Y-104952349D01*
X136061825Y-104952349D01*
X136088900Y-104949980D01*
X136099882Y-104949500D01*
X137531766Y-104949500D01*
X137599887Y-104969502D01*
X137631727Y-104998794D01*
X137644526Y-105015474D01*
X137760357Y-105104355D01*
X137895246Y-105160228D01*
X138040000Y-105179285D01*
X138048188Y-105178207D01*
X138059142Y-105176765D01*
X138184754Y-105160228D01*
X138319643Y-105104355D01*
X138420261Y-105027147D01*
X138486477Y-105001548D01*
X138556026Y-105015812D01*
X138596924Y-105050407D01*
X138649495Y-105118919D01*
X138649500Y-105118924D01*
X138654526Y-105125474D01*
X138661076Y-105130500D01*
X138661079Y-105130503D01*
X138757631Y-105204590D01*
X138770357Y-105214355D01*
X138905246Y-105270228D01*
X139050000Y-105289285D01*
X139058189Y-105288207D01*
X139058190Y-105288207D01*
X139070845Y-105286541D01*
X139140993Y-105297481D01*
X139176385Y-105322368D01*
X139573595Y-105719578D01*
X139607621Y-105781890D01*
X139610500Y-105808673D01*
X139610500Y-106541327D01*
X139590498Y-106609448D01*
X139573595Y-106630422D01*
X139390422Y-106813595D01*
X139328110Y-106847621D01*
X139301327Y-106850500D01*
X132758674Y-106850500D01*
X132690553Y-106830498D01*
X132669579Y-106813595D01*
X131470550Y-105614566D01*
X130255422Y-104399439D01*
X130221397Y-104337127D01*
X130218517Y-104310108D01*
X130221397Y-102775162D01*
X130225807Y-100425263D01*
X130245937Y-100357180D01*
X130299680Y-100310788D01*
X130351807Y-100299500D01*
X131241327Y-100299500D01*
X131309448Y-100319502D01*
G37*
%TD.AperFunction*%
%TA.AperFunction,Conductor*%
G36*
X138178251Y-93417867D02*
G01*
X138197969Y-93433952D01*
X139204756Y-94440739D01*
X139238782Y-94503051D01*
X139241286Y-94527761D01*
X139240350Y-94533773D01*
X139241233Y-94540527D01*
X139220721Y-94607357D01*
X139166502Y-94653192D01*
X139096110Y-94662437D01*
X139035857Y-94634027D01*
X139035474Y-94634526D01*
X139033179Y-94632765D01*
X139023797Y-94625566D01*
X138926196Y-94550673D01*
X138926194Y-94550672D01*
X138919643Y-94545645D01*
X138801818Y-94496840D01*
X138792383Y-94492932D01*
X138784754Y-94489772D01*
X138767459Y-94487495D01*
X138670611Y-94474745D01*
X138640000Y-94470715D01*
X138616255Y-94473841D01*
X138503432Y-94488694D01*
X138503430Y-94488695D01*
X138495246Y-94489772D01*
X138482864Y-94494901D01*
X138367986Y-94542485D01*
X138367984Y-94542486D01*
X138360358Y-94545645D01*
X138244526Y-94634526D01*
X138155645Y-94750358D01*
X138152486Y-94757984D01*
X138152485Y-94757986D01*
X138128724Y-94815351D01*
X138099772Y-94885246D01*
X138098695Y-94893430D01*
X138098694Y-94893432D01*
X138090321Y-94957037D01*
X138080715Y-95030000D01*
X138081793Y-95038188D01*
X138096914Y-95153043D01*
X138099772Y-95174754D01*
X138102931Y-95182380D01*
X138144059Y-95281670D01*
X138155645Y-95309642D01*
X138244526Y-95425474D01*
X138251076Y-95430500D01*
X138251079Y-95430503D01*
X138353804Y-95509327D01*
X138360357Y-95514355D01*
X138367984Y-95517514D01*
X138411389Y-95535493D01*
X138452265Y-95562807D01*
X138469394Y-95579936D01*
X138477034Y-95589498D01*
X138477400Y-95589186D01*
X138483215Y-95596019D01*
X138488007Y-95603613D01*
X138521377Y-95633084D01*
X138528433Y-95639316D01*
X138534120Y-95644662D01*
X138545596Y-95656138D01*
X138553694Y-95662207D01*
X138553990Y-95662429D01*
X138561833Y-95668814D01*
X138597397Y-95700223D01*
X138605521Y-95704037D01*
X138607897Y-95705598D01*
X138623120Y-95714745D01*
X138625626Y-95716117D01*
X138632810Y-95721501D01*
X138677252Y-95738161D01*
X138686551Y-95742080D01*
X138710988Y-95753553D01*
X138729505Y-95762247D01*
X138738376Y-95763628D01*
X138741073Y-95764453D01*
X138758291Y-95768971D01*
X138761062Y-95769580D01*
X138769467Y-95772731D01*
X138816783Y-95776247D01*
X138826832Y-95777402D01*
X138835487Y-95778750D01*
X138835498Y-95778751D01*
X138840309Y-95779500D01*
X138855883Y-95779500D01*
X138865195Y-95779845D01*
X138915009Y-95783547D01*
X138923783Y-95781674D01*
X138931929Y-95781119D01*
X138947268Y-95779500D01*
X140946767Y-95779500D01*
X141014888Y-95799502D01*
X141035862Y-95816404D01*
X141252549Y-96033090D01*
X141406661Y-96187202D01*
X141406663Y-96187205D01*
X144345364Y-99125906D01*
X144379388Y-99188217D01*
X144374324Y-99259032D01*
X144345363Y-99304096D01*
X143802795Y-99846663D01*
X141024093Y-102625365D01*
X140961783Y-102659389D01*
X140890967Y-102654324D01*
X140845905Y-102625363D01*
X137190606Y-98970064D01*
X137182966Y-98960502D01*
X137182600Y-98960814D01*
X137176785Y-98953981D01*
X137171993Y-98946387D01*
X137131567Y-98910684D01*
X137125880Y-98905338D01*
X137114404Y-98893862D01*
X137106010Y-98887571D01*
X137098167Y-98881186D01*
X137069331Y-98855719D01*
X137062603Y-98849777D01*
X137054479Y-98845963D01*
X137052103Y-98844402D01*
X137036880Y-98835255D01*
X137034374Y-98833883D01*
X137027190Y-98828499D01*
X136982748Y-98811839D01*
X136973449Y-98807920D01*
X136938623Y-98791569D01*
X136938622Y-98791569D01*
X136930495Y-98787753D01*
X136921624Y-98786372D01*
X136918927Y-98785547D01*
X136901709Y-98781029D01*
X136898938Y-98780420D01*
X136890533Y-98777269D01*
X136843217Y-98773753D01*
X136833168Y-98772598D01*
X136824513Y-98771250D01*
X136824502Y-98771249D01*
X136819691Y-98770500D01*
X136804130Y-98770500D01*
X136794792Y-98770154D01*
X136744990Y-98766453D01*
X136736214Y-98768326D01*
X136728065Y-98768882D01*
X136712731Y-98770500D01*
X135924001Y-98770500D01*
X135875783Y-98760909D01*
X135832383Y-98742932D01*
X135824754Y-98739772D01*
X135680000Y-98720715D01*
X135671812Y-98721793D01*
X135543432Y-98738694D01*
X135543430Y-98738695D01*
X135535246Y-98739772D01*
X135487430Y-98759578D01*
X135407986Y-98792485D01*
X135407984Y-98792486D01*
X135400358Y-98795645D01*
X135284526Y-98884526D01*
X135195645Y-99000358D01*
X135139772Y-99135246D01*
X135120715Y-99280000D01*
X135139772Y-99424754D01*
X135195645Y-99559642D01*
X135200672Y-99566193D01*
X135257690Y-99640500D01*
X135284526Y-99675474D01*
X135291076Y-99680500D01*
X135291079Y-99680503D01*
X135393804Y-99759327D01*
X135400357Y-99764355D01*
X135535246Y-99820228D01*
X135543434Y-99821306D01*
X135607623Y-99829756D01*
X135680000Y-99839285D01*
X135688188Y-99838207D01*
X135696886Y-99837062D01*
X135752377Y-99829756D01*
X135816566Y-99821306D01*
X135824754Y-99820228D01*
X135875784Y-99799091D01*
X135924001Y-99789500D01*
X136516768Y-99789500D01*
X136584889Y-99809502D01*
X136605863Y-99826405D01*
X140024863Y-103245405D01*
X140058889Y-103307717D01*
X140053824Y-103378532D01*
X140011277Y-103435368D01*
X139944757Y-103460179D01*
X139935768Y-103460500D01*
X139659882Y-103460500D01*
X139648900Y-103460020D01*
X139621825Y-103457651D01*
X139621824Y-103457651D01*
X139610840Y-103456690D01*
X139600193Y-103459543D01*
X139600191Y-103459543D01*
X139573930Y-103466580D01*
X139563199Y-103468959D01*
X139536419Y-103473681D01*
X139536418Y-103473681D01*
X139525566Y-103475595D01*
X139516021Y-103481106D01*
X139512567Y-103482363D01*
X139509243Y-103483913D01*
X139498599Y-103486765D01*
X139489573Y-103493085D01*
X139489571Y-103493086D01*
X139467300Y-103508681D01*
X139458029Y-103514587D01*
X139434485Y-103528180D01*
X139434482Y-103528182D01*
X139424934Y-103533695D01*
X139400360Y-103562981D01*
X139392945Y-103571072D01*
X138831077Y-104132940D01*
X138822973Y-104140367D01*
X138793695Y-104164934D01*
X138788185Y-104174477D01*
X138788182Y-104174481D01*
X138774587Y-104198029D01*
X138768683Y-104207296D01*
X138746765Y-104238599D01*
X138744241Y-104248019D01*
X138707334Y-104294005D01*
X138669741Y-104322851D01*
X138603524Y-104348452D01*
X138533975Y-104334188D01*
X138493076Y-104299593D01*
X138440505Y-104231081D01*
X138440500Y-104231076D01*
X138435474Y-104224526D01*
X138421292Y-104213644D01*
X138379425Y-104156308D01*
X138375203Y-104085437D01*
X138398033Y-104036978D01*
X138429328Y-103996193D01*
X138434355Y-103989642D01*
X138443238Y-103968198D01*
X138487069Y-103862380D01*
X138490228Y-103854754D01*
X138499309Y-103785780D01*
X138508207Y-103718188D01*
X138509285Y-103710000D01*
X138501626Y-103651820D01*
X138491306Y-103573432D01*
X138491305Y-103573430D01*
X138490228Y-103565246D01*
X138457720Y-103486765D01*
X138437515Y-103437986D01*
X138437514Y-103437984D01*
X138434355Y-103430358D01*
X138369552Y-103345905D01*
X138350501Y-103321077D01*
X138350500Y-103321076D01*
X138345474Y-103314526D01*
X138338924Y-103309500D01*
X138338921Y-103309497D01*
X138236196Y-103230673D01*
X138236194Y-103230672D01*
X138229643Y-103225645D01*
X138094754Y-103169772D01*
X137950000Y-103150715D01*
X137941812Y-103151793D01*
X137933554Y-103151793D01*
X137933554Y-103150346D01*
X137872217Y-103140780D01*
X137819119Y-103093652D01*
X137799929Y-103025298D01*
X137812528Y-102971860D01*
X137821645Y-102953042D01*
X137825560Y-102944962D01*
X137849536Y-102802453D01*
X137849688Y-102790000D01*
X137829201Y-102646948D01*
X137769388Y-102515395D01*
X137763530Y-102508596D01*
X137763527Y-102508592D01*
X137680916Y-102412718D01*
X137680913Y-102412716D01*
X137675056Y-102405918D01*
X137614423Y-102366617D01*
X137561324Y-102332200D01*
X137561322Y-102332199D01*
X137553790Y-102327317D01*
X137545190Y-102324745D01*
X137423938Y-102288482D01*
X137423936Y-102288482D01*
X137415337Y-102285910D01*
X137406363Y-102285855D01*
X137406361Y-102285855D01*
X137400449Y-102285819D01*
X137332452Y-102265401D01*
X137286288Y-102211462D01*
X137276492Y-102177684D01*
X137274728Y-102165363D01*
X137273185Y-102154595D01*
X137260474Y-102065835D01*
X137260473Y-102065833D01*
X137259201Y-102056948D01*
X137199388Y-101925395D01*
X137160047Y-101879737D01*
X137130733Y-101815076D01*
X137129500Y-101797490D01*
X137129500Y-101379882D01*
X137129980Y-101368900D01*
X137132349Y-101341822D01*
X137133310Y-101330840D01*
X137123419Y-101293927D01*
X137121041Y-101283199D01*
X137116319Y-101256419D01*
X137116319Y-101256418D01*
X137114405Y-101245566D01*
X137108894Y-101236021D01*
X137107637Y-101232567D01*
X137106087Y-101229243D01*
X137103235Y-101218599D01*
X137096317Y-101208718D01*
X137081319Y-101187300D01*
X137075413Y-101178029D01*
X137061820Y-101154485D01*
X137061818Y-101154482D01*
X137056305Y-101144934D01*
X137027019Y-101120360D01*
X137018928Y-101112945D01*
X136747060Y-100841077D01*
X136739633Y-100832973D01*
X136722151Y-100812139D01*
X136715066Y-100803695D01*
X136705523Y-100798185D01*
X136705519Y-100798182D01*
X136681971Y-100784587D01*
X136672700Y-100778681D01*
X136650429Y-100763086D01*
X136650427Y-100763085D01*
X136641401Y-100756765D01*
X136630757Y-100753913D01*
X136627433Y-100752363D01*
X136623979Y-100751106D01*
X136614434Y-100745595D01*
X136603582Y-100743681D01*
X136603581Y-100743681D01*
X136576801Y-100738959D01*
X136566070Y-100736580D01*
X136539809Y-100729543D01*
X136539807Y-100729543D01*
X136529160Y-100726690D01*
X136518176Y-100727651D01*
X136518175Y-100727651D01*
X136491100Y-100730020D01*
X136480118Y-100730500D01*
X134818674Y-100730500D01*
X134750553Y-100710498D01*
X134729579Y-100693595D01*
X131537608Y-97501625D01*
X131390578Y-97354595D01*
X131356552Y-97292283D01*
X131361617Y-97221468D01*
X131404164Y-97164632D01*
X131470684Y-97139821D01*
X131479673Y-97139500D01*
X134213765Y-97139500D01*
X134281886Y-97159502D01*
X134302860Y-97176405D01*
X134309623Y-97183168D01*
X134316516Y-97193484D01*
X134400699Y-97249734D01*
X134474933Y-97264500D01*
X134749955Y-97264500D01*
X135025066Y-97264499D01*
X135031134Y-97263292D01*
X135031135Y-97263292D01*
X135036478Y-97262229D01*
X135050486Y-97259443D01*
X135087529Y-97259438D01*
X135087702Y-97257686D01*
X135093865Y-97258293D01*
X135099933Y-97259500D01*
X135374955Y-97259500D01*
X135650066Y-97259499D01*
X135680559Y-97253434D01*
X135751271Y-97259764D01*
X135759378Y-97263288D01*
X135763108Y-97265067D01*
X135770574Y-97270037D01*
X135908510Y-97313132D01*
X136052998Y-97315780D01*
X136072530Y-97310455D01*
X136183763Y-97280130D01*
X136183765Y-97280129D01*
X136192422Y-97277769D01*
X136315572Y-97202154D01*
X136412551Y-97095014D01*
X136475560Y-96964962D01*
X136499536Y-96822453D01*
X136499688Y-96810000D01*
X136489347Y-96737796D01*
X136480474Y-96675835D01*
X136480473Y-96675833D01*
X136479201Y-96666948D01*
X136419388Y-96535395D01*
X136413530Y-96528596D01*
X136413527Y-96528592D01*
X136330916Y-96432718D01*
X136330913Y-96432716D01*
X136325056Y-96425918D01*
X136217356Y-96356110D01*
X136211324Y-96352200D01*
X136211322Y-96352199D01*
X136203790Y-96347317D01*
X136161372Y-96334631D01*
X136073938Y-96308482D01*
X136073936Y-96308482D01*
X136065337Y-96305910D01*
X136056363Y-96305855D01*
X136056361Y-96305855D01*
X135993082Y-96305469D01*
X135920827Y-96305028D01*
X135880963Y-96316421D01*
X135809970Y-96315909D01*
X135776337Y-96300036D01*
X135734621Y-96272161D01*
X135734618Y-96272160D01*
X135724301Y-96265266D01*
X135650067Y-96250500D01*
X135375045Y-96250500D01*
X135099934Y-96250501D01*
X135093866Y-96251708D01*
X135093865Y-96251708D01*
X135089547Y-96252567D01*
X135074514Y-96255557D01*
X135037471Y-96255562D01*
X135037298Y-96257314D01*
X135031135Y-96256707D01*
X135025067Y-96255500D01*
X134750045Y-96255500D01*
X134474934Y-96255501D01*
X134439182Y-96262612D01*
X134412874Y-96267844D01*
X134412872Y-96267845D01*
X134400699Y-96270266D01*
X134390379Y-96277161D01*
X134390378Y-96277162D01*
X134343505Y-96308482D01*
X134316516Y-96326516D01*
X134260266Y-96410699D01*
X134259937Y-96410479D01*
X134221647Y-96457997D01*
X134149784Y-96480500D01*
X131088190Y-96480500D01*
X131020069Y-96460498D01*
X130973576Y-96406842D01*
X130962669Y-96365481D01*
X130962349Y-96361823D01*
X130963310Y-96350840D01*
X130956793Y-96326516D01*
X130954946Y-96319623D01*
X130953419Y-96313927D01*
X130951041Y-96303199D01*
X130946319Y-96276419D01*
X130946319Y-96276418D01*
X130944405Y-96265566D01*
X130938894Y-96256021D01*
X130937637Y-96252567D01*
X130936087Y-96249244D01*
X130933235Y-96238599D01*
X130911315Y-96207294D01*
X130905410Y-96198024D01*
X130891819Y-96174483D01*
X130891816Y-96174479D01*
X130886305Y-96164934D01*
X130857038Y-96140376D01*
X130848934Y-96132950D01*
X130272017Y-95556033D01*
X130237991Y-95493721D01*
X130235112Y-95466701D01*
X130235125Y-95460130D01*
X130236091Y-94945263D01*
X130256221Y-94877180D01*
X130309964Y-94830788D01*
X130362091Y-94819500D01*
X136841766Y-94819500D01*
X136909887Y-94839502D01*
X136941727Y-94868794D01*
X136954526Y-94885474D01*
X136961076Y-94890500D01*
X137058248Y-94965063D01*
X137070357Y-94974355D01*
X137205246Y-95030228D01*
X137350000Y-95049285D01*
X137358188Y-95048207D01*
X137486566Y-95031306D01*
X137494754Y-95030228D01*
X137629643Y-94974355D01*
X137636196Y-94969327D01*
X137738921Y-94890503D01*
X137738924Y-94890500D01*
X137745474Y-94885474D01*
X137834355Y-94769642D01*
X137840675Y-94754386D01*
X137882591Y-94653192D01*
X137890228Y-94634754D01*
X137893674Y-94608584D01*
X137908207Y-94498188D01*
X137909285Y-94490000D01*
X137901709Y-94432453D01*
X137891306Y-94353432D01*
X137891305Y-94353430D01*
X137890228Y-94345246D01*
X137854744Y-94259580D01*
X137837515Y-94217986D01*
X137837514Y-94217984D01*
X137834355Y-94210358D01*
X137829327Y-94203805D01*
X137829325Y-94203802D01*
X137794328Y-94158193D01*
X137768727Y-94091973D01*
X137782991Y-94022424D01*
X137813317Y-93986572D01*
X137813084Y-93986339D01*
X137815870Y-93983553D01*
X137817581Y-93981531D01*
X137825474Y-93975474D01*
X137914355Y-93859642D01*
X137970228Y-93724754D01*
X137975916Y-93681553D01*
X137988207Y-93588188D01*
X137989285Y-93580000D01*
X137983952Y-93539493D01*
X137994891Y-93469345D01*
X138042019Y-93416246D01*
X138110373Y-93397056D01*
X138178251Y-93417867D01*
G37*
%TD.AperFunction*%
%TA.AperFunction,Conductor*%
G36*
X136287719Y-88408001D02*
G01*
X136309324Y-88425307D01*
X136413595Y-88529578D01*
X136447621Y-88591890D01*
X136450500Y-88618673D01*
X136450500Y-90300118D01*
X136450020Y-90311100D01*
X136446690Y-90349160D01*
X136449543Y-90359807D01*
X136449543Y-90359809D01*
X136456580Y-90386070D01*
X136458959Y-90396801D01*
X136465595Y-90434434D01*
X136471106Y-90443979D01*
X136472363Y-90447433D01*
X136473913Y-90450757D01*
X136476765Y-90461401D01*
X136483085Y-90470427D01*
X136483086Y-90470429D01*
X136498681Y-90492700D01*
X136504587Y-90501971D01*
X136518180Y-90525515D01*
X136518182Y-90525518D01*
X136523695Y-90535066D01*
X136532142Y-90542154D01*
X136532143Y-90542155D01*
X136552962Y-90559624D01*
X136561067Y-90567050D01*
X137032952Y-91038936D01*
X137040377Y-91047039D01*
X137064934Y-91076305D01*
X137074479Y-91081816D01*
X137074483Y-91081819D01*
X137098024Y-91095410D01*
X137107294Y-91101315D01*
X137138599Y-91123235D01*
X137149244Y-91126087D01*
X137152567Y-91127637D01*
X137156021Y-91128894D01*
X137165566Y-91134405D01*
X137176418Y-91136319D01*
X137176419Y-91136319D01*
X137203199Y-91141041D01*
X137213927Y-91143419D01*
X137250840Y-91153310D01*
X137261816Y-91152350D01*
X137262173Y-91152381D01*
X137328291Y-91178244D01*
X137337675Y-91187255D01*
X137337809Y-91187105D01*
X137344496Y-91193084D01*
X137350276Y-91199960D01*
X137377098Y-91217814D01*
X137463101Y-91275063D01*
X137463103Y-91275064D01*
X137470574Y-91280037D01*
X137479138Y-91282713D01*
X137479141Y-91282714D01*
X137539542Y-91301585D01*
X137608510Y-91323132D01*
X137752998Y-91325780D01*
X137772530Y-91320455D01*
X137883763Y-91290130D01*
X137883765Y-91290129D01*
X137892422Y-91287769D01*
X138015572Y-91212154D01*
X138112551Y-91105014D01*
X138175560Y-90974962D01*
X138199536Y-90832453D01*
X138199602Y-90827044D01*
X138199662Y-90826848D01*
X138200031Y-90822735D01*
X138200901Y-90822813D01*
X138220434Y-90759172D01*
X138236498Y-90739485D01*
X138349580Y-90626404D01*
X138411892Y-90592379D01*
X138438675Y-90589500D01*
X140489690Y-90589500D01*
X140557811Y-90609502D01*
X140604304Y-90663158D01*
X140614190Y-90734885D01*
X140601731Y-90814900D01*
X140601731Y-90814904D01*
X140600350Y-90823773D01*
X140601514Y-90832675D01*
X140601514Y-90832678D01*
X140605972Y-90866765D01*
X140619088Y-90967065D01*
X140677289Y-91099339D01*
X140683063Y-91106208D01*
X140750951Y-91186970D01*
X140779472Y-91251986D01*
X140780500Y-91268046D01*
X140780500Y-93120118D01*
X140780020Y-93131100D01*
X140776690Y-93169160D01*
X140779543Y-93179807D01*
X140779543Y-93179809D01*
X140786580Y-93206070D01*
X140788959Y-93216801D01*
X140795595Y-93254434D01*
X140801106Y-93263979D01*
X140802363Y-93267433D01*
X140803913Y-93270757D01*
X140806765Y-93281401D01*
X140813085Y-93290427D01*
X140813086Y-93290429D01*
X140828681Y-93312700D01*
X140834587Y-93321971D01*
X140848180Y-93345515D01*
X140848182Y-93345518D01*
X140853695Y-93355066D01*
X140862142Y-93362154D01*
X140862143Y-93362155D01*
X140882962Y-93379624D01*
X140891067Y-93387050D01*
X141763596Y-94259580D01*
X141797621Y-94321892D01*
X141800500Y-94348675D01*
X141800500Y-94832319D01*
X141780498Y-94900440D01*
X141726842Y-94946933D01*
X141656568Y-94957037D01*
X141591092Y-94926760D01*
X141576098Y-94913517D01*
X141561567Y-94900684D01*
X141555880Y-94895338D01*
X141544404Y-94883862D01*
X141536010Y-94877571D01*
X141528167Y-94871186D01*
X141499331Y-94845719D01*
X141492603Y-94839777D01*
X141484479Y-94835963D01*
X141482103Y-94834402D01*
X141466880Y-94825255D01*
X141464374Y-94823883D01*
X141457190Y-94818499D01*
X141412748Y-94801839D01*
X141403449Y-94797920D01*
X141368623Y-94781569D01*
X141368622Y-94781569D01*
X141360495Y-94777753D01*
X141351624Y-94776372D01*
X141348927Y-94775547D01*
X141331709Y-94771029D01*
X141328938Y-94770420D01*
X141320533Y-94767269D01*
X141273217Y-94763753D01*
X141263168Y-94762598D01*
X141254513Y-94761250D01*
X141254502Y-94761249D01*
X141249691Y-94760500D01*
X141234130Y-94760500D01*
X141224792Y-94760154D01*
X141174990Y-94756453D01*
X141166214Y-94758326D01*
X141158065Y-94758882D01*
X141142731Y-94760500D01*
X140373503Y-94760500D01*
X140305382Y-94740498D01*
X140258889Y-94686842D01*
X140249249Y-94613595D01*
X140250092Y-94608584D01*
X140259536Y-94552453D01*
X140259688Y-94540000D01*
X140245557Y-94441327D01*
X140240474Y-94405835D01*
X140240473Y-94405833D01*
X140239201Y-94396948D01*
X140179388Y-94265395D01*
X140173530Y-94258596D01*
X140173527Y-94258592D01*
X140090916Y-94162718D01*
X140090913Y-94162716D01*
X140085056Y-94155918D01*
X139990340Y-94094526D01*
X139971324Y-94082200D01*
X139971322Y-94082199D01*
X139963790Y-94077317D01*
X139955190Y-94074745D01*
X139833938Y-94038482D01*
X139833936Y-94038482D01*
X139825337Y-94035910D01*
X139816362Y-94035855D01*
X139816361Y-94035855D01*
X139795713Y-94035729D01*
X139783058Y-94035652D01*
X139715061Y-94015234D01*
X139694732Y-93998749D01*
X137980832Y-92284849D01*
X137946806Y-92222537D01*
X137945673Y-92174852D01*
X137959536Y-92092453D01*
X137959688Y-92080000D01*
X137939201Y-91936948D01*
X137879388Y-91805395D01*
X137873530Y-91798596D01*
X137873527Y-91798592D01*
X137790916Y-91702718D01*
X137790913Y-91702716D01*
X137785056Y-91695918D01*
X137663790Y-91617317D01*
X137646921Y-91612272D01*
X137533938Y-91578482D01*
X137533936Y-91578482D01*
X137525337Y-91575910D01*
X137516363Y-91575855D01*
X137516361Y-91575855D01*
X137453082Y-91575469D01*
X137380827Y-91575028D01*
X137372196Y-91577495D01*
X137372194Y-91577495D01*
X137250509Y-91612272D01*
X137250505Y-91612274D01*
X137241879Y-91614739D01*
X137234292Y-91619526D01*
X137234290Y-91619527D01*
X137127254Y-91687062D01*
X137119661Y-91691853D01*
X137023999Y-91800170D01*
X136962583Y-91930982D01*
X136961203Y-91939846D01*
X136961202Y-91939849D01*
X136948696Y-92020173D01*
X136940350Y-92073773D01*
X136941514Y-92082675D01*
X136941514Y-92082678D01*
X136955732Y-92191401D01*
X136959088Y-92217065D01*
X137017289Y-92349339D01*
X137110276Y-92459960D01*
X137117747Y-92464933D01*
X137117748Y-92464934D01*
X137223101Y-92535063D01*
X137223103Y-92535064D01*
X137230574Y-92540037D01*
X137239141Y-92542714D01*
X137239142Y-92542714D01*
X137307849Y-92564180D01*
X137359369Y-92595352D01*
X137576048Y-92812031D01*
X137610074Y-92874343D01*
X137605009Y-92945158D01*
X137562462Y-93001994D01*
X137495942Y-93026805D01*
X137470509Y-93026048D01*
X137430000Y-93020715D01*
X137421812Y-93021793D01*
X137293432Y-93038694D01*
X137293430Y-93038695D01*
X137285246Y-93039772D01*
X137264634Y-93048310D01*
X137157986Y-93092485D01*
X137157984Y-93092486D01*
X137150358Y-93095645D01*
X137143807Y-93100672D01*
X137052808Y-93170498D01*
X137034526Y-93184526D01*
X137025277Y-93196580D01*
X137021727Y-93201206D01*
X136964388Y-93243072D01*
X136921766Y-93250500D01*
X130468674Y-93250500D01*
X130400553Y-93230498D01*
X130379579Y-93213595D01*
X130276606Y-93110622D01*
X130242580Y-93048310D01*
X130239702Y-93021296D01*
X130248094Y-88548899D01*
X130268224Y-88480816D01*
X130321967Y-88434424D01*
X130373344Y-88423138D01*
X131733086Y-88415059D01*
X133908751Y-88402133D01*
X133976990Y-88421730D01*
X134023801Y-88475109D01*
X134035500Y-88528131D01*
X134035500Y-89381536D01*
X134015498Y-89449657D01*
X134003941Y-89464944D01*
X133963999Y-89510170D01*
X133902583Y-89640982D01*
X133880350Y-89783773D01*
X133881514Y-89792675D01*
X133881514Y-89792678D01*
X133897924Y-89918164D01*
X133899088Y-89927065D01*
X133957289Y-90059339D01*
X134050276Y-90169960D01*
X134057747Y-90174933D01*
X134057748Y-90174934D01*
X134163101Y-90245063D01*
X134163103Y-90245064D01*
X134170574Y-90250037D01*
X134179138Y-90252713D01*
X134179141Y-90252714D01*
X134239542Y-90271585D01*
X134308510Y-90293132D01*
X134452998Y-90295780D01*
X134484125Y-90287294D01*
X134583763Y-90260130D01*
X134583765Y-90260129D01*
X134592422Y-90257769D01*
X134715572Y-90182154D01*
X134812551Y-90075014D01*
X134875560Y-89944962D01*
X134899536Y-89802453D01*
X134899688Y-89790000D01*
X134879201Y-89646948D01*
X134819388Y-89515395D01*
X134775047Y-89463935D01*
X134745733Y-89399273D01*
X134744500Y-89381687D01*
X134744500Y-88522421D01*
X134764502Y-88454300D01*
X134818158Y-88407807D01*
X134869751Y-88396423D01*
X136219480Y-88388404D01*
X136287719Y-88408001D01*
G37*
%TD.AperFunction*%
%TA.AperFunction,Conductor*%
G36*
X155564624Y-94308640D02*
G01*
X154557060Y-93301077D01*
X154549633Y-93292973D01*
X154532151Y-93272139D01*
X154525066Y-93263695D01*
X154515523Y-93258185D01*
X154515519Y-93258182D01*
X154491971Y-93244587D01*
X154482700Y-93238681D01*
X154460429Y-93223086D01*
X154460427Y-93223085D01*
X154451401Y-93216765D01*
X154440757Y-93213913D01*
X154437433Y-93212363D01*
X154433979Y-93211106D01*
X154424434Y-93205595D01*
X154413582Y-93203681D01*
X154413581Y-93203681D01*
X154386801Y-93198959D01*
X154376070Y-93196580D01*
X154349809Y-93189543D01*
X154349807Y-93189543D01*
X154339160Y-93186690D01*
X154328176Y-93187651D01*
X154328175Y-93187651D01*
X154301100Y-93190020D01*
X154290118Y-93190500D01*
X146277009Y-93190500D01*
X146208888Y-93170498D01*
X146162395Y-93116842D01*
X146152291Y-93046568D01*
X146160600Y-93016281D01*
X146178390Y-92973334D01*
X146190228Y-92944754D01*
X146192407Y-92928207D01*
X146208207Y-92808188D01*
X146209285Y-92800000D01*
X146190228Y-92655246D01*
X146144051Y-92543766D01*
X146137515Y-92527986D01*
X146137514Y-92527984D01*
X146134355Y-92520358D01*
X146088010Y-92459960D01*
X146050501Y-92411077D01*
X146050500Y-92411076D01*
X146045474Y-92404526D01*
X146028794Y-92391727D01*
X145986928Y-92334388D01*
X145979500Y-92291766D01*
X145979500Y-88638674D01*
X145999502Y-88570553D01*
X146016405Y-88549578D01*
X146200505Y-88365479D01*
X146262817Y-88331454D01*
X146288851Y-88328577D01*
X151280485Y-88298919D01*
X151280486Y-88298919D01*
X151298601Y-88298811D01*
X155558289Y-88273502D01*
X155564624Y-94308640D01*
G37*
%TD.AperFunction*%
%TA.AperFunction,Conductor*%
G36*
X143296079Y-88366361D02*
G01*
X143317684Y-88383667D01*
X143743595Y-88809578D01*
X143777621Y-88871890D01*
X143780500Y-88898673D01*
X143780500Y-92171766D01*
X143760498Y-92239887D01*
X143731206Y-92271727D01*
X143714526Y-92284526D01*
X143709500Y-92291076D01*
X143709499Y-92291077D01*
X143707897Y-92293165D01*
X143625645Y-92400358D01*
X143622486Y-92407984D01*
X143622485Y-92407986D01*
X143598428Y-92466065D01*
X143553879Y-92521345D01*
X143486516Y-92543766D01*
X143417725Y-92526208D01*
X143392924Y-92506941D01*
X142656405Y-91770422D01*
X142622379Y-91708110D01*
X142619500Y-91681327D01*
X142619500Y-90479882D01*
X142619980Y-90468900D01*
X142622349Y-90441822D01*
X142623310Y-90430840D01*
X142613419Y-90393927D01*
X142611041Y-90383199D01*
X142606319Y-90356419D01*
X142606319Y-90356418D01*
X142604405Y-90345566D01*
X142598894Y-90336021D01*
X142597637Y-90332567D01*
X142596087Y-90329244D01*
X142593235Y-90318599D01*
X142571315Y-90287294D01*
X142565410Y-90278024D01*
X142551819Y-90254483D01*
X142551816Y-90254479D01*
X142546305Y-90244934D01*
X142517044Y-90220381D01*
X142508940Y-90212956D01*
X141817054Y-89521071D01*
X141809627Y-89512966D01*
X141792151Y-89492139D01*
X141785066Y-89483695D01*
X141775523Y-89478185D01*
X141775519Y-89478182D01*
X141751971Y-89464587D01*
X141742700Y-89458681D01*
X141720429Y-89443086D01*
X141720427Y-89443085D01*
X141711401Y-89436765D01*
X141700757Y-89433913D01*
X141697433Y-89432363D01*
X141693979Y-89431106D01*
X141684434Y-89425595D01*
X141673582Y-89423681D01*
X141673581Y-89423681D01*
X141646801Y-89418959D01*
X141636070Y-89416580D01*
X141609809Y-89409543D01*
X141609807Y-89409543D01*
X141599160Y-89406690D01*
X141588176Y-89407651D01*
X141588175Y-89407651D01*
X141561100Y-89410020D01*
X141550118Y-89410500D01*
X137895500Y-89410500D01*
X137827379Y-89390498D01*
X137780886Y-89336842D01*
X137769500Y-89284500D01*
X137769500Y-88504448D01*
X137789502Y-88436327D01*
X137843158Y-88389834D01*
X137894751Y-88378450D01*
X141329123Y-88358045D01*
X141379419Y-88369268D01*
X141380574Y-88370037D01*
X141518510Y-88413132D01*
X141662998Y-88415780D01*
X141682530Y-88410455D01*
X141793763Y-88380130D01*
X141793765Y-88380129D01*
X141802422Y-88377769D01*
X141810069Y-88373074D01*
X141818311Y-88369507D01*
X141818850Y-88370754D01*
X141874674Y-88354803D01*
X142161607Y-88353098D01*
X143227840Y-88346764D01*
X143296079Y-88366361D01*
G37*
%TD.AperFunction*%
%TD*%
M02*
